<svg xmlns="http://www.w3.org/2000/svg" width="20.448" height="17.707" viewBox="0 0 20.448 17.707">
  <path id="icon-twitter" d="M1523.006,17.513a7.942,7.942,0,0,1-2.411.692,4.417,4.417,0,0,0,1.843-2.462,7.951,7.951,0,0,1-2.66,1.079,4.064,4.064,0,0,0-3.062-1.411,4.335,4.335,0,0,0-4.191,4.469,5.358,5.358,0,0,0,.1,1.023,11.687,11.687,0,0,1-8.643-4.676,4.66,4.66,0,0,0-.571,2.256,4.547,4.547,0,0,0,1.869,3.72,4.014,4.014,0,0,1-1.895-.566v.054a4.407,4.407,0,0,0,3.361,4.386,4.174,4.174,0,0,1-1.1.153,4.939,4.939,0,0,1-.792-.07,4.242,4.242,0,0,0,3.919,3.1,8.074,8.074,0,0,1-5.2,1.909,8.155,8.155,0,0,1-1.012-.056,11.316,11.316,0,0,0,6.436,2.006c7.708,0,11.926-6.806,11.926-12.713,0-.193,0-.389-.013-.581a9.3,9.3,0,0,0,2.1-2.311Z" transform="translate(-1502.557 -15.41)" fill="#00aced"/>
</svg>
