<svg xmlns="http://www.w3.org/2000/svg" width="278.649" height="78.246" viewBox="0 0 278.649 78.246">
  <g id="logo" transform="translate(-22.8 -12.295)">
    <path id="Path_1" data-name="Path 1" d="M108.941,42.929c-6.63,0-13.093-.088-19.731-.088,1.034-1.81,2.012-3.532,2.994-5.237q6.548-11.344,13.1-22.686c2.03-3.509,5.829-3.494,7.853.021L119.2,25.433A20.682,20.682,0,0,0,108.941,42.929Z" transform="translate(-49.237)" fill="#1b4e91"/>
    <path id="Path_2" data-name="Path 2" d="M216.14,165.873a20.939,20.939,0,0,0-10.16-17.54l9.935-17.222c1.293,2.237,2.475,4.275,3.651,6.315q6.16,10.675,12.306,21.355a8.056,8.056,0,0,1,.776,1.624,4.086,4.086,0,0,1-3.7,5.43C224.738,165.958,220.523,165.873,216.14,165.873Z" transform="translate(-135.811 -88.09)" fill="#1b4e91"/>
    <path id="Path_3" data-name="Path 3" d="M60.225,216.269H59.131c-10.424,0-20.993-.021-31.414,0a4.3,4.3,0,0,1-4.285-2.506,3.656,3.656,0,0,1-.013-3.38c2.069-3.76,4.236-7.473,6.392-11.254a20.827,20.827,0,0,0,20.475-.07C53.561,204.734,56.824,210.384,60.225,216.269Z" transform="translate(-0.156 -138.469)" fill="#1b4e91"/>
    <path id="Path_4" data-name="Path 4" d="M129.341,130.6l-20.036,34.781L89.21,130.42Z" transform="translate(-49.237 -87.579)" fill="#bcbec1"/>
    <path id="Path_5" data-name="Path 5" d="M132.05,150.958A24.716,24.716,0,0,0,140.793,135a26.551,26.551,0,0,0,9.33,15.653A24.572,24.572,0,0,0,132.05,150.958Z" transform="translate(-80.999 -90.974)" fill="#1b4e91"/>
    <path id="Path_6" data-name="Path 6" d="M22.8,291.163V283.09h1.632v8.073Z" transform="translate(0 -200.769)" fill="#1b4e91"/>
    <path id="Path_7" data-name="Path 7" d="M34.92,291.163V283.09h1.629v8.073Z" transform="translate(-8.986 -200.769)" fill="#1b4e91"/>
    <path id="Path_8" data-name="Path 8" d="M47.14,291.163V283.09h2.441l1.464,5.505,1.448-5.505h2.446v8.073H53.424v-6.356l-1.6,6.356h-1.57l-1.6-6.356v6.356Z" transform="translate(-18.046 -200.769)" fill="#1b4e91"/>
    <path id="Path_9" data-name="Path 9" d="M95.76,291.163V283.09h1.632v3.6l3.292-3.584h2.193l-3.041,3.145,3.207,4.929h-2.11l-2.219-3.788-1.321,1.347v2.441Z" transform="translate(-54.093 -200.769)" fill="#1b4e91"/>
    <path id="Path_10" data-name="Path 10" d="M132.1,291.163h-1.774l-.706-1.833h-3.227l-.665,1.833H124l3.144-8.073h1.725Zm-3-3.183-1.112-3-1.091,3Z" transform="translate(-75.03 -200.769)" fill="#1b4e91"/>
    <path id="Path_11" data-name="Path 11" d="M157.07,288.147l1.588-.155a1.939,1.939,0,0,0,.579,1.174,1.764,1.764,0,0,0,1.182.375,1.81,1.81,0,0,0,1.187-.334.988.988,0,0,0,.4-.776.729.729,0,0,0-.168-.489,1.313,1.313,0,0,0-.584-.349q-.287-.1-1.306-.352a4.427,4.427,0,0,1-1.839-.8,2.12,2.12,0,0,1-.4-2.78,2.2,2.2,0,0,1,1.008-.817,4.064,4.064,0,0,1,1.588-.279,3.405,3.405,0,0,1,2.289.665,2.353,2.353,0,0,1,.807,1.779l-1.629.072a1.376,1.376,0,0,0-.45-.895,1.621,1.621,0,0,0-1.034-.274,1.867,1.867,0,0,0-1.112.292.587.587,0,0,0-.259.5.613.613,0,0,0,.243.489,4.289,4.289,0,0,0,1.5.54,7.918,7.918,0,0,1,1.758.582,2.261,2.261,0,0,1,.892.82,2.539,2.539,0,0,1-.062,2.586,2.328,2.328,0,0,1-1.091.9,4.57,4.57,0,0,1-1.756.295,3.5,3.5,0,0,1-2.353-.709A3.077,3.077,0,0,1,157.07,288.147Z" transform="translate(-99.549 -200.38)" fill="#1b4e91"/>
    <path id="Path_12" data-name="Path 12" d="M187.78,291.163V283.09h1.632v3.176h3.194V283.09h1.629v8.073h-1.629v-3.53h-3.194v3.53Z" transform="translate(-122.317 -200.769)" fill="#1b4e91"/>
    <path id="Path_13" data-name="Path 13" d="M219.07,291.163V283.09H220.7v8.073Z" transform="translate(-145.516 -200.769)" fill="#1b4e91"/>
    <path id="Path_14" data-name="Path 14" d="M231.37,291.14v-8.073h2.617a9.358,9.358,0,0,1,1.939.122,2.11,2.11,0,0,1,1.161.789,2.5,2.5,0,0,1,.468,1.572,2.658,2.658,0,0,1-.259,1.252,2.206,2.206,0,0,1-.688.794,2.328,2.328,0,0,1-.843.383,9.276,9.276,0,0,1-1.691.116h-1.063v3.046ZM233,284.432v2.291h.892a4.188,4.188,0,0,0,1.293-.127,1.06,1.06,0,0,0,.693-1.034,1.034,1.034,0,0,0-.259-.727,1.128,1.128,0,0,0-.654-.359,7.964,7.964,0,0,0-1.174-.054Z" transform="translate(-154.635 -200.746)" fill="#1b4e91"/>
    <path id="Path_15" data-name="Path 15" d="M260.417,283.09h1.629v4.373a8.825,8.825,0,0,0,.062,1.347,1.293,1.293,0,0,0,.5.8,1.72,1.72,0,0,0,1.076.3,1.647,1.647,0,0,0,1.047-.282,1.143,1.143,0,0,0,.424-.7,9.3,9.3,0,0,0,.07-1.371V283.09h1.632v4.241a10.65,10.65,0,0,1-.134,2.053,2.262,2.262,0,0,1-.486,1.014,2.478,2.478,0,0,1-.949.657,4.152,4.152,0,0,1-1.552.246,4.513,4.513,0,0,1-1.753-.259,2.507,2.507,0,0,1-.944-.7,2.191,2.191,0,0,1-.458-.895,9.824,9.824,0,0,1-.16-2.048Z" transform="translate(-176.171 -200.769)" fill="#1b4e91"/>
    <path id="Path_16" data-name="Path 16" d="M292,291.145v-8.073h3.432a5.882,5.882,0,0,1,1.88.217,1.862,1.862,0,0,1,.939.776,2.327,2.327,0,0,1,.352,1.272,2.147,2.147,0,0,1-.533,1.5,2.57,2.57,0,0,1-1.6.747,3.76,3.76,0,0,1,.874.678,9.209,9.209,0,0,1,.928,1.311l.985,1.575h-1.95l-1.179-1.758a11.848,11.848,0,0,0-.859-1.187,1.234,1.234,0,0,0-.489-.334,2.64,2.64,0,0,0-.822-.093h-.328v3.362Zm1.632-4.655h1.213a6.323,6.323,0,0,0,1.464-.1.879.879,0,0,0,.458-.341,1.05,1.05,0,0,0,.166-.608.967.967,0,0,0-.217-.657.99.99,0,0,0-.615-.315c-.132-.021-.517-.029-1.189-.029h-1.27Z" transform="translate(-199.587 -200.751)" fill="#1b4e91"/>
    <path id="Path_17" data-name="Path 17" d="M327.108,196.288H325.75V188.45h1.358Z" transform="translate(-224.609 -130.603)" fill="#1b4e91"/>
    <path id="Path_18" data-name="Path 18" d="M338.221,195.938l.036.675a2.1,2.1,0,0,1,1.7-.776c1.215,0,1.831.693,1.854,2.084v3.848H340.5v-3.778a1.2,1.2,0,0,0-.241-.822,1.006,1.006,0,0,0-.776-.259,1.259,1.259,0,0,0-1.179.716v4.137H337v-5.826Z" transform="translate(-232.95 -136.078)" fill="#1b4e91"/>
    <path id="Path_19" data-name="Path 19" d="M359.778,192.094a3.463,3.463,0,0,1,.626-2.162,2,2,0,0,1,1.673-.815,1.9,1.9,0,0,1,1.5.646V186.78h1.309v8.275h-1.171l-.065-.6a1.929,1.929,0,0,1-1.567.711,1.983,1.983,0,0,1-1.655-.825A3.575,3.575,0,0,1,359.778,192.094Zm1.309.114a2.425,2.425,0,0,0,.341,1.386,1.112,1.112,0,0,0,.972.5,1.236,1.236,0,0,0,1.174-.716v-2.488a1.215,1.215,0,0,0-1.156-.69,1.115,1.115,0,0,0-.98.5,2.694,2.694,0,0,0-.352,1.505Z" transform="translate(-249.835 -129.364)" fill="#1b4e91"/>
    <path id="Path_20" data-name="Path 20" d="M384.819,188.366a.69.69,0,0,1,.191-.5.719.719,0,0,1,.548-.2.727.727,0,0,1,.548.2.683.683,0,0,1,.194.5.675.675,0,0,1-.194.494.745.745,0,0,1-.548.2.737.737,0,0,1-.548-.2A.683.683,0,0,1,384.819,188.366Zm1.391,7.339H384.9v-5.826h1.311Z" transform="translate(-268.403 -130.02)" fill="#1b4e91"/>
    <path id="Path_21" data-name="Path 21" d="M398.644,201.743a1.962,1.962,0,0,1-.153-.543,2.035,2.035,0,0,1-1.528.652,2.069,2.069,0,0,1-1.433-.5,1.6,1.6,0,0,1-.556-1.239,1.652,1.652,0,0,1,.693-1.427,3.342,3.342,0,0,1,1.978-.5h.8V197.8a1.034,1.034,0,0,0-.259-.724,1.009,1.009,0,0,0-.776-.272,1.158,1.158,0,0,0-.732.222.693.693,0,0,0-.287.569h-1.309a1.454,1.454,0,0,1,.318-.9,2.144,2.144,0,0,1,.864-.654,3.048,3.048,0,0,1,1.22-.235,2.439,2.439,0,0,1,1.632.517,1.833,1.833,0,0,1,.626,1.446V200.4a2.975,2.975,0,0,0,.22,1.254v.091Zm-1.438-.941a1.49,1.49,0,0,0,.729-.189,1.277,1.277,0,0,0,.517-.517V199h-.706a1.931,1.931,0,0,0-1.094.259.828.828,0,0,0-.367.716.776.776,0,0,0,.259.6A.98.98,0,0,0,397.206,200.8Z" transform="translate(-275.931 -136.057)" fill="#1b4e91"/>
    <path id="Path_22" data-name="Path 22" d="M419.934,195.937l.039.675a2.087,2.087,0,0,1,1.7-.776q1.81,0,1.852,2.084v3.848h-1.309v-3.778a1.2,1.2,0,0,0-.24-.822,1.006,1.006,0,0,0-.776-.259,1.259,1.259,0,0,0-1.179.716v4.137H418.7v-5.826Z" transform="translate(-293.523 -136.078)" fill="#1b4e91"/>
    <path id="Path_23" data-name="Path 23" d="M455.275,196.288H453.92V188.45h1.355Z" transform="translate(-319.635 -130.603)" fill="#1b4e91"/>
    <path id="Path_24" data-name="Path 24" d="M466.333,195.937l.039.675a2.089,2.089,0,0,1,1.7-.776q1.81,0,1.852,2.084v3.848h-1.308v-3.778a1.215,1.215,0,0,0-.238-.822,1.006,1.006,0,0,0-.776-.259,1.259,1.259,0,0,0-1.179.716v4.137H465.11v-5.826Z" transform="translate(-327.932 -136.078)" fill="#1b4e91"/>
    <path id="Path_25" data-name="Path 25" d="M491.41,200.124a.59.59,0,0,0-.29-.533,3.054,3.054,0,0,0-.954-.323,4.915,4.915,0,0,1-1.115-.354,1.487,1.487,0,0,1-.98-1.373,1.552,1.552,0,0,1,.634-1.262,2.519,2.519,0,0,1,1.616-.517,2.607,2.607,0,0,1,1.689.517,1.637,1.637,0,0,1,.644,1.34h-1.308a.807.807,0,0,0-.282-.628,1.078,1.078,0,0,0-.742-.259,1.151,1.151,0,0,0-.7.2.626.626,0,0,0-.271.533.53.53,0,0,0,.259.468,3.494,3.494,0,0,0,1.034.336,4.913,4.913,0,0,1,1.208.4,1.727,1.727,0,0,1,.652.564,1.43,1.43,0,0,1,.212.8,1.52,1.52,0,0,1-.654,1.3,2.788,2.788,0,0,1-1.707.486,2.994,2.994,0,0,1-1.275-.259,2.1,2.1,0,0,1-.874-.711,1.686,1.686,0,0,1-.31-.975h1.27a.921.921,0,0,0,.349.714,1.36,1.36,0,0,0,.859.259,1.322,1.322,0,0,0,.776-.2A.613.613,0,0,0,491.41,200.124Z" transform="translate(-344.821 -136.021)" fill="#1b4e91"/>
    <path id="Path_26" data-name="Path 26" d="M510.718,190.76v1.415h1.034v.975h-1.034V196.4a.713.713,0,0,0,.132.481.613.613,0,0,0,.471.147,2,2,0,0,0,.458-.052v1.011a3.209,3.209,0,0,1-.861.124q-1.51,0-1.508-1.663v-3.3h-.959v-.97h.959v-1.414Z" transform="translate(-360.064 -132.315)" fill="#1b4e91"/>
    <path id="Path_27" data-name="Path 27" d="M525.069,188.366a.69.69,0,0,1,.191-.5.711.711,0,0,1,.546-.2.729.729,0,0,1,.551.2.691.691,0,0,1,.191.5.683.683,0,0,1-.191.494.747.747,0,0,1-.551.2.729.729,0,0,1-.546-.2A.682.682,0,0,1,525.069,188.366Zm1.389,7.339h-1.309v-5.826h1.309Z" transform="translate(-372.386 -130.02)" fill="#1b4e91"/>
    <path id="Path_28" data-name="Path 28" d="M535.788,190.76v1.415h1.034v.975h-1.034V196.4a.714.714,0,0,0,.132.481.613.613,0,0,0,.471.147,1.989,1.989,0,0,0,.458-.052v1.011a3.209,3.209,0,0,1-.861.124q-1.51,0-1.508-1.663v-3.3h-.959v-.97h.959v-1.414Z" transform="translate(-378.651 -132.315)" fill="#1b4e91"/>
    <path id="Path_29" data-name="Path 29" d="M553.578,201.458a2.03,2.03,0,0,1-1.637.677,1.81,1.81,0,0,1-1.435-.564,2.356,2.356,0,0,1-.486-1.606V196.19h1.308v3.76c0,.74.305,1.109.921,1.109a1.326,1.326,0,0,0,1.293-.685V196.2h1.308v5.826H553.62Z" transform="translate(-390.885 -136.341)" fill="#1b4e91"/>
    <path id="Path_30" data-name="Path 30" d="M573.668,190.76v1.415H574.7v.975h-1.034V196.4a.715.715,0,0,0,.132.481.613.613,0,0,0,.471.147,2,2,0,0,0,.458-.052v1.011a3.209,3.209,0,0,1-.861.124q-1.51,0-1.508-1.663v-3.3H571.4v-.97h.959v-1.414Z" transform="translate(-406.736 -132.315)" fill="#1b4e91"/>
    <path id="Path_31" data-name="Path 31" d="M589.914,201.894a2.7,2.7,0,0,1-2.017-.776,2.844,2.844,0,0,1-.776-2.087v-.16a3.487,3.487,0,0,1,.339-1.552,2.557,2.557,0,0,1,.944-1.071,2.511,2.511,0,0,1,1.358-.38,2.288,2.288,0,0,1,1.839.758,3.231,3.231,0,0,1,.649,2.149v.517h-3.8a1.753,1.753,0,0,0,.481,1.143,1.448,1.448,0,0,0,1.063.419,1.777,1.777,0,0,0,1.466-.727l.7.672a2.352,2.352,0,0,1-.933.812A2.933,2.933,0,0,1,589.914,201.894Zm-.155-4.991a1.107,1.107,0,0,0-.871.375,1.982,1.982,0,0,0-.422,1.052h2.5v-.1a1.592,1.592,0,0,0-.349-.993A1.092,1.092,0,0,0,589.759,196.9Z" transform="translate(-418.39 -136.1)" fill="#1b4e91"/>
    <path id="Path_32" data-name="Path 32" d="M620.544,198.758a3.418,3.418,0,0,1,.339-1.552,2.469,2.469,0,0,1,.952-1.055,2.692,2.692,0,0,1,1.412-.367,2.547,2.547,0,0,1,1.914.758,2.981,2.981,0,0,1,.794,2.014v.308a3.438,3.438,0,0,1-.331,1.552,2.426,2.426,0,0,1-.946,1.05,2.706,2.706,0,0,1-1.425.372,2.524,2.524,0,0,1-1.973-.822,3.134,3.134,0,0,1-.74-2.188Zm1.308.114a2.356,2.356,0,0,0,.37,1.407,1.293,1.293,0,0,0,2.069,0,2.586,2.586,0,0,0,.37-1.513,2.311,2.311,0,0,0-.38-1.4,1.293,1.293,0,0,0-2.051,0A2.468,2.468,0,0,0,621.852,198.872Z" transform="translate(-443.164 -136.039)" fill="#1b4e91"/>
    <path id="Path_33" data-name="Path 33" d="M645.027,194.756V189.9h-.887v-.97h.887V188.4a2,2,0,0,1,.54-1.5,2.069,2.069,0,0,1,1.508-.517,3.021,3.021,0,0,1,.732.1l-.034,1.021a2.586,2.586,0,0,0-.5-.041.84.84,0,0,0-.939.962v.517h1.187v.959h-1.187v4.856Z" transform="translate(-460.666 -129.07)" fill="#1b4e91"/>
    <path id="Path_34" data-name="Path 34" d="M673.771,188.45l2.263,6.007,2.255-6.007h1.761v7.838h-1.357V193.7l.134-3.457-2.314,6.041h-.975l-2.309-6.036.135,3.452v2.586H672V188.45Z" transform="translate(-481.322 -130.603)" fill="#1b4e91"/>
    <path id="Path_35" data-name="Path 35" d="M711.811,201.743a1.977,1.977,0,0,1-.15-.543,2.038,2.038,0,0,1-1.531.652,2.069,2.069,0,0,1-1.433-.5,1.6,1.6,0,0,1-.553-1.239,1.647,1.647,0,0,1,.693-1.427,3.318,3.318,0,0,1,1.978-.5h.8V197.8a1.036,1.036,0,0,0-.259-.724,1,1,0,0,0-.776-.272,1.164,1.164,0,0,0-.732.222.7.7,0,0,0-.284.569h-1.308a1.454,1.454,0,0,1,.318-.9,2.125,2.125,0,0,1,.864-.654,3.042,3.042,0,0,1,1.221-.235,2.443,2.443,0,0,1,1.632.517,1.834,1.834,0,0,1,.623,1.446V200.4a2.97,2.97,0,0,0,.22,1.254v.09Zm-1.438-.941a1.475,1.475,0,0,0,.729-.189,1.263,1.263,0,0,0,.517-.517V199h-.706a1.93,1.93,0,0,0-1.091.259.82.82,0,0,0-.367.716.776.776,0,0,0,.259.6A.975.975,0,0,0,710.373,200.8Z" transform="translate(-508.117 -136.058)" fill="#1b4e91"/>
    <path id="Path_36" data-name="Path 36" d="M733.126,195.937l.036.675a2.09,2.09,0,0,1,1.7-.776q1.81,0,1.852,2.084v3.848H735.4v-3.778a1.215,1.215,0,0,0-.238-.822,1.006,1.006,0,0,0-.776-.259,1.259,1.259,0,0,0-1.179.716v4.137H731.9v-5.826Z" transform="translate(-525.732 -136.078)" fill="#1b4e91"/>
    <path id="Path_37" data-name="Path 37" d="M758.6,201.743a2.07,2.07,0,0,1-.15-.543,2.037,2.037,0,0,1-1.531.652,2.069,2.069,0,0,1-1.433-.5,1.606,1.606,0,0,1-.553-1.239,1.647,1.647,0,0,1,.693-1.427,3.317,3.317,0,0,1,1.978-.5h.8V197.8a1.035,1.035,0,0,0-.259-.724,1,1,0,0,0-.776-.272,1.166,1.166,0,0,0-.734.222.7.7,0,0,0-.284.569h-1.309a1.454,1.454,0,0,1,.318-.9,2.124,2.124,0,0,1,.864-.654,3.042,3.042,0,0,1,1.221-.235,2.444,2.444,0,0,1,1.632.517,1.833,1.833,0,0,1,.623,1.446V200.4a2.966,2.966,0,0,0,.222,1.254v.09Zm-1.438-.941a1.474,1.474,0,0,0,.729-.189,1.261,1.261,0,0,0,.517-.517V199H757.7a1.929,1.929,0,0,0-1.091.259.82.82,0,0,0-.367.716.776.776,0,0,0,.259.6A.975.975,0,0,0,757.163,200.8Z" transform="translate(-542.808 -136.058)" fill="#1b4e91"/>
    <path id="Path_38" data-name="Path 38" d="M777.837,198.79a3.414,3.414,0,0,1,.636-2.167,2.048,2.048,0,0,1,1.694-.809,1.916,1.916,0,0,1,1.567.693l.06-.587h1.179v5.65a2.343,2.343,0,0,1-.714,1.81,2.713,2.713,0,0,1-1.924.662,3.085,3.085,0,0,1-1.252-.259,2.186,2.186,0,0,1-.928-.7l.618-.776a1.875,1.875,0,0,0,1.487.716,1.44,1.44,0,0,0,1.034-.354,1.342,1.342,0,0,0,.378-1.034v-.393a1.921,1.921,0,0,1-1.508.631,2.043,2.043,0,0,1-1.67-.812A3.6,3.6,0,0,1,777.837,198.79Zm1.293.114a2.353,2.353,0,0,0,.357,1.381,1.148,1.148,0,0,0,.993.5,1.259,1.259,0,0,0,1.174-.68v-2.563a1.241,1.241,0,0,0-1.164-.662,1.156,1.156,0,0,0-1,.517,2.633,2.633,0,0,0-.347,1.5Z" transform="translate(-559.786 -136.061)" fill="#1b4e91"/>
    <path id="Path_39" data-name="Path 39" d="M804.814,201.895a2.7,2.7,0,0,1-2.017-.776,2.845,2.845,0,0,1-.776-2.087v-.16a3.526,3.526,0,0,1,.336-1.552,2.586,2.586,0,0,1,.946-1.071,2.511,2.511,0,0,1,1.358-.38,2.3,2.3,0,0,1,1.839.758,3.231,3.231,0,0,1,.649,2.149v.517h-3.807a1.769,1.769,0,0,0,.484,1.143,1.448,1.448,0,0,0,1.063.419,1.776,1.776,0,0,0,1.466-.727l.7.672a2.353,2.353,0,0,1-.934.812,2.94,2.94,0,0,1-1.311.282Zm-.155-4.991a1.107,1.107,0,0,0-.871.375,1.96,1.96,0,0,0-.422,1.052h2.493v-.1a1.593,1.593,0,0,0-.349-.993A1.1,1.1,0,0,0,804.659,196.9Z" transform="translate(-577.718 -136.101)" fill="#1b4e91"/>
    <path id="Path_40" data-name="Path 40" d="M827,195.919l.039.61a2.092,2.092,0,0,1,1.678-.716,1.611,1.611,0,0,1,1.6.892,2.069,2.069,0,0,1,1.787-.892,1.808,1.808,0,0,1,1.435.533,2.358,2.358,0,0,1,.484,1.572v3.827h-1.311v-3.791a1.164,1.164,0,0,0-.241-.812,1.06,1.06,0,0,0-.8-.259,1.086,1.086,0,0,0-.729.24,1.243,1.243,0,0,0-.4.626v4h-1.308v-3.832a.937.937,0,0,0-1.05-1.034,1.156,1.156,0,0,0-1.115.641v4.22H825.76v-5.821Z" transform="translate(-595.32 -136.06)" fill="#1b4e91"/>
    <path id="Path_41" data-name="Path 41" d="M864.8,201.894a2.713,2.713,0,0,1-2.017-.776,2.844,2.844,0,0,1-.776-2.087v-.16a3.49,3.49,0,0,1,.336-1.552,2.587,2.587,0,0,1,.944-1.071,2.511,2.511,0,0,1,1.358-.38,2.288,2.288,0,0,1,1.839.758,3.23,3.23,0,0,1,.649,2.149v.517h-3.8a1.753,1.753,0,0,0,.481,1.143,1.448,1.448,0,0,0,1.063.419,1.777,1.777,0,0,0,1.466-.727l.706.672a2.378,2.378,0,0,1-.936.812A2.925,2.925,0,0,1,864.8,201.894Zm-.155-4.991a1.1,1.1,0,0,0-.869.375,1.96,1.96,0,0,0-.424,1.052h2.493v-.1a1.593,1.593,0,0,0-.349-.993A1.091,1.091,0,0,0,864.649,196.9Z" transform="translate(-622.195 -136.1)" fill="#1b4e91"/>
    <path id="Path_42" data-name="Path 42" d="M886.966,195.937l.039.675a2.087,2.087,0,0,1,1.7-.776q1.81,0,1.852,2.084v3.848h-1.308v-3.778a1.2,1.2,0,0,0-.241-.822,1.006,1.006,0,0,0-.776-.259,1.259,1.259,0,0,0-1.179.716v4.137H885.74v-5.826Z" transform="translate(-639.79 -136.078)" fill="#1b4e91"/>
    <path id="Path_43" data-name="Path 43" d="M909.345,190.76v1.415h1.034v.975h-1.034V196.4a.714.714,0,0,0,.132.481.615.615,0,0,0,.473.147,2,2,0,0,0,.458-.052v1.011a3.24,3.24,0,0,1-.864.124q-1.505,0-1.508-1.663v-3.3h-.957v-.97h.957v-1.414Z" transform="translate(-655.612 -132.315)" fill="#1b4e91"/>
    <path id="Path_44" data-name="Path 44" d="M937.042,192.9l-.89.941v2.444H934.79V188.45h1.363v3.677l.755-.931,2.294-2.746h1.647l-2.9,3.473,3.082,4.365h-1.616Z" transform="translate(-676.156 -130.603)" fill="#1b4e91"/>
    <path id="Path_45" data-name="Path 45" d="M964.131,201.743a1.978,1.978,0,0,1-.15-.543,2.038,2.038,0,0,1-1.531.652,2.069,2.069,0,0,1-1.433-.5,1.6,1.6,0,0,1-.553-1.239,1.65,1.65,0,0,1,.69-1.427,3.33,3.33,0,0,1,1.981-.5h.8V197.8a1.034,1.034,0,0,0-.259-.724,1,1,0,0,0-.776-.272,1.164,1.164,0,0,0-.732.222.7.7,0,0,0-.284.569H960.6a1.454,1.454,0,0,1,.318-.9,2.127,2.127,0,0,1,.864-.654,3.041,3.041,0,0,1,1.22-.235,2.431,2.431,0,0,1,1.629.517,1.826,1.826,0,0,1,.623,1.443V200.4a2.974,2.974,0,0,0,.22,1.254v.09Zm-1.438-.941a1.474,1.474,0,0,0,.729-.189,1.263,1.263,0,0,0,.517-.517V199h-.706a1.93,1.93,0,0,0-1.091.259.82.82,0,0,0-.367.716.776.776,0,0,0,.259.6.975.975,0,0,0,.659.225Z" transform="translate(-695.189 -136.057)" fill="#1b4e91"/>
    <path id="Path_46" data-name="Path 46" d="M986.807,200.123a.592.592,0,0,0-.287-.533,3.1,3.1,0,0,0-.957-.323,4.969,4.969,0,0,1-1.115-.354,1.487,1.487,0,0,1-.98-1.373,1.551,1.551,0,0,1,.636-1.262,2.513,2.513,0,0,1,1.614-.517,2.6,2.6,0,0,1,1.689.517,1.637,1.637,0,0,1,.644,1.339h-1.308a.812.812,0,0,0-.279-.628,1.083,1.083,0,0,0-.745-.259,1.156,1.156,0,0,0-.7.2.625.625,0,0,0-.272.533.53.53,0,0,0,.259.468,3.493,3.493,0,0,0,1.034.336,4.914,4.914,0,0,1,1.208.4,1.689,1.689,0,0,1,.652.564,1.431,1.431,0,0,1,.215.8,1.521,1.521,0,0,1-.652,1.275,2.788,2.788,0,0,1-1.707.486,3,3,0,0,1-1.277-.259,2.094,2.094,0,0,1-.871-.711,1.671,1.671,0,0,1-.313-.975h1.27a.912.912,0,0,0,.352.714,1.347,1.347,0,0,0,.856.259,1.322,1.322,0,0,0,.776-.2A.613.613,0,0,0,986.807,200.123Z" transform="translate(-712.114 -136.021)" fill="#1b4e91"/>
    <path id="Path_47" data-name="Path 47" d="M1007.486,189.823a2.043,2.043,0,0,1,1.621-.742q1.862,0,1.888,2.126v3.806h-1.308v-3.757a1.137,1.137,0,0,0-.259-.853,1.057,1.057,0,0,0-.776-.259,1.259,1.259,0,0,0-1.174.7V195h-1.308V186.73h1.308Z" transform="translate(-729.078 -129.327)" fill="#1b4e91"/>
    <path id="Path_48" data-name="Path 48" d="M1030,188.366a.68.68,0,0,1,.191-.5.711.711,0,0,1,.545-.2.721.721,0,0,1,.548.2.684.684,0,0,1,.194.5.675.675,0,0,1-.194.494.74.74,0,0,1-.548.2.729.729,0,0,1-.545-.2A.672.672,0,0,1,1030,188.366Zm1.389,7.339h-1.308v-5.826h1.308Z" transform="translate(-746.744 -130.02)" fill="#1b4e91"/>
    <path id="Path_49" data-name="Path 49" d="M1045.935,198.895a3.464,3.464,0,0,1-.616,2.157,2.131,2.131,0,0,1-3.181.173v2.764h-1.308v-8.068h1.2l.054.592a1.921,1.921,0,0,1,1.567-.7,1.981,1.981,0,0,1,1.671.794,3.561,3.561,0,0,1,.608,2.206Zm-1.293-.114a2.417,2.417,0,0,0-.349-1.383,1.125,1.125,0,0,0-.993-.517,1.2,1.2,0,0,0-1.151.662v2.586a1.21,1.21,0,0,0,1.161.678,1.128,1.128,0,0,0,.978-.5,2.716,2.716,0,0,0,.344-1.521Z" transform="translate(-754.775 -136.062)" fill="#1b4e91"/>
    <path id="Path_50" data-name="Path 50" d="M1068.275,201.487a2.03,2.03,0,0,1-1.637.677,1.81,1.81,0,0,1-1.435-.553,2.356,2.356,0,0,1-.489-1.606V196.23h1.308v3.76q0,1.109.921,1.109a1.346,1.346,0,0,0,1.293-.685V196.23h1.309v5.826h-1.234Z" transform="translate(-772.478 -136.371)" fill="#1b4e91"/>
    <path id="Path_51" data-name="Path 51" d="M1091.584,197.121a3,3,0,0,0-.533-.044,1.2,1.2,0,0,0-1.213.69v3.982h-1.309v-5.826h1.249l.034.652a1.474,1.474,0,0,1,1.314-.758,1.2,1.2,0,0,1,.463.075Z" transform="translate(-790.14 -136.065)" fill="#1b4e91"/>
    <path id="Path_52" data-name="Path 52" d="M327.645,122.889a6.067,6.067,0,0,1-1.192-.347,2.187,2.187,0,0,1-1.153-1.727,1.539,1.539,0,0,1,1.652-1.6,2.643,2.643,0,0,1,1.81.8c.807.7,1.071,1.246,1.071,2.927,0,.546,0,1.014-.028,1.456h1.05c.649,0,1.352,0,2.095.028v-3.672h-2.273l-.45-.91.075-.1h5.042l.45.91-.075.1h-1.7l.047,8.6-.093.1-1.063-.279.039-3.719h-.639a14.571,14.571,0,0,0-2.534.15c-.282,1.034-.657,1.409-1.071,1.409-.272,0-.639-.2-1.146-.8a1.528,1.528,0,0,1-.44-.975.722.722,0,0,1,.571-.7,8.185,8.185,0,0,1,1.034-.225c.049-.6.067-1.2.067-1.9,0-1.963-.592-2.273-1.164-2.273a1.063,1.063,0,0,0-1.127,1.052c0,.657.546,1.068,1.267,1.407Z" transform="translate(-224.276 -79.275)" fill="#1b4e91"/>
    <path id="Path_53" data-name="Path 53" d="M362.44,121.353l.075-.1h4.112l.45.91-.075.1h-1.7l.039,8.6-.1.1-1.05-.279.026-8.422H362.89Z" transform="translate(-251.812 -80.78)" fill="#1b4e91"/>
    <path id="Path_54" data-name="Path 54" d="M376.89,121.353l.075-.1H383.7l.45.91-.075.1H381.77a7.932,7.932,0,0,1,.142,1.577,3.379,3.379,0,0,1-2.048,3.23,13.173,13.173,0,0,0,3.662,2.684l-.647,1.2h-.114a18.016,18.016,0,0,1-3.848-3.8,3.5,3.5,0,0,1-.706-1.575.776.776,0,0,1,.171-.5,1.028,1.028,0,0,1,.889-.31c.414,0,.828.021,1.192.057a2.945,2.945,0,0,0,.334-1.422,5.483,5.483,0,0,0-.1-1.146h-3.362Z" transform="translate(-262.525 -80.78)" fill="#1b4e91"/>
    <path id="Path_55" data-name="Path 55" d="M401.5,121.353l.075-.1h8.815l.45.91-.075.1h-1.7l.039,8.6-.1.1-1.05-.279.036-5.493c-.46-.028-.946-.028-1.453-.028-2.095,0-2.873.714-2.873,1.552,0,.957.946,2.069,2.648,3.088l-.809,1.153h-.083c-1.81-1.652-2.713-3.24-2.713-4.693,0-1.4.776-2.263,3.209-2.263.732,0,1.407,0,2.069.057v-1.795h-6.038Z" transform="translate(-280.771 -80.78)" fill="#1b4e91"/>
    <path id="Path_56" data-name="Path 56" d="M425.362,109.35l.075-.1h1.7c-.15-2.167-1.014-3.238-2.291-3.238a1.277,1.277,0,0,0-1.381,1.277,2.617,2.617,0,0,0,.631,1.577l-.085.1-1-.458a2.635,2.635,0,0,1-.714-1.663,1.8,1.8,0,0,1,2.02-1.784c1.81,0,3.548,1.727,3.879,4.187h1.352l.45.91-.075.1h-1.7l.039,8.6-.1.1-1.05-.279.028-8.422h-1.334Z" transform="translate(-296.192 -68.777)" fill="#1b4e91"/>
    <path id="Path_57" data-name="Path 57" d="M448.59,121.353l.075-.1h9.051l.453.91-.075.1h-1.7l.047,8.6-.1.1-1.06-.279.039-2.7a3.085,3.085,0,0,1-1.952.592c-1.841,0-3.08-1.567-3.7-3.437l.1-.16c1.275-.422,2.224-.732,2.224-1.528a1.81,1.81,0,0,0-.543-1.184h-2.4Zm3.783.91a3.364,3.364,0,0,1,.647,1.727c0,.9-.517,1.334-1.753,1.795-.178.065-.259.14-.259.259a1.969,1.969,0,0,0,1.978,1.446,2.953,2.953,0,0,0,1.681-.517,1.551,1.551,0,0,0,.649-1.381v-3.328Z" transform="translate(-315.684 -80.78)" fill="#1b4e91"/>
    <path id="Path_58" data-name="Path 58" d="M500.54,121.353l.075-.1h8.836l.45.91-.075.1h-1.7l.047,8.6-.093.1-1.06-.279.036-3.212-.036-.028c-1.389,1.034-2.78,2.056-4.15,3.041l-1.078-.721v-.047l2.7-1.906a2.977,2.977,0,0,1-1.182-.76,3.333,3.333,0,0,1-.817-2.586c0-.61,0-1.371.028-2.2h-1.531Zm6.514.91h-3.388c-.018,1-.029,1.756-.029,2.47,0,1.6.4,2.309,1.381,2.309a3.421,3.421,0,0,0,2.035-1Z" transform="translate(-354.2 -80.78)" fill="#1b4e91"/>
    <path id="Path_59" data-name="Path 59" d="M533.25,121.353l.075-.1h8.911l.45.91-.075.1h-1.7l.036,8.6-.093.1-1.052-.279.039-2.526a3.5,3.5,0,0,1-2.149.7,3.218,3.218,0,0,1-3.276-2.987c0-1.435,1.21-2.327,2.863-2.327a10.357,10.357,0,0,1,2.563.336v-1.624H533.7Zm3.248,3.522a1.663,1.663,0,0,0-.985,1.575c0,.753.517,1.381,1.681,1.381a3.545,3.545,0,0,0,1.2-.207Zm2.488,2.459a1.743,1.743,0,0,0,.864-1.5v-1.081a6.723,6.723,0,0,0-1.642-.207,4.448,4.448,0,0,0-1.052.1Z" transform="translate(-378.451 -80.78)" fill="#1b4e91"/>
    <path id="Path_60" data-name="Path 60" d="M549.939,111.034l-1.034,1.034-1.034-1.034L548.9,110Z" transform="translate(-389.291 -72.439)" fill="#1b4e91"/>
    <path id="Path_61" data-name="Path 61" d="M574.709,121.51c-.432-.864-.76-1.275-1.4-1.275a1.257,1.257,0,0,0-1.293,1.293,1.32,1.32,0,0,0,1.464,1.192c.132,0,.835-.15,1.9-.375l.706,1.014-.046.093c-1.681.274-2.488.724-2.488,1.6a1.24,1.24,0,0,0,1.35,1.1,3,3,0,0,0,1.859-.618,1.683,1.683,0,0,0,.675-1.466v-3.416h-1.627l-.44-.91.075-.1h4.4l.45.91-.075.1h-1.7l.047,8.6-.093.1-1.06-.279.036-2.462a3.077,3.077,0,0,1-4.158-.393,2.47,2.47,0,0,1-.853-1.66,1.716,1.716,0,0,1,.339-1.034,3.425,3.425,0,0,1-1.81-2.609,1.81,1.81,0,0,1,1.851-1.841c1.321,0,1.717.874,2.327,2.2l-.328.243Z" transform="translate(-406.409 -79.162)" fill="#1b4e91"/>
    <path id="Path_62" data-name="Path 62" d="M621.91,121.353l.075-.1h9.958l.453.91-.075.1h-1.7l.047,8.6-.1.1-1.06-.279.039-3.633a5.362,5.362,0,0,1-1.231.14,6.258,6.258,0,0,1-2.684-.693,3.217,3.217,0,0,1-1.034,1.171,12.538,12.538,0,0,0,3.362,2.459l-.639,1.221h-.085a15.645,15.645,0,0,1-3.62-3.755,3.636,3.636,0,0,1-.621-1.539.835.835,0,0,1,.835-.789,6.114,6.114,0,0,1,.853.093,4.86,4.86,0,0,0,.171-1.378,10.742,10.742,0,0,0-.142-1.72H622.36Zm3.82.91a11.988,11.988,0,0,1,.217,2.226,5.6,5.6,0,0,1-.114,1.2,5.084,5.084,0,0,0,1.738.3,9.5,9.5,0,0,0,1.981-.235v-3.494Z" transform="translate(-444.184 -80.78)" fill="#1b4e91"/>
    <path id="Path_63" data-name="Path 63" d="M642.809,111.034l-1.034,1.034-1.034-1.034L641.774,110Z" transform="translate(-458.145 -72.439)" fill="#1b4e91"/>
    <path id="Path_64" data-name="Path 64" d="M659,120.009l.075-.1H665.8a1.908,1.908,0,0,1,1.316-.468,2.5,2.5,0,0,1,1.756.835,2.708,2.708,0,0,1,.9,1.952c0,1.182-.817,1.764-2.374,2.395-.178.065-.259.14-.259.259,0,.365.517,1.332,1.971,1.332a3.075,3.075,0,0,0,1.417-.328,1.906,1.906,0,0,0,1.146-1.839v-3.124h-1.363l-.447-.91.075-.1h4.137l.45.91-.075.1h-1.7l.047,8.6-.093.1-1.063-.279.039-2.715a3.287,3.287,0,0,1-2.2.724,3.527,3.527,0,0,1-2.881-1.717,2.845,2.845,0,0,1-1.192.215,6.258,6.258,0,0,1-2.684-.693,3.2,3.2,0,0,1-1.034,1.171,12.582,12.582,0,0,0,3.362,2.459l-.636,1.221h-.085a15.643,15.643,0,0,1-3.62-3.755,3.659,3.659,0,0,1-.618-1.539.835.835,0,0,1,.835-.789,6.115,6.115,0,0,1,.853.093,4.854,4.854,0,0,0,.171-1.378,10.756,10.756,0,0,0-.142-1.72h-2.356Zm8.241,2.873a4.074,4.074,0,0,1-1.146-.414,2.087,2.087,0,0,1-.724-1.552H662.82a11.993,11.993,0,0,1,.217,2.226,5.6,5.6,0,0,1-.114,1.2,5.084,5.084,0,0,0,1.738.3,5.732,5.732,0,0,0,1.321-.15c-.065-.14-.122-.3-.178-.458l.047-.15c1.81-.742,2.976-1.184,2.976-2.327a1.136,1.136,0,0,0-1.231-1.127,1.05,1.05,0,0,0-1.107,1.034,1.541,1.541,0,0,0,.846,1.192Z" transform="translate(-471.683 -79.435)" fill="#1b4e91"/>
    <path id="Path_65" data-name="Path 65" d="M715.54,121.353l.075-.1h4.111l.45.91-.075.1h-1.7l.039,8.6-.1.1-1.05-.279.028-8.422H715.99Z" transform="translate(-513.602 -80.78)" fill="#1b4e91"/>
    <path id="Path_66" data-name="Path 66" d="M730,121.353l.075-.1h8.717l.45.91-.075.1h-1.7l.047,8.6-.093.1-1.06-.279.036-4.779a13.323,13.323,0,0,0-1.4-.075,5.514,5.514,0,0,0-1.551.178v.714a2.275,2.275,0,0,1-.093.807.68.68,0,0,1-.628.357,2.877,2.877,0,0,1-1.642-2.069.956.956,0,0,1,.665-.835,4.547,4.547,0,0,1,1.81-.3c.864,0,1.81.075,2.844.178v-2.6h-5.948Z" transform="translate(-524.323 -80.78)" fill="#1b4e91"/>
    <path id="Path_67" data-name="Path 67" d="M780.71,121.353l.075-.1h11.507l.45.91-.075.1h-4.9v2.912l.028.018a2.728,2.728,0,0,1,1.927-.882,2.275,2.275,0,0,1,2.139,2.374,4.943,4.943,0,0,1-1.342,2.976h-.093l-.985-.724a4.925,4.925,0,0,0,1.5-2.845.678.678,0,0,0-.732-.76,3.563,3.563,0,0,0-2.42,1.6l.018,3.944-.093.1-1.034-.279.054-2.785-.029-.021a2.9,2.9,0,0,1-4.836-2.045c0-1.407,1.184-2.234,2.723-2.234a7.759,7.759,0,0,1,2.141.3v-1.652H781.16Zm6.023,3.38a7.223,7.223,0,0,0-1.435-.15,2.131,2.131,0,0,0-2.309,1.859,1.109,1.109,0,0,0,1.257,1.182,3.578,3.578,0,0,0,2.488-1.371Z" transform="translate(-561.92 -80.78)" fill="#1b4e91"/>
    <path id="Path_68" data-name="Path 68" d="M823.76,121.353l.075-.1h4.125l.452.91-.075.1h-1.7l.036,8.6-.093.1-1.053-.279.029-8.422h-1.332Z" transform="translate(-593.838 -80.78)" fill="#1b4e91"/>
    <path id="Path_69" data-name="Path 69" d="M838.21,121.353l.075-.1h10.889l.453.91-.075.1h-1.7l.036,8.6-.093.1-1.06-.279.036-8.422h-2.586a2.926,2.926,0,0,1,.939,2.069c0,1.259-1.034,2.283-2.586,3.165a9.051,9.051,0,0,0,2.9,2.431l-.5,1.267h-.083a10.273,10.273,0,0,1-3.147-3.4,3.746,3.746,0,0,1-1.218.243c-.259,0-.564-.215-.931-.732a1.236,1.236,0,0,1-.272-.657c0-.339.282-.6.921-.6a3.543,3.543,0,0,1,1.614.44,4.221,4.221,0,0,0,.853-.535c-1.482-.9-2.563-1.849-2.563-2.974a1.537,1.537,0,0,1,.171-.706h-1.614Zm3.126,2.141c0,.882.789,1.456,1.991,1.839a2.152,2.152,0,0,0,.776-1.67,1.446,1.446,0,0,0-1.363-1.453,1.291,1.291,0,0,0-1.4,1.285Z" transform="translate(-604.551 -80.78)" fill="#1b4e91"/>
    <path id="Path_70" data-name="Path 70" d="M870.131,109.35l.075-.1h1.707c-.15-2.167-1.014-3.238-2.288-3.238a1.277,1.277,0,0,0-1.381,1.277,2.63,2.63,0,0,0,.628,1.577l-.085.1-.993-.458a2.635,2.635,0,0,1-.714-1.663,1.8,1.8,0,0,1,2.017-1.784c1.81,0,3.548,1.727,3.879,4.187h1.352l.45.91-.075.1h-1.7l.036,8.6-.093.1-1.052-.279.028-8.422h-1.332Z" transform="translate(-625.955 -68.777)" fill="#1b4e91"/>
    <path id="Path_71" data-name="Path 71" d="M893.33,121.353l.075-.1h8.645l.45.91-.075.1h-1.7l.047,8.6-.093.1-1.06-.279.036-3.1a2.527,2.527,0,0,1-1.681.59,3.2,3.2,0,0,1-2.2-.985,3.329,3.329,0,0,1-.817-2.586c0-.76,0-1.577.029-2.327h-1.21Zm2.806.91c-.018.874-.028,1.738-.028,2.612,0,1.6.393,2.309,1.371,2.309a2.454,2.454,0,0,0,1.577-.61,1.632,1.632,0,0,0,.6-1.352v-2.958Z" transform="translate(-645.417 -80.78)" fill="#1b4e91"/>
    <path id="Path_72" data-name="Path 72" d="M902.535,160.835c1.153,1.6,2.27,2.609,3.455,2.609.657,0,1.567-.46,1.567-1.135a.608.608,0,0,0-.675-.639,1.942,1.942,0,0,0-1.277.574h-.075l-.639-1.024a2.358,2.358,0,0,1,1.521-.621,1.7,1.7,0,0,1,1.51.975,2.221,2.221,0,0,1,.339,1.174,1.724,1.724,0,0,1-1.81,1.671c-1.352,0-2.78-.9-4.3-3.145v-.047Z" transform="translate(-651.956 -109.954)" fill="#1b4e91"/>
    <path id="Path_73" data-name="Path 73" d="M925.31,121.353l.075-.1h6.739l.453.91-.075.1h-2.309a8.149,8.149,0,0,1,.14,1.577,3.377,3.377,0,0,1-2.046,3.23,12.965,12.965,0,0,0,3.659,2.684l-.647,1.2h-.122a18.016,18.016,0,0,1-3.848-3.8,3.32,3.32,0,0,1-.7-1.57.777.777,0,0,1,.171-.5,1.03,1.03,0,0,1,.892-.31c.411,0,.825.021,1.192.057a2.977,2.977,0,0,0,.318-1.427,5.487,5.487,0,0,0-.1-1.146h-3.362Z" transform="translate(-669.127 -80.78)" fill="#1b4e91"/>
  </g>
</svg>
