<svg xmlns="http://www.w3.org/2000/svg" width="139.539" height="76.403" viewBox="0 0 139.539 76.403">
  <g id="Group_23" data-name="Group 23" transform="translate(-4395 -3361)">
    <path id="Path_15826" data-name="Path 15826" d="M111.22,47.832c3.389,0,5.326-3.1,5.326-7.263,0-3.777-1.937-7.069-5.423-7.069s-5.423,3.1-5.423,7.263S107.927,47.832,111.22,47.832Z" transform="translate(4391.654 3359.456)" fill="none"/>
    <rect id="Rectangle_9281" data-name="Rectangle 9281" width="3.777" height="3.68" transform="translate(4464.721 3418.036)" fill="none"/>
    <path id="Path_15827" data-name="Path 15827" d="M86.073,58.38h.968c.1-.1,0-.291-.291-.775A21.271,21.271,0,0,0,85.4,55.862,3.116,3.116,0,0,0,83.653,54.7,1.435,1.435,0,0,0,82.3,55.862l-.1.678.1.581.291.678.291.484.194.194,3-.1Z" transform="translate(4392.398 3358.784)" fill="none"/>
    <path id="Path_15828" data-name="Path 15828" d="M72.735,27V18.572a5.667,5.667,0,0,1,.194-1.259,2.594,2.594,0,0,1,2.324-1.84c1.549,0,2.324,1.356,2.324,3.389V27h4.939V18.475a5.667,5.667,0,0,1,.194-1.259,2.383,2.383,0,0,1,2.324-1.743c1.646,0,2.421,1.356,2.421,3.68V27H92.3V18.475c0-4.745-2.324-6.875-5.423-6.875a6.987,6.987,0,0,0-3.1.775,8.067,8.067,0,0,0-2.13,1.937h-.1A4.574,4.574,0,0,0,77.093,11.6a5.734,5.734,0,0,0-4.939,2.518h-.1l-.1-2.13H67.7c.1,1.356.1,3.1.1,5.035V27Z" transform="translate(4392.857 3360.149)" fill="#8ec750"/>
    <path id="Path_15829" data-name="Path 15829" d="M98.591,27s.1,3.583-2.518,5.035A7.412,7.412,0,0,1,92.3,33.1l-.1.194c4.648.968,6.682.581,8.618-1.453,1.646-1.743,2.615-4.067,4.939-10.361l3.777-9.683h-5.423l-2.034,7.747a13.82,13.82,0,0,1-.775,2.13h-.1a18.836,18.836,0,0,0-.775-2.13L98.01,11.7H92.394l6,13.847a2.279,2.279,0,0,1,.194.775A.879.879,0,0,1,98.3,27a5.035,5.035,0,0,1-1.937,1.84A3.82,3.82,0,0,0,98.591,27Z" transform="translate(4392.082 3360.146)" fill="#418cca"/>
    <path id="Path_15830" data-name="Path 15830" d="M97.554,38.152H89.226v4.164h3.486v4.842a5.481,5.481,0,0,1-2.518.291c-4.164,0-7.069-2.615-7.069-6.972,0-4.648,3.2-6.875,7.359-6.875h1.259a7.413,7.413,0,0,0,3.777-1.065c2.518-1.453,2.518-5.035,2.518-5.035a4.581,4.581,0,0,1-2.13,1.937c-1.453.678-3.389.194-5.326.194C83.223,29.63,77.9,33.7,77.8,40.766A10.237,10.237,0,0,0,81,48.513c2.034,1.937,5.035,2.905,9.1,2.905a27.853,27.853,0,0,0,7.456-1.162Z" transform="translate(4392.538 3359.646)" fill="#28b898"/>
    <path id="Path_15831" data-name="Path 15831" d="M100.3,40.736c0,6.1,3.873,10.846,10.458,10.846S121.7,47.321,121.7,40.349c0-5.907-3.777-10.749-10.555-10.749C104.561,29.6,100.3,34.345,100.3,40.736Zm10.749-7.359c3.486,0,5.423,3.292,5.423,7.069,0,4.164-1.937,7.263-5.326,7.263s-5.423-2.905-5.423-7.069,1.937-7.263,5.326-7.263Z" transform="translate(4391.825 3359.579)" fill="#c1569a"/>
    <path id="Path_15832" data-name="Path 15832" d="M134.676,51.207,142.229,30H136.9l-2.808,9.1q-1.162,3.631-2.034,7.553h-.1c-.581-2.615-1.259-5.035-2.034-7.553L127.22,30.1H121.7L128.866,51.3h5.81Z" transform="translate(4391.148 3359.566)" fill="#ec7026"/>
    <path id="Path_15833" data-name="Path 15833" d="M75.944,58.5H68.1v.872h2.615v3.68H69.94l-.194.1h-.1l-.194.194-.1.291a1.376,1.376,0,0,0,.194.581,2.611,2.611,0,0,0,.678.775l.678.775a.74.74,0,0,0,.484.194h.291l.194-.1V64.02h3.777v5.229h1.065V59.372h.387V58.5Zm-.29,4.551H71.877v-3.68h3.777Z" transform="translate(4392.845 3358.664)" fill="#393636"/>
    <path id="Path_15834" data-name="Path 15834" d="M71.778,53l-.678.775,4.261,4.551h.678Z" transform="translate(4392.75 3358.838)" fill="#393636"/>
    <path id="Path_15835" data-name="Path 15835" d="M82.823,58.5H77.4v.872h5.713v2.615l-.1.581c-.1.194-.194.291-.291.484a1.093,1.093,0,0,1-1.065.291,1.048,1.048,0,0,1-1.162-.484l-.872-1.453-.872.678.387.775.194.387.872,1.356.678.968A18.012,18.012,0,0,0,82.92,68.28a3.338,3.338,0,0,0,1.162,1.162l.775-.678-.484-.484-.29-.581-.775-.775-.581-.775-1.453-2.13.387.1h.387a1.439,1.439,0,0,0,.872-.194l.387-.194c.1-.1.194-.1.291-.194a1.742,1.742,0,0,0,.678-1.453V59.372H85.34V58.5Z" transform="translate(4392.55 3358.664)" fill="#393636"/>
    <path id="Path_15836" data-name="Path 15836" d="M87.4,57l-.581-.968a4.475,4.475,0,0,0-1.646-1.646,2.2,2.2,0,0,0-1.549-.581,3.44,3.44,0,0,0-.968.194,2.539,2.539,0,0,0-1.259,1.549.74.74,0,0,0-.194.484v.581l.1.484.194.484.194.387.194.291h1.259l-.194-.194-.291-.484-.291-.678-.1-.581.1-.678a1.45,1.45,0,0,1,1.356-1.162,3.116,3.116,0,0,1,1.743,1.162,21.272,21.272,0,0,1,1.356,1.743c.291.387.387.678.291.775H85.558v.872H87.4V69h1.065v-9.78h1.743v-.872H88.269Z" transform="translate(4392.43 3358.813)" fill="#393636"/>
    <path id="Path_15837" data-name="Path 15837" d="M97.6,58.5v.872h4.939v3.583l-.194.291c-.1.1-.194.194-.291.194l-.484.1a1.08,1.08,0,0,1-1.259-.775L99.73,61.6l-.872.581.387.678.387.678.581.968,2.518,3.68a2.813,2.813,0,0,0,1.065,1.065l.872-.678-.484-.387-.968-1.162-.581-.775-1.259-1.937c.1,0,.194.1.291.1h.872a4.719,4.719,0,0,0,.678-.291.992.992,0,0,0,.484-.581c.1-.194.1-.484.194-.678V59.275h3.873v3.583H103.8l.775.872h3v5.423h1.065v-9.78h.775V58.5Z" transform="translate(4391.911 3358.664)" fill="#393636"/>
    <path id="Path_15838" data-name="Path 15838" d="M110.672,58.5H109.8v.872h5.713v2.615l-.1.581c-.1.194-.194.291-.291.484a1.093,1.093,0,0,1-1.065.291,1.048,1.048,0,0,1-1.162-.484l-.872-1.453-.872.678.484.775.194.387.872,1.356.678.968a18.012,18.012,0,0,0,2.034,2.711,3.338,3.338,0,0,0,1.162,1.162l.775-.678-.484-.484-.291-.387-.775-.775-.581-.775-1.453-2.13.387.1h.387a1.439,1.439,0,0,0,.872-.194l.387-.194c.1-.1.194-.1.291-.194a1.742,1.742,0,0,0,.678-1.453V59.565h1.065v-.872Z" transform="translate(4391.524 3358.664)" fill="#393636"/>
    <path id="Path_15839" data-name="Path 15839" d="M118.481,58.5H117.9v.872h6.294V64.6a1.713,1.713,0,0,1-.678,1.065,2.039,2.039,0,0,1-1.259.484,2.279,2.279,0,0,1-.775-.194,1.821,1.821,0,0,1-1.065-1.84v-.291l.1-.484a1.871,1.871,0,0,1,1.743-1.356h.484l.194.1.1.1.194.1V61.4l-.581-.194-.581-.1a3.481,3.481,0,0,0-1.065.194,2.849,2.849,0,0,0-1.549,1.453,2.469,2.469,0,0,0,0,2.324,2.741,2.741,0,0,0,2.808,1.743,2.7,2.7,0,0,0,1.937-.775v3.1h1.065V64.791a2.63,2.63,0,0,1,.581-1.646,2.262,2.262,0,0,1,1.549-.968,1.648,1.648,0,0,1,.678.1,2.026,2.026,0,0,1,.581.387,1.946,1.946,0,0,1,.387,1.259,3.6,3.6,0,0,1-.968,2.13l-.678.775c-.1.1-.194.194-.291.194l.872.678.678-.678.387-.581A4.194,4.194,0,0,0,130.1,63.92a2.7,2.7,0,0,0-.775-1.937,2.378,2.378,0,0,0-2.034-.775h-.581c-.194,0-.291.1-.484.194l-.484.291-.194.194-.387.387v-3h5.423V58.4Z" transform="translate(4391.268 3358.667)" fill="#393636"/>
    <path id="Path_15840" data-name="Path 15840" d="M131.681,58.5H131.1v.872h2.034v9.877H134.2V59.372h.872V58.5Z" transform="translate(4390.851 3358.664)" fill="#393636"/>
    <path id="Path_15841" data-name="Path 15841" d="M139.851,64.116a1.439,1.439,0,0,0,.872-.194l.387-.194c.1-.1.194-.1.387-.194a1.742,1.742,0,0,0,.678-1.453V59.372h1.646V58.5H135.3v.872h5.713v2.615l-.1.581c-.1.194-.194.291-.29.484a1.093,1.093,0,0,1-1.065.291,1.048,1.048,0,0,1-1.162-.484l-.872-1.453-.872.678.387.775.194.387.872,1.356.678.968a18.011,18.011,0,0,0,2.034,2.711,3.338,3.338,0,0,0,1.162,1.162l.775-.678-.484-.484-.29-.387-.775-.775-.581-.775-1.453-2.13.387.1Z" transform="translate(4390.717 3358.664)" fill="#393636"/>
    <rect id="Rectangle_9282" data-name="Rectangle 9282" width="0.872" height="76.403" transform="translate(4447.872 3361)" fill="#224d93"/>
    <path id="Path_15842" data-name="Path 15842" d="M29.278,58.772l-.1-.291-.1-.194h0l-.1-.194V57.9h0l-.1.1-.1.194v.484l-.1.194-.1.1v.1h0v.1h.1l.1.1v-.1h0v-.1h0v-.1h.194l.1.1h0v.1h.1v.194l.1.1h0l.1.1.1-.194v-.291h0l-.1-.194Z" transform="translate(4394.095 3358.683)" fill="#393636"/>
    <path id="Path_15843" data-name="Path 15843" d="M29.1,56.987a.726.726,0,0,0-.1.484h.1a1.2,1.2,0,0,0,.194-.291c.1-.194.1-.581,0-.581A.734.734,0,0,0,29.1,56.987Z" transform="translate(4394.082 3358.724)" fill="#393636"/>
    <path id="Path_15844" data-name="Path 15844" d="M29.275,54.7h-.194a2.943,2.943,0,0,0-.484.678c0,.1-.1.194-.1.291h.1a.1.1,0,0,0,.1-.1c.194-.1.291-.387.387-.581C29.081,54.894,29.178,54.8,29.275,54.7Z" transform="translate(4394.098 3358.784)" fill="#393636"/>
    <path id="Path_15845" data-name="Path 15845" d="M28.791,53.291s-.1-.1-.194.1-.1.1,0,.194h.1a.533.533,0,0,0,.484-.291v-.1h0c0-.194-.194-.194-.387-.194h-.1a.5.5,0,0,0-.194.387c0,.1.1,0,.1,0,0-.1.1-.1.1-.194C28.791,52.9,28.984,53.194,28.791,53.291Z" transform="translate(4394.098 3358.838)" fill="#393636"/>
    <path id="Path_15846" data-name="Path 15846" d="M29.09,56.475c0-.1.1-.1.1-.194a1.376,1.376,0,0,1,.194-.581c-.1.1-.194.291-.291.387a1.337,1.337,0,0,0-.291.387c0,.1-.1.194.1.194S28.993,56.572,29.09,56.475Z" transform="translate(4394.089 3358.753)" fill="#393636"/>
    <path id="Path_15847" data-name="Path 15847" d="M28.874,52.695c0-.194-.194-.194-.387-.1h-.1c-.1.1-.387.194-.291.387.1,0,.194-.1.387-.1Z" transform="translate(4394.111 3358.853)" fill="#393636"/>
    <path id="Path_15848" data-name="Path 15848" d="M25.306,53.108l-.1-.291-.194-.387-.387-.484-.194-.194-.291-.291-.387-.387-.1-.1-.194-.1h-.1l-.387-.194-.194-.1-.387-.1H22.11l-.291-.1h-.194l-.291-.1h-.678l-.581.1h-.194l-.291.1h-.1l-.194.1-.387.1h0l-.194.1-.291.194-.484.291h0l-.387.387-.387.484-.291.484h0l-.291.678-.194.581-.1.678v.678l.1.678.194.678.291.678.1.194.291.484.387.484.291.291h0l.387.291.291.194.194.1h.1l.387.1.194.1h.678l.678.194h.968l.291-.1.291-.1.387-.1h.1l.484-.291h0l.291-.194a2.567,2.567,0,0,0,.581-.484l.1-.1.194-.194.484-.872v-.1l.194-.484h0l.1-.387.1-.387V54.464l-.194-.678-.194-.484Zm-.387-.291h0v.194h0v.1l.1.1h.1v.1h-.1l-.775.194-.678.194-.291.1h-.1l-.581.1H22.3l-.291.1h0l.291-.194.387-.194h0l.387-.194.194-.1h.194l.194-.1.194-.1.387-.194.194-.1.194-.1.387-.194Zm-.678-.968h0l.1.291v.1h0l.1.1h.291l-.291.1h-.1l-.194.1-.291.1-.194.1h-.1l-.194.194h-.1l-.291.194-.194.194h0l-.1.1h-.1l-.1.1-.1.1-.1.1H21.82l.194.291.194-.1.291-.194.387-.291.581-.484.1-.1.194-.194.1-.1Zm-.872-.775h.1v.291h.581v.1l-.387.194h0l-.291.194-.1.1-.194.194-.291.291v.484l-.194.194-.1.1L22.3,53.4l-.1.1-.194.194-.1.1-.194.194h-.1v-.1l.1-.291.1-.1.1-.194.1-.194.1-.1.194-.291v-.1l.194-.387.1-.1.1-.194.194-.387.484-.484Zm-1.162-.387h0l.1-.1h0v.1H22.5l-.387.484-.291.291v.194l-.291.484-.291.484-.194.387-.194.484h0l.291-1.065.194-.775.1-.387Zm-1.065,2.227V50.4h.387l-.1.291-.194.775-.194.484L20.754,53.3l-.1.291h-.1v-.387Zm.1,1.065c.194,0,.291.1.387.291.1.1.194.194.194.291a1.053,1.053,0,0,1,.1.484.726.726,0,0,1-.1.484.356.356,0,0,1-.1.291c-.1.1-.291.194-.387.291h-.484a1.2,1.2,0,0,1-.775-.387.5.5,0,0,1-.194-.387v-.581a.734.734,0,0,1,.194-.387,1.2,1.2,0,0,1,.775-.387h.1c.1-.1.194,0,.291,0Zm-1.065-3.486h.387l.1.1.291,1.743-.1,1.453-.678-3.292Zm-1.162.291h.1V50.59H19.3l.581.387v.1l.1.291.1.387v.387l.1.387.1.387.1.387.1.387-.1.194-.387-.678-.194-.387-.291-.581h0v-.291l-.291-.581-.194-.581Zm-.968.678h.581v-.291h.1l.1.387h0l.194.387.194.387h0l.194.387v.1l.1.291h0l.194.387.1.291.1.1.1.291.1.194h-.1l-.1-.581-.1-.1-.194-.291h0l-.1-.1-.1-.194-.1-.194-.1-.194-.291-.194-.1-.1-.1-.194-.1-.194-.291-.291-.291-.291ZM16.784,53.5h.1v-.678h.1v-.291h.291V52.14h.1l.581-.194.1.194.291.291.291.291.1.1.194.194h0l.291.291.1.1.194.194.1.1.1.1.1.1.291.291h0l-.291-.194-.291-.1-.1-.1-.194-.1-.194-.194h-.194l-.194-.1h0l-.194-.194-.194-.1-.29-.194h0l-.194-.1-.194-.1h-.194l.291.291.291.291h0l.291.194.291.194.194.1.1.1.1.1.291.194.1.1.194.194h0l.1.1.1.1H19.3l-.291-.1h-.1l-.194-.1h-.1l-.387-.1-.291-.387-.1-.1-.387-.1-.387-.1-.194-.1h-.1Zm-.291,1.356v-.194h.1V53.98l.194.1.194-.194.387.194.387.1.194.1.194.1.387.1.194.1.194.1h0l.387.1h0l.194.1h.1v0h-3.1Zm.1,1.259h0v-.1h0V55.82h0v-.194h0v-.1h0v-.1h3.1v.194H19.3l-.387.1h0l-.194.1h-.678l-.194.1-.387.1-.484.1h-.1l-.291.1Zm.291.968v-.387l-.1-.1c-.1-.1-.194-.194-.194-.291l.194-.1,1.065-.291.775-.194.194-.1.387-.1h.581v.291l-.194.1h-.1l-.291.1-.291.194-.194.1c-.1.1-.291.194-.387.291l-.387.194-.968.484Zm.968,1.065-.1.1-.194-.484h-.1v-.194l.872-.484.775-.387.194-.1.387-.194.291-.1.1-.1-.194-.387h0v.1h0l-.291.387-.1.1-.291.291-.291.194-.1.1-.1.1-.1.1h0l-.1.194-.1.194-.291.194-.194.194-.1.1Zm.872.872h0a4.1,4.1,0,0,0-.678-.484h0l.775-.775.194-.291.387-.387.291-.291.1-.194.291-.387.194-.194h0l.194.194-.194.194-.194.291-.291.484-.1.194-.291.484-.387.872q-.291.145-.291.291Zm1.065.484-.1-.1-.1-.1-.291-.1h-.387v-.1l.387-.581.291-.484.1-.194.291-.484.194-.291c.291-.387.484-.678.484-.581a7.257,7.257,0,0,1-.484,1.549c-.1.194-.1.484-.194.678a1.824,1.824,0,0,0-.194.775Zm3-.194H22.4c-.1,0-.1-.1-.194-.194v-.387l-.291-.872c-.1-.291-.1-.387-.194-.484l-.1-.194.1.291.194.872.291,1.259h-.484l-.484.1h0a21.886,21.886,0,0,0-.1-2.518c0-.194-.1,2.324-.1,2.518h0c-.291,0-.484-.1-.775-.1h-.1v-.1l.1-.387a9.833,9.833,0,0,1,.581-2.421.756.756,0,0,1,.387-.387h.1c.1.1.291.194.387.387l.194.291.291.387.291.387.387.484.291.581a.975.975,0,0,0,.1.291A1.636,1.636,0,0,1,22.788,59.306Zm.872-.484h-.387a10.563,10.563,0,0,1-.581-1.065l-.387-.581h0l-.1-.387-.291-.387-.1-.194.1-.194h0l.291.291.291.291.387.387.581.581.1.1.194.1.581.581c-.194.1-.387.291-.678.484Zm.872-.775-.1-.1-.678-.581-.291-.194-.1-.1-.581-.484L22.4,56.3l-.291-.291c-.1-.1-.1-.194,0-.194h.1l.194.1.387.194a2.026,2.026,0,0,1,.581.387h.1l.291.194.678.484.484.291v.1Zm.775-1.646h0v.1h-.291v.291h0v.194h0v.194l-.581-.387-.678-.387-.291-.1h-.1l-.581-.387-.387-.194-.194-.1v-.1H22.4l.387.1.581.1h.1l.1.1.194.1h.291l.291.1h.291l.291.1h.291l.1.1Zm.194-1.162v.1h0v.1h-.194v.194h0v.194h-.387l-.194-.1-.194.1h-.1l-.194-.1h-.775l-.678-.291-.387-.1-.194-.1v-.194H25.5v.194Zm-.1-1.259h0v.194h-.1v.1h0v.194h-3v-.1H22.5l.387-.1h.1l.291-.1h.775l.291-.1h0l.291-.1.291-.1.194-.1h.1Z" transform="translate(4394.484 3358.924)" fill="#393636"/>
    <path id="Path_15849" data-name="Path 15849" d="M21.9,63.2a.1.1,0,0,0,.1.1Z" transform="translate(4394.307 3358.515)" fill="#fff"/>
    <path id="Path_15850" data-name="Path 15850" d="M20.987,54.7a.643.643,0,0,0-.387.484c0,.194.194.291.387.387h.1c.1,0,.194-.1.291-.194a.617.617,0,0,0,0-.581c-.1,0-.194-.1-.387-.1Z" transform="translate(4394.348 3358.784)" fill="#fff"/>
    <path id="Path_15851" data-name="Path 15851" d="M17,63.2Z" transform="translate(4394.462 3358.515)" fill="#fff"/>
    <path id="Path_15852" data-name="Path 15852" d="M13.087,42.91l.194-.484v-.1l.194-.291.1-.484.1-.484.194-.484.1-.387-.1-3.1h0l-.1.872-.1.775-.1.872-.194.775-.1.387-.1.484-.1.775-.194.872-.194.872.194-.484Z" transform="translate(4394.598 3359.342)" fill="#393636"/>
    <path id="Path_15853" data-name="Path 15853" d="M23.968,10.7h0a.356.356,0,0,0-.291.1h-.1a.967.967,0,0,0-.387.484c-.1.1-.1.291-.194.387v.1h.387l.291-.581v-.1h.291c.1,0,.194.1.291.194l.387.291.1.1a.356.356,0,0,0,.291-.1,2.112,2.112,0,0,0-.387-.484A.731.731,0,0,0,23.968,10.7Z" transform="translate(4394.272 3360.177)" fill="#393636"/>
    <path id="Path_15854" data-name="Path 15854" d="M16.892,8.792h0c.1,0,.1.194.1.291a.1.1,0,0,0-.1.1l-.1.1a.1.1,0,0,1-.1.1h.194c.194,0,.484,0,.484-.194V8.792a.208.208,0,0,0-.194-.194c-.1,0-.194-.1-.291,0h0c-.194,0-.291,0-.194.194C16.6,8.7,16.892,8.7,16.892,8.792Z" transform="translate(4394.473 3360.245)" fill="#393636"/>
    <path id="Path_15855" data-name="Path 15855" d="M36.6,16.8h0a.1.1,0,0,0-.1.1l.1.1a.659.659,0,0,1,.387.775c-.194.291,0,.387.291.387.1,0,.194-.1.291-.194C37.856,17.478,36.887,16.8,36.6,16.8Z" transform="translate(4393.845 3359.984)" fill="#393636"/>
    <path id="Path_15856" data-name="Path 15856" d="M36.591,16.252c.291-.1.387-.678.678-.678s.291.387.291.581l-.581.387-.1.1.775.387c.194-.194-.194-.291,0-.581,0-.194.291-.194,0-.484.1-.291.387-.581.1-.968-.1-.1-.291-.291-.484-.194h0a2.459,2.459,0,0,0-.775.968,1.376,1.376,0,0,0-.194.581c.1.1.1,0,.291-.1Z" transform="translate(4393.851 3360.048)" fill="#393636"/>
    <path id="Path_15857" data-name="Path 15857" d="M26.234,62.167h3.68l.291-.1c.1,0,.194-.1.291-.194.194-.1.387-.291.581-.387a1.517,1.517,0,0,0,.291-1.549l.387-.1.484-.1c.194-.1.484-.194.678-.291l.387-.194c.194-.1.291-.194.484-.291h.1a4.211,4.211,0,0,0,.581-.678c.1-.1.1-.291.194-.484a2.3,2.3,0,0,0,.872-1.453l.291-1.453a.686.686,0,0,0,.678-.775c0-.678-.194-.872-.581-.872a1.746,1.746,0,0,0-.194-.968,2.456,2.456,0,0,0-.194-1.162,1.167,1.167,0,0,0-.484-.484c-.194-.484-.291-.678-.387-.678a1.376,1.376,0,0,0-.194-.581l-.1-.1c-.194,0-.484-.291-.387-.484a1.352,1.352,0,0,0,.291-.872.69.69,0,0,0-.291-.581h-.1c-.194-.1-.291-.194-.484-.291a.74.74,0,0,1-.194-.484.734.734,0,0,0-.194-.387.98.98,0,0,0-.678-.387H31.85c-.1,0-.291.1-.387.1-.194-.194-.291-.194-.387-.291l-.291-.291a1.868,1.868,0,0,1-.291-.968c-.1-.387-.194-.872-.291-1.259a1.845,1.845,0,0,0-.484-.968A11.708,11.708,0,0,1,30.2,40.38c.1-.291.1-.581.194-.775a1.888,1.888,0,0,0,.1-.775c.1-1.162,0-2.034.1-3,.291-.291.484-.484.387-.968l.1-.1c.194-.194.291-.387.194-.581a.992.992,0,0,0,.484-.581,1.376,1.376,0,0,0,.194-.581l.291-.291a.753.753,0,0,0,.194-.775c.194-.1.291-.194.484-.291a2.026,2.026,0,0,0,.387-.581V30.6h0a2.108,2.108,0,0,0,.484-.775c0-.1,0-.1.1-.194a1.65,1.65,0,0,0,0-.968c.484-.872.775-1.646.194-2.034a2.343,2.343,0,0,0-.1-1.646,1.281,1.281,0,0,0-.194-1.162v-.194c-.1-.1-.194-.194-.291-.194a1.89,1.89,0,0,0-.1-.678l-.1-.291c-.1-.194-.291-.291-.387-.484l-.1-.1a.582.582,0,0,1,.1-.387c.1-.1.194-.1.387,0l.1.1a1.376,1.376,0,0,0,.194.581c.1.1.1.194.194.291h.1a.837.837,0,0,0,.581.291.718.718,0,0,0,.775-.678c.194-.1.194-.194.291-.291,0-.1.1-.1.194-.194.678-.194.678-.968.968-1.453.387,0,.484-.387.678-.484q.145,0,.291-.291c.291,0,.387-.291.581-.484a1.776,1.776,0,0,0,.678-.968c-.1-1.162-1.259-1.743-1.356-2.615,0-2.227-.968-1.937-1.937-2.13a1.2,1.2,0,0,1-.775-.387,2.982,2.982,0,0,0-.291-1.259,3.287,3.287,0,0,0-.581-.581h-.1a2.112,2.112,0,0,0-.484-.387l-.387-.194c-.194-.1-.484-.1-.678-.194a2.794,2.794,0,0,0-1.743.291l-.291.194a2.5,2.5,0,0,0-.872.872h-.775c-.1,0-.291.1-.387.1-.194.1-.387.1-.484.291l-.1.1-.1-.1a2.753,2.753,0,0,0-.387-1.162l-.291-.291-.194-.194V10.07a1.619,1.619,0,0,0-.1-1.162V8.715a.533.533,0,0,0-.291-.484c-.1-.1-.1-.1-.194-.1a1.372,1.372,0,0,0-.1-1.065,1.4,1.4,0,0,0-.968-.678H24.007a1.376,1.376,0,0,0-.581-.194h-.387c-.1,0-.194.1-.291.1s-.194-.1-.291-.1-.194-.1-.387-.1H21.78a.356.356,0,0,0-.291.1l-.194.1h0a.823.823,0,0,0-.775,0l-.194.1a.586.586,0,0,0-.581-.291h-.194c-.1,0-.194.1-.291.1l-.1.1h0a.338.338,0,0,1-.194-.1h-.387c-.1,0-.194,0-.194.1A1.337,1.337,0,0,0,18,6.584c-.1-.1-.194-.1-.387-.1a1.868,1.868,0,0,0-.968.291H15.582l-.194.1a.831.831,0,0,0-.581.678,1.888,1.888,0,0,0-.1.775l.1.194A2.456,2.456,0,0,1,15,9.683l-.1.194-.194.291h0l-.291.581a.582.582,0,0,0-.1.387l-.1.1c-.1-.1-.194-.1-.194-.194-.194-.1-.484-.194-.678-.291s-.484-.1-.678-.194a2.132,2.132,0,0,0-.775-.1.5.5,0,0,0-.194-.387,2.108,2.108,0,0,0-.775-.484,2.681,2.681,0,0,0-.872-.1c-.484.291-.581.387-.678.387a1.3,1.3,0,0,0-.678.581H8.029a.654.654,0,0,0-.581.387c0,.1-.1.1-.1.194A1.683,1.683,0,0,0,6.77,12.1a1.526,1.526,0,0,1-.678.678c-.1.1-.291.1-.484.194l-.581.291c-.484.291-.775.678-.872,1.84-.291.581-1.259,1.162-1.356,2.13,0,.775.291.968.678,1.065.1.194.291.775.387.775.291.484.678,0,.775.581a4.047,4.047,0,0,0,.387.968l.1.1c.1.1.1.291.291.387.1,0,.194,0,.194.1A.745.745,0,0,1,5.8,21.5c0,.194.1.291.291.484a.936.936,0,0,0,1.356,0v-.1h0l.291-.581c.194-.484.387-.291.291.194-.194.291.1.291-.1.581a2.162,2.162,0,0,0-.484.968c0,.1-.1.291-.1.387,0,.387-.775.581-.484,1.743a1.48,1.48,0,0,0-.194,1.937,1.878,1.878,0,0,0,.291,1.743.929.929,0,0,0,.291.968,1.562,1.562,0,0,0,.291.872,4.212,4.212,0,0,0,.581.678l.1.1h0c-.1.775.387,1.259.872,1.162-.1.872.1,1.259.291,1.356.1.1.291.1.387.194h0v.1a3.668,3.668,0,0,0,0,1.453c.194,1.646.581,3.873.581,4.648-.291.484-.1,2.808-.581,4.067a.967.967,0,0,1-.387.484c-.1,0-.1.1-.194.1a1.98,1.98,0,0,0-1.065,0h-.1A1.065,1.065,0,0,0,7.448,46v.194c-.1.194-.775.291-.872,1.259a1.915,1.915,0,0,0,.194,1.065A1.506,1.506,0,0,0,6,49.095a.873.873,0,0,0-.1.484H5.511a1.179,1.179,0,0,0-.484,1.162c-.1.1-.1.194-.194.194a2.788,2.788,0,0,0-.1,1.259,1.65,1.65,0,0,0,0,.968c-.291.1-.581.291-.581.968,0,.484.1.775.484.678.1.775.1,1.549.194,2.227A2.9,2.9,0,0,0,5.221,58c.1.194.1.291.194.484a1.167,1.167,0,0,0,.484.484,2.379,2.379,0,0,0,1.453.484,1.228,1.228,0,0,1,.581.1h.1l.775.1a1.53,1.53,0,0,0,.581,2.034.734.734,0,0,0,.387.194,2.828,2.828,0,0,0,.872.194h.387l15.2.1ZM5.027,54.614h0c-.291-.194-.291-.968-.1-1.065h0C5.221,53.452,5.124,54.421,5.027,54.614ZM6,55.2a4.523,4.523,0,0,1-.484.968l-.1.194-.1-5.132h.1l.1.1c.194.291.291.678.484.968,3.1,0,5.52-1.549,5.52,1.453S9,59.359,6,55.2ZM26.04,52.484c0-.1-.1-.194-.1-.291a9.378,9.378,0,0,1-.291-1.065c-.291-.291-.678-.678-.678-1.065v-.291h-.291c-.1-.1-.1-.194,0-.194h2.034c-.1,0,.1.387-.194.194h0a.1.1,0,0,0-.1.1l.1.1h.1v.581h-.1c-.1,0,0,.1,0,.194s.1,0,.1,0,.1-.194.194.1c-.1.1-.194.291-.291.387a1.061,1.061,0,0,0,0,.775.356.356,0,0,0-.1.291c-.1,0-.1.1-.194.194C26.137,52.387,26.137,52.581,26.04,52.484Zm-1.356-5.52c-.1-.1-.387-.194-.484,0-.484.387.291.678,0,.968h-.194c-.1,0-.1-.1-.1-.291,0-.484-.194-.581-.484-.872v-.1c-.1,0-.1.1,0,.194a.1.1,0,0,0,.1.1,1.648,1.648,0,0,1-.1.678c0,.1-.1.1-.1.194h-.1c.1-.387.194-.678,0-.872l-.1-.1h-.1c-.194,0-.484.1-.291.484.1.1.1.291.194.484a.3.3,0,0,1-.387,0,.356.356,0,0,0,.1-.291v-.387c-.1-.291.194-.581.291-.872-.1-.194-.1-.1-.291-.1s0-.291,0-.387c.194-.291.194,0,.387.1l.1.1h.1v-.387a.3.3,0,0,0-.1-.194.8.8,0,0,1-.1-.678c.291-.775-.194-1.453.1-2.13v-.194a.356.356,0,0,1,.1-.291l.291-.581.1-.194c-.1-.581.1-1.259-.1-1.453h0c-.1.291-.1.678-.194.968l-.1.291c-.1.484-.194.872-.291,1.259l-.581,2.227v.1a2.827,2.827,0,0,1-.194-.872,6.393,6.393,0,0,1,.1-1.356c0-.194.1-.291.1-.484a21.958,21.958,0,0,0,.581-2.421,1.228,1.228,0,0,1,.1-.581V37.959a10.123,10.123,0,0,0,0-2.421,1.228,1.228,0,0,0-.1-.581c-.1-.194,0-.1,0-.194-.1-.484-.1-.581,0-.581h.1l.291-.1h0a.879.879,0,0,0,.678-.291l.678-.678h0l.1.1c.1.1.1.194.194.291a2.68,2.68,0,0,1,.291,1.259v1.065a3.886,3.886,0,0,1-.291,1.453c-.1.194-.1.387-.194.581a.356.356,0,0,1-.1.291L24.1,40.476c.194.872.387,1.84.581,2.711a3.692,3.692,0,0,1,.1,1.453.975.975,0,0,1-.1.291.1.1,0,0,1-.1-.1.586.586,0,0,0,.1.775c.1.1.1.1.194.1h.194c.678.194.387.872.291,1.259s.1.291.194.1c.1-.1.194-.194.291-.194h0c.1,0,.1.1.194.1a.338.338,0,0,1,.1.194.873.873,0,0,1,.1.484.424.424,0,0,1-.1.291.468.468,0,0,1,0-.387c0-.194,0-.291-.291-.387h0c-.291.1-.291.291-.194.581s-.1.291-.194,0,0-.291-.1-.387l-.291.484c0-.291.194-.581,0-.968a.356.356,0,0,1-.1-.291c-.1-.194-.1-.387-.194-.581-.1-.291-.291-.581-.775-.387h0a6.393,6.393,0,0,0-.1-1.356,16.866,16.866,0,0,1-.484-2.13h-.1V42.7a1.228,1.228,0,0,0,.1.581,5.116,5.116,0,0,1,0,2.421c0,.387,0,.968.291.968.1-.291.291-.484.387-.775h.1c.387-.194.484.291.387.484-.1.1-.291.194-.387.291s-.1.194,0,.194h0a.6.6,0,0,1,.678-.1c.1,0,.1.1.1.194h0c.1.1,0,.484,0,.775v.291c-.1.1-.194.1-.194-.194s.1-.581-.1-.871ZM21.3,46.19c0,.194.1.291.1.484l.1.1a1.146,1.146,0,0,1,.1.968h-2.13a1.1,1.1,0,0,0-.291-.775.819.819,0,0,1,0-.678h0v-.194a.726.726,0,0,0-.1-.484,1.235,1.235,0,0,1,0-1.162c.1-.581-.194-1.065-.1-1.937.1-.194.1-.484.194-.678a1.436,1.436,0,0,0,.1-.678,14.356,14.356,0,0,0,.194-4.067,2.384,2.384,0,0,1-.1-1.162,1.824,1.824,0,0,1,.194-.775l.194-.291.1-.1c.291-.1.484-.775.581-1.259h0c.484.581,0,.581,0,.968v.1a.827.827,0,0,0,0,.678c0,.1.1.194.291.194l.1.194A1.456,1.456,0,0,1,21.2,36.7v3c.1.387.1.775.194,1.065l.291,1.162a4.194,4.194,0,0,0,.1.484c0,.484-.1.968-.1,1.549a1.648,1.648,0,0,1-.1.678,1.376,1.376,0,0,0-.194.581,1.636,1.636,0,0,0-.194.484c-.1.1,0,.387.1.484Zm-3.777.581a.338.338,0,0,0-.1-.194c-.1-.291,0-.484-.1-.775h-.194c0,.484-.678.678-.484.872l.291.1a.891.891,0,0,1,.1.968c-.1.1-.194.1-.194,0a.432.432,0,0,0,0-.484c0-.194-.291-.291-.484-.194a.208.208,0,0,0-.194.194c-.1.291.1.387.1.581-.194.1-.291.1-.291-.291-.1-.581.194-.775.1-.968.194-.194.1-.678.291-1.065h0a.873.873,0,0,1,.484-.1c.194.194.291.194.387.1a3.441,3.441,0,0,1,.194-.968h.1c.1.1.1.291.291.484s0,.387-.1.581-.1.291.1.291.194-.291.387-.1a6.672,6.672,0,0,0-.291.775c.1.1.194-.194.291-.194h0c.1,0,.194,0,.194.1h0c.1.1.1.291,0,.291H18.2c-.194,0-.291.1-.484.387a2.313,2.313,0,0,1-.194.872h0a.1.1,0,0,1-.1-.1.732.732,0,0,0,.1-.387A1.069,1.069,0,0,0,17.519,46.771Zm.968-5.907c0,.1,0,.1-.1.194a9.959,9.959,0,0,1-.1-1.646v-.291a26.544,26.544,0,0,0-.484-2.711l-.291,1.453v1.453c.1,1.259.775,2.13.581,2.808-.1.1-.1-.387-.291-.387.1.678.194,1.259.291,1.937,0,.194,0,.581-.194.678l-.387-1.162h0c-.1.194-.194.387-.1.484a2.827,2.827,0,0,1-.194.872c-.194-.484-.194-1.453-.387-1.453a.617.617,0,0,0,0,.581,2.329,2.329,0,0,1-.387,1.549.1.1,0,0,1-.1.1c-.387.484-.291.968-.484,1.356.1.387-.194.484-.291.775v.291H15.1l.1-.775c-.1-.194-.291-.291-.387-.194-.1,0-.1.1-.194.1a.1.1,0,0,1-.1.1h0v.291c.1.1.1.291.194.387h-.484a1.386,1.386,0,0,1,.291-1.065h0c.1,0,.1-.1.194-.1H14.9c.291,0,.291.581.387.678h.1L15.582,46h-.194c-.1,0-.194.1-.387,0s0-.484,0-.581c.1-.1.194-.194.291-.194h.194c.1,0,.194,0,.291-.194a2.54,2.54,0,0,0,.484-1.84c-.194-.1-.194,1.259-.775,1.646h-.194c-.1,0-.291.1-.291,0,.1-.291.194-.484.291-.775l.1-.1c0,.1.1.194.1.291,0,0,.1.1.1,0,0-1.646,0-3.292.1-4.939-.1-.291-.1-.678-.194-.968s-.1-.775-.194-1.065a15.835,15.835,0,0,1-.194-2.13,10.67,10.67,0,0,1,.194-1.743h1.356c.387.581.678.484.872.968h0a1.868,1.868,0,0,1,.291.968c.291-.194,0-1.065.387-1.259h0l.194-.1h0c.1-.1.194.194.291.291s.194.1.291.194h.1c0,.194-.1.291-.1.484-.194,1.259,0,2.905-.291,4.164v.1A7.68,7.68,0,0,1,18.487,40.864ZM15.1,49.869v.291c0,.1-.194.1-.194.1h0c-.1.1-.194.1-.291.194h0v-.1h0a.1.1,0,0,0-.1-.1c-.1.1-.1,0-.1.194.1.1.1.1.1.194l-.291.291a.3.3,0,0,0-.1.194v-.1h-.1c-.1,0-.194,0-.194.1h-.1s-.194,0-.194.1,0,.194.1.194l.1-.1h.1c.1,0,.1,0,.1.1l-.1.1a1.053,1.053,0,0,0-.1.484,2.084,2.084,0,0,1,0,.775v.484h-.1l-.678-.194-.678-.194v-.194h-.1l-.1.1H12s-.1-.194-.194-.1a.3.3,0,0,0-.1.194h-.194c-.194.1-.291.1-.194,0s.1.1.1-.1c0-.1-.1-.1-.194-.1h0a1.337,1.337,0,0,1-.291-.387v-.678c-.1,0-.1-.1-.194-.1a.1.1,0,0,0-.1-.1c0-.1-.1-.194-.1-.387h0l.194.1v-.581a.582.582,0,0,0-.1-.387l.194-.194-.1-.1h-.1a.582.582,0,0,1-.387-.1h5.132l-.1.1c-.291-.1-.291-.194-.194,0Zm1.065-33.6c0,.194,0,.194.1.194a1.923,1.923,0,0,0,.1-1.065l.1.1a1.228,1.228,0,0,1,.1.581c.1.484-.194.484-.1.968v.194c-.1.387-.387.387-.581.678-.1-.1-.194-.194-.194-.291l-.194-.291a1.337,1.337,0,0,0-.291-.387H15a1.228,1.228,0,0,1-.1-.581v-.291h0c0-.1.387,0,.484-.1h.1l.1-.291.1-.1a2.026,2.026,0,0,0,.387-.581l-.1.194A3.481,3.481,0,0,0,16.163,16.268Zm1.356,2.518.194-.1h.1v.387c0,.1-.1.1-.194.194l-.291.1c-.387,0-.387.581-.387.872v.194a1.29,1.29,0,0,1-.484-.291,1.2,1.2,0,0,1-.387-.775c0-.387-.291-.387-.484-.581v-.1a.1.1,0,0,1-.1-.1,1.093,1.093,0,0,1-.291-1.065h0l.291.387.194.194.194.291h.1c.1-.194.291-.872.484-.872h0c.1.387.291.872.387,1.162h.1c.1,0,.1-.387.194-.484.291-.194.194.291.194.387C17.228,18.979,17.325,18.979,17.519,18.785Zm.291.968c.1.1.291-.1.291-.1a1.393,1.393,0,0,0,.194.291c.1.1.1.387.194.194h0c.1-.1.194-.194.194,0s0,.194.1.194a.1.1,0,0,0,.1-.1.338.338,0,0,0,.1-.194c0-.1.1-.1.1,0v.194c0,.1-.1.194-.1.291-.1.1-.1.194-.194.291a.1.1,0,0,1-.1.1v.678c-.1.1-.194,0-.387,0l-.194-.1h0c-.387-.291-.291-.678-.484-.872l-.1-.291c-.1-.1-.194-.1-.194-.194a.556.556,0,0,1,.194-.678h.1c.291,0,.1.1.194.291Zm1.065-3.292h.194l.1.194.291.291v.1c.1.1.1.194.194.291a1.506,1.506,0,0,0,.775.581.582.582,0,0,0,.387.1h.581c.1,0,.194-.1.291-.1.1-.1.194-.1.291-.194a2.112,2.112,0,0,0,.387-.484l.1-.1c.1-.194.1-.291.387-.194,0-.1,0-.484.194-.484h0l.1.1a.617.617,0,0,0,0,.581,2.681,2.681,0,0,1,.1.872c0,.1-.1.291-.1.387l-.1.1a1.337,1.337,0,0,1-.387.291l-.194.1c-.1,0-.194.1-.387.1h-.581c-.1,0-.194,0-.194-.1h-.872a1.228,1.228,0,0,1-.581.1h-.387c-.1,0-.194-.1-.291-.1l-.1-.1h0c-.1-.1-.194-.194-.194-.291a.356.356,0,0,1-.1-.291,3.294,3.294,0,0,1,.1-.968v-.775Zm2.324.872h0a.424.424,0,0,0,.291-.1l.1-.1.194-.194.291-.291h0c.1-.1.1-.1.1.1a.356.356,0,0,1-.1.291l-.291.291-.1.1c-.1,0-.1.1-.194.1l-.194.1h-.872a.93.93,0,0,1-.678-.872.815.815,0,0,1,.678-.387c.194,0,.291,0,.291-.1s0-.194.1-.194h0c.1.194.194.194.387.291l.194.1.194.1c.1.1,0,.387-.1.387,0,.1-.1.1-.1.194-.1.1-.1.1-.194.1h-.291c0-.1.1,0,.291.1Zm3.1,1.259c0-.291,0-.194.1-.1a.1.1,0,1,0,.194,0c0-.194,0-.484.1-.194l.1.1c.1.1.1.1.1.194a.827.827,0,0,1,0,.678c0,.1,0,.1.1.1.1-.1.1-.291.194-.387a.781.781,0,0,0-.291-.872l-.1-.1c0-.1,0-.1.1-.1h0c.194,0,.291.194.484-.1-.1-.1-.291-.1-.291-.387l.1-.1.678.581h0v.678a3.224,3.224,0,0,1-.291.581c-.291.387-.484.387-.678.678-.1.1-.1.194-.194.291h0a1.393,1.393,0,0,1-.291.194H24.1c-.194,0,.1-.194.194-.291s0-.291,0-.387c0-.387-.291-.387-.484-.678v-.291l.1.1c.1.1.387.387.387.1A.182.182,0,0,0,24.3,18.592ZM26.525,27.6h0a.519.519,0,0,0-.291-.387l-.291-.1-.1-.1.1-.1c.1-.1.194-.194.291-.194h.291a1.337,1.337,0,0,0,.387.291l.194.194a1.648,1.648,0,0,1-.1.678h0c-.1.1-.387.194-.291,0,0-.1.1-.194.194-.291s-.291-.1-.387,0Zm0,18.98.291.291v.291H27.2c.387.291,0,.581.194.872v.1c-.1,0-.194.1-.194-.1,0-.1,0-.1-.1-.194a.873.873,0,0,1-.1-.484c.1-.194-.1-.1-.194,0h0c-.1,0-.1.194-.1.291l.1.1c.1.1.1.194.194.291,0,.1-.1.1-.194.1h-.291a3.972,3.972,0,0,0-.1-1.065l-.291-.581a1.4,1.4,0,0,1-.194-.678h.291c.291,0,.291.484.291.775Zm-.291-1.259h-.291c-.194,0-.291-.1-.484-.291a5.959,5.959,0,0,0-.194-1.84,10.286,10.286,0,0,1,.387-1.84h0c.1.291.1.484.194.775a4.918,4.918,0,0,1,.291,1.646v.194a6.393,6.393,0,0,1,.1,1.356ZM24.975,30.7c0-.1-.1-.194-.194-.291a1.2,1.2,0,0,0-.775-.387h0V29.34c0-.387-.484-.775-.194-.775l.194.291c.1.1.1.194.194.291.1.194.291.194.387.484a.356.356,0,0,0,.291-.1l.194-.194c0-.1,0-.1-.1-.194a.338.338,0,0,0-.1-.194c-.1-.194-.291-.291-.484-.484s-.291-.194-.291-.484v-.291a.8.8,0,0,0-.387-.581c-.1-.1,0-.387.194-.194a.734.734,0,0,0,.194.387c.1.194.387.194.484.484h.194c0-.1.1-.1.1-.194a.432.432,0,0,0-.291-.581.74.74,0,0,1-.484-.194l-.1-.1c0-.387.1-.775-.194-1.065-.1-.291.1-.387.194-.194,0,.1.1.194.1.291.1.194.387.291.484.581q.145,0,.291-.291h0v-.194a.987.987,0,0,0-.775-.484h0l-.1-.194a1.344,1.344,0,0,0,0-.872h.1l.1.1c.1,0,.1.387.387.387s.1.194.194.291h0c.1.1.1.1.194.1a1.337,1.337,0,0,1,.291.387c.194.194.194.291,0,.484a1.337,1.337,0,0,1-.387.291h-.194c-.1,0-.194,0-.194.1v.1c.1.1.1.194.194.194a.1.1,0,0,1,.1.1h.1c.1,0,.291,0,.291.1-.1,0-.1.1-.1.194,0,.194,0,.484-.1.581h-.1c-.1,0-.1.1-.194.1s-.291.1-.291.194.1.194.291.194c.1,0,.1.1.194.1l.1.1a.767.767,0,0,1,.1,1.065c0,.1-.1.1-.194.194-.1,0-.1.1-.194.1s-.1.1-.1.194l.1.1.194.194c.1.1.194.291.291.387,0,.194,0,.484-.194.581s-.1-.387,0-.484Zm-3.486,2.615c.1.1.194.194.291.194l.291.194h.1c.194,0,.1.194.1.194,0,.1-.1.194-.1.291l-.291.291h0v-.194a.338.338,0,0,1,.1-.194c.1-.194,0-.291-.1-.291H21.3a2.026,2.026,0,0,1-.387-.581c-.1-.194,0-.484-.1-.678,0-.1-.1-.1-.194-.1a.208.208,0,0,0-.194-.194h0a1.545,1.545,0,0,1-.678.872v.1c-.1.1-.1.194-.194.291a.432.432,0,0,0,0,.484h-.387c-.1,0-.1-.1-.1-.194a1.648,1.648,0,0,1,.1-.678c0-.1.1-.1.1-.194l.1-.1h.484c.1,0,.387-.194.387-.291a.519.519,0,0,1,.291-.387c.194-.1.194,0,.291,0a.1.1,0,0,0,.1.1l.1.1a.734.734,0,0,1,.387.194c.1.1.194.1.194.194l.291.387v.194c0,.1.1,0,.291-.1l.1-.1a.617.617,0,0,0,0-.581l-.1-.1-.291-.291c-.1-.1-.194-.1-.291-.194l-.194-.1h0c-.1-.194-.1-.291,0-.387h0v-.194a.134.134,0,0,1-.194,0A.5.5,0,0,0,21,30.89v-.1c-.1-.1-.1,0-.194.1,0,.1-.1.194-.194.291h-.194a1.3,1.3,0,0,0-.678.581h0a.617.617,0,0,0,0,.581.1.1,0,0,0,.1.1l-.1.1h-.1c-.1-.1-.291-.194-.291-.291a.3.3,0,0,1,0-.387c0-.1.1-.1.1-.194a.338.338,0,0,0,.194-.1c.1-.1.1-.1.1-.194a.1.1,0,0,0,.1-.1v-.291c-.1-.291.194-.194.387-.291a.734.734,0,0,0,.387-.194l.194-.194h0L21,30.5l.387.387.194.194.291.291.1.1c.1.194-.1.387,0,.387l.194.194c.1.1.194.1.387.1.1,0,.194,0,.194.1a1.1,1.1,0,0,1-.291.775l-.1.1a.44.44,0,0,1-.484,0c-.1,0-.194-.1-.291-.194C21.3,33.117,21.392,33.214,21.489,33.311Zm-2.518-3.583h-.1c-.1,0-.194-.1-.291-.1l-.1-.1a1.069,1.069,0,0,1,0-.775v-.194a.756.756,0,0,1,.387-.387h0a.208.208,0,0,0,.194-.194,1.648,1.648,0,0,0,.1-.678h.1l.194-.1h.194c.194,0,.291-.194.387-.291h0q.145,0,0,.291a.642.642,0,0,0,.194.678.338.338,0,0,0,.1.194,1.337,1.337,0,0,0,.387.291c.1.1.291.1.387.194l.194.1.1.1a.74.74,0,0,0,.194.484c.1.1.1.1.194.1l.1.1c.1.1.194.1.387.1h.194a.827.827,0,0,1,0,.678c-.1.1-.1.194-.194.291a1.337,1.337,0,0,1-.387.291c-.1,0-.1.1-.194.1.1-.1.194-.194.194-.291a.356.356,0,0,0,.1-.291c0-.1-.1-.194-.1-.291l-.291-.291h-.1l-.194-.1-.194-.1-.387-.194a.756.756,0,0,1-.387-.387c-.1-.1-.1-.291-.194-.387s-.484-.581-.484-.484a.873.873,0,0,1-.1.484c0,.1-.1.194-.194.291s-.194.1-.291.194a.1.1,0,0,1-.1.1l-.1.1-.1.1C18.875,29.244,18.875,29.534,18.971,29.728Zm-.484,2.518h0c-.1.1-.1.194-.194.291s-.291.194-.387.387c-.291.291-.291.678.194.678.1,0,.1-.1.194-.1h0c-.291.387-.484,0-.775,0h0a.726.726,0,0,1,0-.872l.1-.1c.484-.387.1-.387-.1-.291h-.1c-.484,0-.387-.484-.387-.775a.8.8,0,0,0,.484-.484h0c.194-.1.194-.291.194-.484l.581-.291h0a2.681,2.681,0,0,0-.1.872c-.194.1-.484.194-.581.387-.194.194-.291.387-.194.581,0,.1.1.1.194.1a2.9,2.9,0,0,0,.775-.387l.194-.194h0a.338.338,0,0,1,.1.194c-.1,0-.1.1-.1.194A.356.356,0,0,0,18.487,32.245Zm-2.324.484a.356.356,0,0,1-.291.1.734.734,0,0,1-.387-.194c0-.1-.1-.1-.1-.194a1.648,1.648,0,0,1,.1-.678l.1-.194c.194,0,.387-.291.581-.484v.194a1.345,1.345,0,0,0-.484.968A.452.452,0,0,0,16.163,32.73Zm-.387-2.808h-.291l-.1-.1a.731.731,0,0,1-.1-.775l.1-.194.194-.387c.1-.194.291-.387.387-.581h0v.775a1.235,1.235,0,0,0-.387.581v.387h0a1.228,1.228,0,0,0,.581.1V30.6a1.167,1.167,0,0,0-.484.484.356.356,0,0,0-.1.291c0-.1-.1-.194-.1-.291V30.7c0-.194.1-.291.194-.484l.1-.1C15.776,30.018,15.873,29.921,15.776,29.921Zm-.291-2.227h-.1a.924.924,0,0,1-.291-1.162l.291-.291.194-.194a2.112,2.112,0,0,0,.484-.387h0v.581c0,.194-.1.291-.194.484-.1,0-.291.1-.291.194a.356.356,0,0,0-.1.291c0,.194,0,.387,0,.484Zm.1-2.905-.1.1a.617.617,0,0,0,0,.581h-.1c-.484-.194-.291-.775-.1-1.162l.1-.1.194-.194c.194-.194.484-.387.678-.581,0,.194.1.387.1.581l.1.291H16.26a2.943,2.943,0,0,0-.678.484Zm.872-2.13a.726.726,0,0,1-.484.1.533.533,0,0,0-.291.484.1.1,0,0,1-.1-.1.731.731,0,0,1-.1-.775c0-.1.1-.1.1-.194a2.117,2.117,0,0,1,.484-.291c.1-.1.291-.194.387-.291l.194-.194a1.367,1.367,0,0,1,.1.872c-.1.1-.194.291-.291.387Zm.194,3.873a4.141,4.141,0,0,1,.872-1.259.356.356,0,0,0,.1-.291h0c.194-.291.1.581.291.775a.648.648,0,0,1-.387.678l-.291.1a.586.586,0,0,0-.1.775c.194,0,.387.194,0,.194-.581-.1-.484-.581-.484-.968Zm3.389-5.907.387-.291.1-.1c.1,0,.1,0,.1.1l-.194.1c-.194.1-.194.194-.194.387a.569.569,0,0,0,.194.484c.1,0,.194.1.291.1h.1a.338.338,0,0,0,.1-.194c0-.1.1,0,.291,0h.1c.1,0,.1,0,.194-.194a.711.711,0,0,0-.194-.581l-.194-.194h.1l.1.1h0c0,.1.1,0,.194,0h.1a.208.208,0,0,1,.194.194c.1.1.1.194.194.194l.1-.1.194-.291c.1,0,.1.194.194.291h0a.6.6,0,0,1,.1.678l-.1.1c0,.1-.194.194-.291.194H21.2c-.194,0-.194-.1-.387-.1h0c-.1,0-.194.1-.291.1h-.1a.827.827,0,0,1-.678,0h-.1l-.1-.1a.823.823,0,0,1-.291-.484v-.387a1.337,1.337,0,0,1,.291-.387h.1s0,.387.1.387l.1-.1.194-.291c.1-.1-.194.387,0,.387Zm-.872,2.13.291-.291.1-.1h.872l-.291.872a.967.967,0,0,1-.387.484l-.194.1c-.1,0-.194.1-.291.1l-.1.1-.1.1a.589.589,0,0,0,0,.775c-.1,0-.1.1-.194,0-.194,0-.291-.194-.387-.387h0v-.1a1.861,1.861,0,0,1,.387-1.162c.1-.1.194-.291.291-.387Zm-.1-.581c-.1.1-.194.194-.291.194-.1.1-.194.291-.387.387s-.1.194-.194.291c-.1.194-.291.291-.387.387a.738.738,0,0,0,0,.775c-.1,0-.194-.1-.291-.1a.691.691,0,0,1-.291-.968l.291-.291c.1-.1.1-.1.194-.1.194-.291.194-.581.387-.775h.775c0,.1.1.1.194.194Zm-2.227,6.972c.194-.581.678-.581.775-1.065v-.194h.194c0,.484.484.872.1,1.162l-.387.1a2.026,2.026,0,0,0-.581.387s0,.484-.194.194,0-.387.1-.581Zm5.81-2.13c-.1,0-.1.1-.194.1h-.484c-.1-.1,0-.194.1-.291h0v-.291l-.291-.291c-.1-.1-.194-.1-.291-.194l-.194-.1c-.1,0-.291-.1-.387-.1h0a.756.756,0,0,1-.387-.387,2.117,2.117,0,0,1-.291-.484c-.1.1.1.484-.1.775a.756.756,0,0,1-.387.387l-.194.194h-.1l-.291.194-.1.1c-.1.1-.194.1-.291.194l-.1.1c-.194.291,0,.387.1.484l.1.1-.1.1H18.39A.208.208,0,0,1,18.2,27.4h0a1.344,1.344,0,0,1,0-.872c0-.1.1-.1.194-.194h.1c.1,0,.194-.1.387-.1a1.337,1.337,0,0,0,.291-.387V25.37l.1-.1a.356.356,0,0,1,.291-.1l.194-.1h0a.726.726,0,0,0,.484-.1l.194-.1c.194-.1.291-.194.194-.484a2.132,2.132,0,0,1-.1-.775,8.912,8.912,0,0,0,.291.872.967.967,0,0,0,.387.484h0l.194.1c.1.1.194.1.291.194s.194.291.291.387v.291l.291.291h0c.678-.1.484.581.387.775Zm-.1-2.13c0-.194.291-.194.1-.678-.1-.1-.194-.194-.291-.194-.1-.1-.194-.1-.387-.194l-.291-.194h-.1c-.1-.1-.194-.194-.194-.291-.1-.194-.1-.387-.194-.581,0-.1-.1-.194-.194-.291h.775a.338.338,0,0,1,.194.1c.194.194.194.484.291.678h0a1.13,1.13,0,0,0,.581.581l.1.1.1.1a2.132,2.132,0,0,1-.1.775l-.1.1-.1.1s-.291,0-.194-.1Zm.291-2.615c0-.1.1-.1.194-.1h.291c.1.194.291.387.387.581a1.337,1.337,0,0,0,.387.291c.194,0,.387.194.581.387.1.1.194.775,0,.775-.1,0-.194.1-.291.1,0-.387,0-.484-.291-.678h0a.879.879,0,0,1-.678-.291l-.291-.291c0-.1-.1-.1-.1-.194-.1-.387-.1-.484-.194-.581Zm.194,10.071h0c.1,0,.194.1.291.1.1.1.1.1.1.194.194.1.194-.1.291-.1,0-.194,0-.291-.1-.387a.756.756,0,0,1-.387-.387v-.194a.827.827,0,0,0,0-.678c-.1-.1-.1-.194-.194-.291-.194-.291,0-.291.1-.194h0c.1,0,.1.1.1.194.194.194.387.484.1.678,0,.387.291.1.484.581,0,.1.1.194.1.291,0,.291,0,.387-.1.484-.194.1-.291.194-.484.291h-.291c-.1,0-.194-.194-.291-.291.291-.194.291-.291.291-.291ZM25.363,36.6c.194-.968.291-1.937.387-2.905h0a5.667,5.667,0,0,1,.194,1.259v.678c0,.581-.1,1.162-.1,1.937a21.51,21.51,0,0,1-.872,3.583l-.1.194a15.689,15.689,0,0,1,.1-2.13c.1-.872.291-1.743.387-2.615Zm.387-12.1a.8.8,0,0,1-.678.1c0-.1.1-.194.194-.291a.649.649,0,0,0-.291-.775l-.194-.1h0c.1,0,.1-.1.194-.1s.194-.1.291-.1c0,0,.1-.1.291.194s.484.678.194,1.065Zm-1.743-4.648v.194h-.1v.291a.929.929,0,0,1-.291.968l-.291.194-.291.1h-.291c-.1,0-.387,0-.194-.194.194,0,.387-.291.387-.387,0-.387-.194-.387-.194-.775,0-.1,0-.291.194-.1l.1.1.1.1c.1.1.1,0,.1-.1s0-.387.1-.291l.1.1c0,.1.1.291.194.194,0-.194.1-.387.1-.678q.145,0,.291.291ZM14.808,30.6h0c-.1.194-.1.291-.194.484h0a.5.5,0,0,1-.194-.387c.1-.1.1-.387.194-.581h0c.1-.1.1-.194.194-.194h0C15.1,30.018,15.195,30.115,14.808,30.6Zm.194.872a3.44,3.44,0,0,0-.194.968h0c-.1,0-.194-.194-.194-.387v-.194a.74.74,0,0,1,.194-.484c.1.1.1.1.194.1Zm-.194-8.715L15,23.24l-.194.194h0l-.194.194h0a1.337,1.337,0,0,0-.291.387c0,.1-.1.194-.1.291l-.1-.194c0-.291-.1-.484.1-.775l.1-.1c.1-.1.1-.194.194-.291h0l.291-.194Zm-.581,2.13.291-.291h0v.775c-.1.1-.291.194-.291.291a.582.582,0,0,0-.1.387c-.1.194-.1,0-.194-.1a2.207,2.207,0,0,1,.291-1.065Zm0,2.808.291-.291h0v.872a.356.356,0,0,0-.291.1.1.1,0,0,0-.1.1l-.291.581c-.1-.1,0-.678.1-.968,0-.1.194-.194.291-.387Zm.194,6.391c0-.194.1-.291.194-.484h0c0-.1.1-.194.194-.291l.1.1a6.516,6.516,0,0,1,.1,1.937c0,.291-.1.581-.1.775v1.259h0a2.279,2.279,0,0,1-.194-.775v-.1a4.117,4.117,0,0,1-.291-2.421Zm.387,7.166A4.8,4.8,0,0,1,15,39.6h0l.194.484a1.824,1.824,0,0,0-.194.775,5.521,5.521,0,0,0,.1,1.259c.1.775.581,1.84-.1,2.518a.1.1,0,0,1-.1.1c-.1,0-.1.1-.194.1H14.42c-.387.194-.387.872-.484,1.356h0c-.291.1-.581.194-.678.484a1.1,1.1,0,0,0-.291.775,2.36,2.36,0,0,1,0-1.162c-.1-.194-.194-.484.194-.387h.1c.387.194.581-.1.678-.484s.194-.678.291-1.065a2.117,2.117,0,0,0,.291-.484,5.483,5.483,0,0,0,.291-1.743v-.1h0a1.061,1.061,0,0,1,0-.775Zm-.775,6.585h-.194a.873.873,0,0,1,.1-.484.354.354,0,0,0-.194-.484h0c-.194-.1-.387.1-.484.291s0,.387,0,.678a.941.941,0,0,1-.1-.872c.1-.291.291-.291.484-.291h.1A.728.728,0,0,0,14.227,46h0a.356.356,0,0,1,.1-.291.658.658,0,0,1,.291-.387H15.1c0,.1-.1.291-.194.291a.519.519,0,0,0-.291.387l-.1.1h0c-.1.194-.194.194-.291.387l-.1.194c0,.387-.1.775-.1,1.162Zm7.747-9.1c0-.194-.1-.387-.1-.678-.1-.968-.1-2.034-.1-3.1h.1a.356.356,0,0,0,.291-.1c.1,0,.194-.1.291-.194h0a9.785,9.785,0,0,0,.291,1.646,4.545,4.545,0,0,1-.291,3.2.734.734,0,0,1-.194.387c-.1-.194-.1-.387-.194-.484s0-.387-.1-.678ZM26.815,59.94h-.1a.208.208,0,0,1-.194-.194c-.1-.194-.1-.484-.194-.678l.194.1c.1,0,.194.1.387.194.1.1.194.194.194.291a.309.309,0,0,1-.291.291Zm2.13-.387h0v.1h-.194v-.1h0v-.1h0v-.1h0v-.1h0l-.194-.194h.387l.1.1h0Zm1.453-.291h0v.1h-.1v-.1h0v-.1h0v-.194h.1a.1.1,0,0,1,.1.1h0Zm.775-1.356c0,.1-.1.1-.1.194a.64.64,0,0,0-.1.581.582.582,0,0,0-.387.1H30.3q-.145,0,0-.291A2.117,2.117,0,0,1,30.592,58l.1-.1a3.029,3.029,0,0,1,.484-.968l.194-.291c0-.1.291-.291.194-.387s-.194.1-.484.291l-.581.291v.194c0,.1.1.1.1.194a.1.1,0,0,1-.1.1c-.1.1-.194,0-.194.194s.1.194.1.291-.1.194-.291.291a.734.734,0,0,0-.194.387.744.744,0,0,0-.291.194c-.1.1,0,.194-.1.194h-.387c0-.194,0-.194.194-.194,0-.484-.291.1-.291-.194,0-.1.1-.1.1-.194h.291c-.1-.1.1-.291-.194-.291-.1.1-.194.291-.194.194s.1-.387.1-.581a.7.7,0,0,0,.194-.775c-.1-.387.1-.291.387-.194.1,0,.194.1.291.1H30.3a1.376,1.376,0,0,0,.581-.194l.194-.194a.74.74,0,0,0,.194-.484l-.194.194-.194.1a.356.356,0,0,1-.291.1H30.3c-.194,0-.387-.194-.484-.1A4.047,4.047,0,0,0,30.2,55.2c.1-.387.194-.872-.1-1.162-.1-.194-.194-.1-.194.1a2.784,2.784,0,0,1-.678,1.743c0,.194-.1.291.1.291s-.1.291,0,.484,0,.387-.194.581c0,.291-.1.484-.1.678s.1.484-.1.581v.291h-.968c-.194,0,0-.1,0-.194.1,0,.1-.1.1-.194a.827.827,0,0,0,0-.678h0v-.194c-.1-.291-.291.581-.291.581-.1,0-.1,0-.194.1h0c-.1.1-.1.194-.1,0s-.1-.194.1-.194h0c0-.194.1-.291.1-.484s-.1-.1-.1,0h0a.309.309,0,0,1-.291.291c0,.194-.1.194-.194.194-.1.194-.1.387-.194.484,0,.1-.1.1-.1.194h-.678c0-.1.1-.1.194-.194h0a.361.361,0,0,1,.291-.387V58c0-.1.194-.194.194-.291s0-.1.1-.194.1-.194.194-.291a2.681,2.681,0,0,1,.1-.872.582.582,0,0,0,.387.1.208.208,0,0,0,.194-.194c.1-.1.1-.387-.1-.291s-.1.1-.194.1h0c-.1,0-.1,0-.291-.1s.194-.291.291-.484a.3.3,0,0,0,.1-.194h-.1c-.1,0-.1.1-.1.194-.291.194-.291.291-.581.1,0,0-.194-.194-.1-.194h.1s.194,0,.194-.1a.967.967,0,0,1,.387-.484c.1-.1.194-.1.291-.194.194-.1.1-.194.1-.291s-.291.194-.387.291l-.1.1c-.194.1-.291.291-.484.387h0c-.291,0-.291-.194-.291-.194a.975.975,0,0,1,.291-.1h0a1.337,1.337,0,0,0,.291-.387.134.134,0,0,0,0-.194c-.1.1-.1.194-.194.291h-.387v-.1h0l.291-.1a.756.756,0,0,0,.387-.387c-.194-.1-.194.194-.291.1h-.387v-.1l.1-.1.194-.1c.194-.1.291-.194.291-.387a.356.356,0,0,0-.291.1c-.1.1-.291.1-.291,0v-.194h0a.356.356,0,0,1,.291-.1H27.2c.194,0,.291-.194.484-.291-.1-.194-.194,0-.291-.1s-.1-.194-.194-.1,0,.194-.1.194h0c-.1,0-.194.1-.291,0h-.387a.208.208,0,0,1-.194-.194.1.1,0,0,1,.1-.1l.1.1c.1,0,.194.1.387.1h.194a.182.182,0,0,0,0-.291c0-.194-.1-.194-.194-.291h-.387v-.1h.484V52l-.1-.1a.356.356,0,0,1-.1-.291.85.85,0,0,1,.1-.678l.194-.194v-.1a1.06,1.06,0,0,1-.1-1.065c0-.1.1-.1.1-.194a1.376,1.376,0,0,1,.581-.194v-.1c-.194-.1-.387.1-.484,0V49l-.291-.291c-.194-.194-.387-.291-.291-.387h.291a.356.356,0,0,1,.291.1c.1.1.291.194.387.291a2.117,2.117,0,0,1,.291.484v.291h-.1c-.194.1-.291.387-.387.581s0,.678.194.678h.291c.1-.1.291-.1.387-.194l.1-.1a.617.617,0,0,0,0-.581c-.1-.194-.1-.1-.1-.194s.1,0,.1,0l.1.1.291.291v.387c-.1.194.1.194.194.1.194.291.1.484-.1.581-.194.291.1.194.194.1s.1-.1.194-.1v-.484a3.077,3.077,0,0,1-.291-.872c.387,0,.775.1,1.065.1H30.2c.1,0,.1,0,.194.1.1,0,.1.1.1.194h0v.194h0c.291.194.194-.1.387-.1s0,.291.194.291h0a.4.4,0,0,1,.484.194c0,.1-.1.291.1.387a.338.338,0,0,1,.194-.1c.1,0,.1,0,.1.194l.1,2.518-.194-.1h-.678c-.678-.1-.581-.484-.291-.775.1-.291-.194-.291-.194-.484h.194c.1,0,.1-.194,0-.291s-.387-.1-.291.194h0L30.3,52c-.194-.1-.291-.194-.484-.291.1-.1.194-.194.1-.291-.1,0-.194-.1-.291,0s0,.291,0,.291H29.43l-.194.1a.2.2,0,0,0-.291-.194,1.1,1.1,0,0,1-.291.775l-.1.1a.5.5,0,0,1-.387.194h-.194c-.1,0-.387,0-.291.1.1,0,.194.1.291.194-.1.194-.194.291-.291.484,0,.1-.1.194-.1.291h.1a1.737,1.737,0,0,1,.484-.678.5.5,0,0,1,.387-.194l.194-.1c.194-.1.291-.387.484-.484A1.046,1.046,0,0,1,29.914,52a.356.356,0,0,1,.291.1.74.74,0,0,1,.194.484c0,.1-.1.194-.194.291a1.006,1.006,0,0,0-.387.775l.387.581h0c.1,0,.194-.1.291-.194,0-.1.1-.1.194-.1h.387a1.648,1.648,0,0,1,.678.1.967.967,0,0,1,.484.387v.1c.1.194.1.291.194.484a1.061,1.061,0,0,1,0,.775.356.356,0,0,1-.1.291.734.734,0,0,1-.194.387l-.291.291a.74.74,0,0,1-.194.484h0c-.194.194-.484.291-.484.678Zm-4.454-5.229Zm1.259-2.518c-.1.1-.1.1-.1.194h-.1v-.581l.1-.1h.1l.1.1c0,.194-.1.291-.1.387Zm4.454,9.1h0s0-.194-.1-.194a6952.452,6952.452,0,0,0-.194-.194c-.291,0,0,.291,0,.678-.1,0-.291,0-.291-.1a.338.338,0,0,0-.1-.194h0c-.194-.1,0-.678,0-.775v-.194h0c.1,0,.1-.194.194-.194h0v-.775c.1-.1.291-.1.387-.194h0v-.1l.1.291v.968c-.1,0,0,.291-.1.291h0a.338.338,0,0,0,.1.194h.1l.194.1C32.625,59.359,32.722,59.262,32.431,59.262Zm1.743-9.1h0c.194.194,0,.194,0,.291v.1h.194c.194.1.1.194,0,.291l-.1.1a.1.1,0,0,0,.1.1c.1.1.194,0,.194.194-.194.387.1.387.1.581-.291.387.1.291.1.581s-.291.194-.194.291a.468.468,0,0,1,0,.678.456.456,0,0,1,.1.581.609.609,0,0,1,0,.581v.291a.432.432,0,0,1,0,.484c0,.291,0,.291-.1.387a.3.3,0,0,1,0,.387c0,.194.194.194,0,.484a2.132,2.132,0,0,1-.1.775c-.1.194-.1.387-.194.291a20.953,20.953,0,0,0,0-3.486c-.1-.968,0-1.937-.1-2.905a3.294,3.294,0,0,1-.1-.968Zm-.387,2.034a.873.873,0,0,0,.1.484,1.053,1.053,0,0,1,.1.484v1.453a8.33,8.33,0,0,1-.1,1.549c0,.194,0,.291-.1.387s0,.387-.1.484a1.648,1.648,0,0,1-.1.678c0,.194-.194.291-.194,0v-.968c0-.1.1-.872-.194-.678h0c0,.1,0,.291-.1.291a7.329,7.329,0,0,1-.1,1.453c0,.194,0,.291-.194.194l-.1-1.162v-.775h-.194l-.1,1.453c-.194.1-.1-.291-.1-.387s-.1-.194-.1-.291.291-1.162.387-1.453V55a2.009,2.009,0,0,1-.581-.968l-.1-.291V52.193a3.633,3.633,0,0,1,.1-.968c0-.1.1-.1.194,0,0,.387.1.872.1,1.162a.5.5,0,0,1,.194.387.1.1,0,0,0,.1.1l-.1-2.421h.1c.1,0,.1,0,.194.1a1.376,1.376,0,0,1,.194.581,5.667,5.667,0,0,0,.194,1.259V50.741H33.4c.291.291.194.581.291,1.162a.356.356,0,0,1,.1.291ZM31.85,45.8h.484a.1.1,0,0,1,.1.1c.291.194.1.968.387,1.356l.194.194c.1,0,.291.1.387.1a.53.53,0,0,1,.387.484c0,.1,0,.581-.194.581l.1-.678c-.1,0-.194-.1-.291-.1a.257.257,0,0,0-.291.291h0a4.194,4.194,0,0,0,.1.484.208.208,0,0,1-.194.194c-.1,0-.194-.1-.1-.291.291-.291-.1-.775-.291-1.065-.1-.1-.194-.291-.291-.387a.1.1,0,0,0-.1-.1,1.2,1.2,0,0,0-.387-.775c-.1-.1-.194-.1-.291-.194,0-.1.1-.194.29-.194Zm-.775.291a.879.879,0,0,1,.678.291h.1c.1.387-.1.968.1,1.259-.1.194.1.581.1.872-.1,0-.291.1-.291,0v-.775c0-.1-.1-.194-.194-.291l-.581-.291a1.636,1.636,0,0,1-.291-.968.732.732,0,0,1,.387-.1Zm-1.065-8.812a9.912,9.912,0,0,1-.484,3.389,4.692,4.692,0,0,0,0,1.646,2.578,2.578,0,0,1,.291,1.162,8.067,8.067,0,0,0,.387,1.453c.1.194.1.387.194.581l-.1-.1h0c-.194-.1-.291-.484-.484-.678a1.123,1.123,0,0,0,.387.968l.1.1c.194.1.291.291,0,.194l-.194-.194a5.278,5.278,0,0,1-1.162-2.324l.1,1.453A1.44,1.44,0,0,0,30.3,46.19h.1c.194.194.1.484.194.775a1.506,1.506,0,0,0,.581.775h0c.387.1.387.291.291.484s-.1.291-.194.291h-.194c-.194,0-.387,0-.387-.194s.1-.1.194-.1.1.1.291.1h0q.145,0,0-.291c0-.1-.1-.1-.194-.1h-.194a.208.208,0,0,1-.194.194c0,.1-.1.1-.194.1l-.1-.1a.726.726,0,0,1,.1-.484c-.1-.194-.1-.484-.194-.678a.208.208,0,0,0-.194-.194c-.1.484-.387,1.162-.291,1.453a4.194,4.194,0,0,1-.484-.1,1.107,1.107,0,0,0-.678-.775v-.194a2.117,2.117,0,0,0-.291-.484h0a.873.873,0,0,1-.1-.484.879.879,0,0,0-.291-.678l-.1-.194a13.742,13.742,0,0,1-.484-2.13c0-.1-.1-.194-.1-.291a1.29,1.29,0,0,0-.291-.484,5.554,5.554,0,0,0-.387-.678l-.291-.872c0-.194-.1-.387-.1-.581a10.525,10.525,0,0,1,.1-1.743c.1-.581.194-1.065.291-1.646a7.827,7.827,0,0,0,0-3c-.1-.194-.1-.484-.194-.678.387-.291,0-.581,0-1.162.1,0,.1-.1.194-.194s.194-.291.387-.484c.1-.194.194-.291.291-.484s-.1,0-.291-.1c-.1,0-.1-.1-.1-.194.194-.484-.484-.968-.1-1.453h0c.1.1.1.291.194.387a1.337,1.337,0,0,1,.291.387c.291.291.484.387.581.581s.194.194.1.291l-.1.1a1.093,1.093,0,0,0-.291,1.065c0,.1-.194.1-.291.194l-.291.291c0,.1-.1.194-.1.291a.758.758,0,0,0,.1.775c.1.1.194.194.291.194h0c.291,0,.194.194.291.387s.194.291.291.484a.533.533,0,0,0,.484.291h0c.1.291.291.678.387.968a7.372,7.372,0,0,1,.291,2.034c0,1.549-.194,3-.194,4.358a30.1,30.1,0,0,0,.581-4.261V35.441c.194-.872.775.968.678,1.84Zm.581-2.518c0,.194-.194.194-.291.1h-.194c-.775-.291-.291-.968-.387-1.065a.891.891,0,0,1-.968-.1.5.5,0,0,1-.194-.387v-.484h0c0-.194-.194,0-.291-.1h-.1c-.194,0-.194-.194-.291-.387s-.1-.387.1-.775a1.376,1.376,0,0,0,.194-.581.208.208,0,0,1,.194-.194c.1.194.1.484.194.581l-.291.291a.484.484,0,0,0,0,.775.5.5,0,0,0,.387.194h.194c.194-.1.291-.291.484-.387,0,.1.1.194.1.291s-.291.291-.387.387c-.291.291.1,1.065.581.775.291-.194.1-.387.581-.194.1,0,.1,0,.1-.1.1-.1.194-.291.291-.1a.879.879,0,0,1-.291.678c-.194.1-.194.194-.291.29-.194.291,0,.484.194.581a.732.732,0,0,0,.387-.1h0c-.1.1-.1,0,0,0Zm.775-3c-.1.1-.194.194-.194.291a.74.74,0,0,0-.194.484c0,.194,0,.484.194.581l.1.1h-.1a1.167,1.167,0,0,1-.484-.484l-.1-.1c-.1,0-.194-.1-.291-.1h0a1.191,1.191,0,0,1-.678-1.065l-.1-.1c-.291-.1-.387,0-.581-.291a2.827,2.827,0,0,1-.194-.872h-.291a.356.356,0,0,1-.291-.1c-.1,0-.1-.1-.194-.1-.387-.484,0-.968.1-1.453a.1.1,0,0,1,.1-.1,1.184,1.184,0,0,0,.291-.872c-.1-.387-.194-.1-.194,0l-.1.194a4.1,4.1,0,0,1-.484.678l-.1.194c-.1.291-.1.194-.291,0,.1-.1.291-.194.387-.291a.734.734,0,0,0,.194-.387.819.819,0,0,0,0-.678c-.1-.194.1-.387.194-.581v.1a.873.873,0,0,1-.1.484c0,.194,0,.387.1.291,0-.1.1-.1.1-.194a.74.74,0,0,0,.194-.484l.194.194.194.194c-.1.581.484.581.1,1.453l-.291.291c-.1.1-.194.291-.387.387h0v.484a.5.5,0,0,0,.387.194c.1,0,.1,0,.1-.1.194-.1,0-.1.194-.291.1,0,.194-.291.291-.291l.291-.581h.1a1.8,1.8,0,0,0,.194.678.734.734,0,0,1-.194.387c-.194.291-.387.291-.484.678a.432.432,0,0,0,0,.484c0,.194.291.484.484.387.1-.291.484-.581.678-.968a.356.356,0,0,0,.1-.291c.1,0,.1.1.194.1a.44.44,0,0,1,0,.484.734.734,0,0,1-.194.387h-.1a1.193,1.193,0,0,0-.194.968c0,.1.1.291.194.291a.338.338,0,0,1,.194.1h.1c.1,0,.1-.1.1-.291,0-.387.291-.581.484-.872a.426.426,0,0,0,.1-.484V30.7c0-.1.194.1.291.194s0,.678-.1.872ZM28.461,18.495l-.1.1a.643.643,0,0,1-.484-.387.182.182,0,0,1,0-.291v-.1c0-.291,0-.484.484-.581v-.1c0-.194.1-.194.291-.387h.1a1.1,1.1,0,0,0,.775-.291h0a.693.693,0,0,0,.872.484h.1l-.1.1a2.026,2.026,0,0,1-.581.387,1.952,1.952,0,0,1-1.065.291h-.194c-.1,0-.1,0-.194.1-.291.194-.291.387,0,.484h.387c.387,0,.872-.484.872-.194v.872c-.291.484-.678.194-.872.484a.356.356,0,0,0-.1.291c.291.387-.1.291-.291.1l-.1-.1c-.194-.484-.1-.678.1-.775s.194-.1.194-.291.194-.291-.1-.194Zm-.387-3.389c0-.1.1,0,.194.1a.5.5,0,0,0,.387.194h.291c.291,0,.775-.484.872-.968h0v.484c-.1.194-.291.872-.387,1.065s-.194.291-.387.291h-.387a.582.582,0,0,0-.387.1l-.1.1c-.1,0-.194.194-.194.291a.1.1,0,0,0,.1.1h-.387c-.1-.194-.194-.581,0-.775h.1s.1,0,.291-.194a1.035,1.035,0,0,0,0-.775ZM29.43,26.629a3.58,3.58,0,0,1,.484-1.065.556.556,0,0,1,.194.678,2.308,2.308,0,0,1-.581,1.065.826.826,0,0,0,.1.872c.1.1.291.194.387.291h.1c.1,0,0,0,0-.291h0v-.194A2.117,2.117,0,0,1,30.4,27.5l.1-.1a1.8,1.8,0,0,0,.194-.678.533.533,0,0,1,.291.484V27.4a1.376,1.376,0,0,1-.194.581c-.1.194-.291.387-.387.581l-.1.194a1.228,1.228,0,0,0,.1.581,1.167,1.167,0,0,0,.484.484c-.194,0-.291-.1-.484-.1-.1-.1-.194-.291-.291-.387v-.1c0-.194-.1-.581-.291-.581s-.194,0-.387-.194a2.223,2.223,0,0,1-.387-1.356c-.1,0-.194-.1-.291-.194l-.291-.291a1.376,1.376,0,0,1-.194-.581c0-.194.1-.291.194-.484a1.737,1.737,0,0,1,.484-.678.586.586,0,0,1,.291.581,1.41,1.41,0,0,0-.581.872.8.8,0,0,0,.775.291ZM32.335,30.7c.1.1.194.1.387.1h.194a.447.447,0,0,1-.484.291h-.1c-.291,0-.291-.484-.484-.484h-.1a.756.756,0,0,1-.387-.387,1.824,1.824,0,0,1-.194-.775v-.484c.194-.291.387-.678.581-.968h0c.1,0,.1.291,0,.678v.1a3.925,3.925,0,0,1-.484.872,1.183,1.183,0,0,0,.387.872h.1c.1,0,.1-.1.194-.1a1.038,1.038,0,0,1,.194-.581l.1-.1a.976.976,0,0,0,.291-.872c0-.194,0-.1.194-.1a.8.8,0,0,1-.194,1.162l-.291.291c-.1.1-.1.1-.1.194,0,0,0,.1.194.291ZM33.4,25.273v.194l-.291.581h0l-.387.291c-.194.194-.387.581-.1.775h.1a.257.257,0,0,0,.291-.291v-.1c.1-.1.194-.194.291-.194.194-.194.387-.387.484-.1h0c0,.1,0,.1.1.194v.1c0,.1,0,.1-.1.194a.967.967,0,0,1-.484.387h0a.756.756,0,0,0-.387.387.3.3,0,0,0,0,.387l.1.1H33.5c0,.194-.1.194-.194.194h-.1c-.1,0-.194-.1-.291-.1a.735.735,0,0,1-.291-.872l-.291-.1c-.1,0-.1,0-.194-.1-.291-.194-.194-.581-.484-.678h0c-.291-.1-.387-.581-.581-.775h0a2.026,2.026,0,0,1-.581-.387c-.1-.194-.194-.291-.291-.484,0-.1,0-.194-.1-.194,0-.1-.194-.1-.387-.194,0-.291-.581-.291-.387-1.356-.678-.387-.387-.678-.484-1.259l-.291-.291a1.367,1.367,0,0,1-.1-.872l.1-.1c.1,0,.194-.1.291-.194s.291-.387.1-.484-.291-.1,0-.194a2.279,2.279,0,0,0,.775-.194h0a.338.338,0,0,0,.194.1c.291.291-.194.872-.387.968-.387.194-.775.1-.775.775v.291c.194.1.1-.1.194-.1s.1-.291.194-.291a1.228,1.228,0,0,0,.581-.1c.291-.387.291-.1.387.1h0c0,.1.291.291.1.387h-.1a.975.975,0,0,0-.291.1.64.64,0,0,0-.581.678c0,.1.1.291.194.291.1-.291.194-.387.484-.387h.194a.356.356,0,0,0,.291-.1c.1-.1.291-.194.387-.291h.1a.781.781,0,0,1-.291.872h-.1c-.1,0-.194.1-.291.194a1.1,1.1,0,0,0-.291.775.734.734,0,0,0,.194.387h0c.1,0,.1-.1.1-.291,0-.1.1-.194.194-.291a2.026,2.026,0,0,1,.581-.387l.1-.1c.194-.194.291-.1.484.1a.5.5,0,0,1-.291.678c-.1.1-.1.291-.194.387a.735.735,0,0,0-.291.872c.1.1.194.291.291.291a.356.356,0,0,0,.291-.1,1.72,1.72,0,0,1,.387-.968l.1-.1c.1-.1.194-.291.291-.194h.1c.291.291.484.194.194.678l-.194.1c-.194.1-.291.291-.484.387a.837.837,0,0,0-.291.581c0,.1.1.194.1.291a.1.1,0,0,0,.1.1c.1.1.194,0,.291-.1v-.291c0-.1.1-.1.1-.194l.678-.678c.1-.1.1-.194.194-.291a2.129,2.129,0,0,1,.484.581Zm-.387-1.356c.1.1.194.1.291.194,0,.1-.1.1-.291.1a1.737,1.737,0,0,1-.678-.484v-.1q-.145-.291,0-.291a.208.208,0,0,0,.194-.194.134.134,0,0,0,0-.194l-.194.1a.873.873,0,0,1-.484-.1.756.756,0,0,1-.387-.387,1.218,1.218,0,0,1,.194-1.259c0-.1.1-.291.194-.291.194-.1.291-.1.484-.194h0v.291c0,.1-.1.1-.1.194-.1.194-.291.291-.291.484a.44.44,0,0,0,0,.484v.1c0,.1.1.194.194.291a.182.182,0,0,0,.291,0,.5.5,0,0,0,.194-.387c.194,0,.291.291.291.387a1.043,1.043,0,0,0-.194.775,1.29,1.29,0,0,0,.291.484Zm3.2-3.292a.5.5,0,0,1-.387.194c-.194.1,0,.291,0,.387a.356.356,0,0,1-.291-.1c-.1-.1-.291-.194-.291-.291a1.17,1.17,0,0,0-.678-.678h-.1a1.228,1.228,0,0,1-.581-.1l-.1-.1v-.291l.1-.1h0a1.345,1.345,0,0,0,.484-.968v-.1a.873.873,0,0,1,.581-.581c.1,0,.194,0,0,.194a5.19,5.19,0,0,0-.484,1.065h0a1.337,1.337,0,0,0-.291.387c-.1.387.1.387.291.387h0c.194,0,0-.387.1-.387a.387.387,0,0,1,.387.194c-.1,0-.1.1-.1.194s0,.1.1.1l.1-.194c.1,0,.194,0,.291.194-.1.1-.194.291,0,.194.1-.1.194-.194.194-.291.1-.1.1-.291.291-.291a1.337,1.337,0,0,1,.291.387c-.1.1-.194.291-.291.291a.208.208,0,0,0-.194.194h0a.1.1,0,0,0,.1.1c.291,0,.291-.581.678-.484a1.022,1.022,0,0,0-.194.484Zm-.678-1.453c.1.1.1.1,0,.194h0c-.194-.291-.678-.291-.678-.387l.1-.1h0a.837.837,0,0,1,.581.291ZM35.24,18.3l.194-.1.194.1a.74.74,0,0,1,.194.484c-.1-.1-.1-.194-.194-.291-.291-.1-.387-.1-.387-.194Zm-.968-4.842h.194c.291.1.678.291.968.387h.1a3.384,3.384,0,0,1,1.259.484c.484.581.1,1.84.872,2.324.387.291.775.968.678,1.259a.643.643,0,0,0-.484.387c-.291-.194-.194-.581-.775-.872-.194,0-.387.1-.387.194v.194c.291.291.581-.1.968.678,0,.194.194.387-.1.484-.1-.194-.581-.775-.872-.775s-.1.1,0,.194.775.775.387.872c-.1-.1-.291-.581-.581-.581,0,.194.484.968,0,.968a1.41,1.41,0,0,1-.581-.872c.1,0,.1,0,.194.1.291.1,0-.775-.484-1.259a.837.837,0,0,0-.581-.291.74.74,0,0,0-.484.194,1.752,1.752,0,0,0-.387,1.356l-.194.194h-.1l-.291.291v-.194a.1.1,0,0,0-.1.1c-.1.1-.1.1-.1.194a.85.85,0,0,0,.1.678.533.533,0,0,0,.484.291h.581c.194,0,.1-.1.194-.194s.194.194.194.291c-.387,0,0,.678.194.872.194.484-.291.484-.678.484h-.1c-.484-.1-.194-.678-.484-.968l-.1-.1h0a.582.582,0,0,0-.387-.1h-.387l-.194-.581a2.687,2.687,0,0,0,0-1.743c.1,0,.194.1.291.1a.582.582,0,0,0,.387-.1,1.29,1.29,0,0,0,.484-.291h.1a1.737,1.737,0,0,0,.484-.678l-.484.194h-.1c-.194,0-.291.1-.484.1a.582.582,0,0,1-.387-.1h0v-.291a4.194,4.194,0,0,0,.1-.484c0-.194-.1-.291-.1-.484v-.291h0a1.337,1.337,0,0,1,.387-.291,4.194,4.194,0,0,1,.484-.1h.1a1.228,1.228,0,0,1,.581.1c.1.1.291.1.387.291.1,0,.291-.387,0-.387-.1,0-.291-.194-.387-.291a.414.414,0,0,0-.581-.1h0a.426.426,0,0,1-.484.1.967.967,0,0,1-.387-.484v-.484c0-.194.1-.291.194-.291h.194a.967.967,0,0,0,.484-.387l.1-.1c-.1,0-.1-.1.1-.194Zm-6.778,0a.756.756,0,0,1,.387-.387h0a.823.823,0,0,1,.484-.291l.387-.194.581-.291.1.1c-.1.1-.291.1-.194.291a1.146,1.146,0,0,1,.968.1L30.4,12.2h0l.291-.581a1.534,1.534,0,0,1,1.162-.484h.1a.873.873,0,0,1,.484.1,1.121,1.121,0,0,1,.678.484.617.617,0,0,1,0,.581c0,.194.194,0,.291-.194l.194-.291s.1,0,0,.1c.1.387-.291.678,0,.775.1-.1.194-.291.291-.387h0c.194.1.1.678,0,.968a.1.1,0,0,1-.1.1h0c-.1.1-.194.291-.387.291h-.194l-.194-.1c-.194-.1-.387-.1-.581.291v.968l.291-.291c.1-.1.194-.1.194.1a.519.519,0,0,0-.291.387c0,.194,0,.484-.194.581h-.1c-.194,0-.291.1-.484.194a.208.208,0,0,0-.194.194.8.8,0,0,0-.194.775c.1.1.194.194.291.194v-.484a2.112,2.112,0,0,1,.484-.387.356.356,0,0,1,.291-.1l.1.1c-.1.387-.387.581-.291,1.065,0,.1-.1.194-.1.291a.967.967,0,0,1-.484.387.873.873,0,0,1-.484.1l-.291.1c-.291.1-.484.291-.484.484s.291.194.484.194h.678a1.167,1.167,0,0,0,.484-.484h0c.194-.1.1.581.1.775l-.1.291-.291.581h-.194a.879.879,0,0,0-.678.291l-.291.291c-.1.194.1.387.291.581v.1c.1.1.1.1,0,.1h-.1a.457.457,0,0,1-.484-.484v-.484h0a1.3,1.3,0,0,1,.581-.678c.194-.1.387-.194.387-.387s.291-.387-.194-.387c-.1,0-.194.1-.291.1a.74.74,0,0,1-.484.194h-.1l-.291-.291a1.367,1.367,0,0,1-.1-.872c0-.1.1-.291.1-.387.1-.1.194-.291.291-.387h0a1.561,1.561,0,0,0,.678.387.556.556,0,0,0,.678-.194h0c.1-.1.1-.1.1-.291l-.1-.1h-.291a.734.734,0,0,1-.387-.194,2.117,2.117,0,0,1-.291-.484v-.581h.387a4.21,4.21,0,0,0,.678-.387.881.881,0,0,0,.387-.775v-.291c-.1-.1-.1-.1-.194.1,0,.1-.1.194-.194.291,0,.1-.1.1-.194.1a.873.873,0,0,0-.484.1,1.337,1.337,0,0,0-.387.291,1.367,1.367,0,0,0-.1.872.1.1,0,0,1-.1.1H30.2c-.1,0-.194-.1-.291-.1-.291-.1-.1-.678.1-.968l.194-.387.291-.581.1-.194c0-.194,0-.291-.1-.291-.1.1-.194.194-.194.291s-.1.1-.1.194v.1c-.1-.194-.387-.581-.194-.775,0-.194-.1-.387-.291-.387,0,.387-.291.678-.1,1.065-.194.1-.1.1-.194.291a1.006,1.006,0,0,1-.775.387h-.387a.443.443,0,0,0-.387.484c0,.1,0,.1.1.194,0,.1-.1.1-.194.1h-.1l-.387-.387a.726.726,0,0,0-.1-.484c-.194-.484,0-.775.291-1.162Zm-.581,2.711c.1-.194.194-.484.291-.678h0c0-.194.1.1.1.1a1.376,1.376,0,0,1-.194.581c0,.1-.1.194-.1.291-.194.291.1.387,0,.581-.1.1-.194.194-.194.291a.356.356,0,0,0-.1.291c-.1.194,0,.1.1,0l.194-.194h.1v.1a.582.582,0,0,0-.1.387.922.922,0,0,1-.194.678l-.194.194-.194.194a1.126,1.126,0,0,0-.194.968c.1.1.1.291.194.291h0a1.273,1.273,0,0,1,.291-1.162l.291-.291h0c.1-.1.291.1.291.194-.194.291-.1.484-.194.872a.734.734,0,0,1-.194.387l-.291.291a.817.817,0,0,0-.194.678v.387c0,.1.1-.1.194-.291a.356.356,0,0,0,.1-.291c.1,0,.1-.1.194-.1a1.7,1.7,0,0,0,.387-.484c.387-.1,0,1.065-.194,1.162-.1.1-.194.194-.194.291a1.045,1.045,0,0,0,0,1.065h0c.291-.484.581-.387.581-.872h0c.194-.1.387.1.194.291-.1.194-.1.387-.194.484-.194.194-.291.484-.484.678A1.345,1.345,0,0,0,27.2,24.6c0,.1.1.194.194,0-.194-.291-.194-.194,0-.775.1,0,.1-.1.194-.194a2.026,2.026,0,0,0,.387-.581h.1a.582.582,0,0,1,.1.387c0,.1-.1.194-.1.387,0,.1-.1.194-.194.291a1.337,1.337,0,0,0-.291.387,2.13,2.13,0,0,0-.387,1.259c0,.1.1.194.1.291-.1,0-.1.194-.1.291a1.376,1.376,0,0,0-.194-.581c0-.1-.1-.1-.194-.1.1-.1.1-.291.194-.387v-.581a1.8,1.8,0,0,0-.194-.678h-.1c-.1-.1,0-.387,0-.387a1.4,1.4,0,0,0-.291-1.259l-.194-.194c-.1-.1.1-.484.1-.775a2.279,2.279,0,0,0-.194-.775.8.8,0,0,1-.1-.678.5.5,0,0,0-.194-.387.44.44,0,0,1,0-.484.734.734,0,0,1,.194-.387c.1-.291,0-.581.1-.872a.208.208,0,0,1,.194-.194c0-.1.1-.1.1-.194l.291-.872c0,.1.1-.1.194-.387ZM24.007,7.359h0a1.888,1.888,0,0,1,.775-.1h.194c.194.1.581.581.194.968-.1,0-.1,0-.194.1h0c-.1,0-.1,0-.194.1l-.291.291c-.1,0-.291-.1-.291,0a.614.614,0,0,0,.484.581l.194.1.1.1c.1.1.1.1.194.1,0-.194-.387-.678-.194-.872,0-.194.194-.1.291-.1s.194.387.194.484a.734.734,0,0,0,.194.387c.1.1.1.194.194.291a.726.726,0,0,1,.1.484c0,.1,0,.1-.1.194a2.026,2.026,0,0,0-.387.581c0,.387,0,.1.1.1s.291-.1.194,0,0,.291.1.387l.1.1.194.194a2.117,2.117,0,0,1,.291.484c0,.1,0,.1.1.194a1.055,1.055,0,0,1-.194,1.065c-.1.291-.1.387.1.291h0a.941.941,0,0,1,.1.872c-.1.194.194.581,0,.872s.1.678-.1.872h-.1c-.1.1,0,.484-.291.581h0l-.291-.484v-.1h-.1a4.194,4.194,0,0,0,.1.484v.1a1.344,1.344,0,0,1,0,.872h0l-.484-.872c.1-.387-.194-.484-.194-1.162,0-.194-.1-.775.194-.581.1.1.291.291.1-.1a1.147,1.147,0,0,1-.1-.775c.194-.291.484-.387.484-.775,0-.1.1-.194.1-.291v-.581c-.1-.387-.387-.581-.775-1.259-.194-.581.1-.581.1-1.065a1.561,1.561,0,0,0-.387-.678l-.194-.194c-.1,0-.194-.1-.291-.1a.533.533,0,0,1-.484-.291c-.1-.1-.194-.194-.291-.194a.532.532,0,0,1,.291-.678h.194c.194.1.387.1.387-.1.1-.1-.1-.291-.194-.291a.582.582,0,0,0-.387.1,1.644,1.644,0,0,0-.581.581c0,.194-.1.194-.1.291h0a.586.586,0,0,1,0-.775A1.58,1.58,0,0,1,24.007,7.359Zm-1.646.387a.356.356,0,0,1,.1-.291,1.167,1.167,0,0,1,.484-.484h.387a.356.356,0,0,1,.291.1c-.1,0-.194.1-.291.194s-.1.194-.194.291l-.1.291-.1.194a1.561,1.561,0,0,1-.387.678,1.376,1.376,0,0,1-.194-.581C22.361,8.037,22.361,7.843,22.361,7.746ZM19.552,8.811l.194-.1h0V8.424h0c0-.1-.1-.194-.194-.291-.194-.291-.387-.775-.1-.968l.1-.1h.194a.417.417,0,0,1,.387.387,2.384,2.384,0,0,1-.1,1.162.182.182,0,0,0,0,.291h.387c.1,0,.194-.1.387-.1.1-.194-.194-.387-.194-.775s0-.775.291-.775c.1,0,.194,0,.194.1.1.291.194,1.162,0,1.356v.194h.581c.1-.1.194-.1-.1-.678v-.1a1.344,1.344,0,0,1,0-.872c0-.1.1-.1.194-.1h.1a.356.356,0,0,1,.291.1c.1.1.1.194,0,.387v.484a1.228,1.228,0,0,1-.1.581c-.1.291-.194.291.1.387h.1l.1-.194.291.1.291.1h.1l.194.1h.1a2.427,2.427,0,0,1,.678.387c.194.1.387.291.581.387,0,.194.1.291.194.484,0,.1.1.194.194.291v.484c0,.1.1.194.1.291a5.75,5.75,0,0,0,.387.775c.1.194.1.484-.1.581-.1,0-.1.1-.194.1l-.194.1-.194.1c-.1.1-.194.194-.194.291s-.1.387-.1.484-.194-.194-.194-.291a.967.967,0,0,1-.387-.484.5.5,0,0,0-.194-.387c-.194-.1-.291-.1-.484-.194h.1a1.228,1.228,0,0,0,.581-.1l.1-.1a2.567,2.567,0,0,0,.484-.581c.194-.1.194-.1.194-.194a1.376,1.376,0,0,0-.581.194l-.1.1a1.046,1.046,0,0,1-.678.291h-.291l-.678-.1H22.07a1.936,1.936,0,0,1,.194-1.259,1.423,1.423,0,0,1,.581-.484h.291a.879.879,0,0,1,.678.291c.1.1.291.194.291.387.1.1.1.1.194.1s-.291-.678-.291-.678l-.194-.1a2.026,2.026,0,0,0-.581-.387h-.387a.74.74,0,0,0-.484.194h-.1a1.337,1.337,0,0,1-.387.291l-.291.291a.734.734,0,0,0-.194.387.44.44,0,0,0,0,.484,1.824,1.824,0,0,1,.194.775v.1c.1.291.1.387,0,.387l-.194.1H20.23v-.194a1.491,1.491,0,0,1,.194-1.065.582.582,0,0,0,.1-.387c0-.1-.1-.194-.1-.387a2.459,2.459,0,0,0-.775-.968l-.1-.1H18.39l-.1.1c-.291.194-.484.484-.775.678l-.387.387c.1.1.1.1.291-.1l.1-.1a5.371,5.371,0,0,1,.775-.581c.1,0,.1-.1.194-.1h.484l.194.1.1.1a1.337,1.337,0,0,1,.291.387.873.873,0,0,1,.1.484h-.194a.734.734,0,0,1-.194-.387c0-.1-.1-.1-.1-.194l-.1-.1a.1.1,0,0,1-.1-.1h-.387c-.1,0-.1,0-.194.1h0c-.291.194-.484.387-.775.581l-.387.291c.1.1.194.194.387.1.1,0,.194-.1.291-.1a.967.967,0,0,1,.484-.387c.1,0,.1-.1.194-.1a.732.732,0,0,1,.387.1l.1.1c.1.1.1.194.1.387a.1.1,0,0,0,.1.1h.291a.1.1,0,0,1,.1.1h-.194c-.1,0-.194.1-.291.1h-.1c-.1,0-.194.1-.291.1h-.484c-.291-.1-.484-.291-.775-.291h-.387c-.291,0-.291,0-.194.1a.837.837,0,0,1,.581.291A2.117,2.117,0,0,1,18,12.3h.775c-.1.1-.194.1-.387.194h0l-.194.1a.98.98,0,0,0-.387.678c-.1,0-.291.1-.291.194a.88.88,0,0,0,0,.968h0v.387a1.506,1.506,0,0,0,.581.775h.291c.1,0,.194-.1.387-.1l.1-.1-.1-.1h-.291a.338.338,0,0,1-.194-.1c-.291-.1-.581-.387-.484-.581l.484.291.194.1.387.1h.291l.291-.1.194-.1a4.721,4.721,0,0,0,.678-.291h.1c.194-.1.291-.194.1-.291l-.1.1a1.946,1.946,0,0,1-.775.387l-.194.1h-.678c-.1,0-.194-.1-.387-.1l-.1-.1a.987.987,0,0,1-.484-.775c0-.1,0-.1.1-.194a2.112,2.112,0,0,0,.387.484c.1.1.1.194.194.194.1.1.194.1.387.194a.356.356,0,0,1,.291.1h.387l.194-.1c.291-.1.581-.194.484-.387a1.053,1.053,0,0,1-.484.1h-.581l-.291-.1c-.1-.1-.291-.194-.387-.291-.1-.194-.194-.291-.194-.484,0-.1,0-.291.1-.291h.1a4.721,4.721,0,0,0,.291.678c.1.1.194.194.291.194l.1.1c.1,0,.1.1.194.1h.291a.582.582,0,0,0,.387-.1c0-.194,0-.1-.1-.1h-.291l-.194-.1-.291-.291c-.1-.1-.1-.1-.1-.194a.582.582,0,0,1-.1-.387v-.291c0-.1,0-.194.1-.194a.1.1,0,0,1,.1-.1c.1-.1.1-.1.194-.1-.1.1-.1.291-.194.387v.581a1.337,1.337,0,0,0,.291.387l.194.1h.194a.582.582,0,0,1,.387.1.1.1,0,0,0,.1.1.823.823,0,0,0,.775,0l.194-.1c.1-.1.194-.1.291-.194h0l.291-.1a.734.734,0,0,0,.387-.194h0a1.888,1.888,0,0,0,.1-.775c.1,0,.194,0,.194.1.484.291.1.968-.387,1.162H21.78c-.1,0-.194-.1-.194.1h.581a1.376,1.376,0,0,0,.581-.194l.1-.1h0a.5.5,0,0,0,.194-.387v-.291c0-.1.1-.194.194-.1.194.194.291.387.194.581a.98.98,0,0,1-.387.678l-.291.1h-.1l-.194.1H22.07c-.1,0-.194-.1-.387-.1-.1,0-.194-.1-.291-.1l-.1-.1c-.1-.1-.1-.1-.194,0h0c.1.1.194.194.291.194a.356.356,0,0,0,.291.1c.1,0,.194.1.387.1h.968a1.17,1.17,0,0,0,.678-.678c0-.1.1-.1.1,0a.85.85,0,0,1-.1.678.921.921,0,0,1-.968.387H22.07a.732.732,0,0,1-.387-.1l-.291-.1c-.1,0-.194-.1-.291-.194l-.194-.1h0c-.1-.1-.1-.194-.194-.1.1.1.1.194.194.291l.194.194c.1.1.194.1.291.194l.291.1.387.1c.194,0,.291.1.484.1h.484a.879.879,0,0,0,.678-.291,1.41,1.41,0,0,0,.581-.872c0,.1.1.194.194.291h.1c0,.1.1.1.1.194v.194c-.1.1-.1.194-.194.291V15.3c-.1.484.1.872,0,1.259s-.291.291-.678.387h0c-.291.1-.1.484-.387.872h-.1c0-.1,0-.387-.1-.484-.1-.291-.194-.291.194-.484.1-.1.194-.1.387-.194A1.456,1.456,0,0,0,24.2,15.59c0-.1.1-.194.1-.387.1-.1.484-.484.1-.387-.1.1-.194.194-.194.291-.194.1-.291.291-.387.387a.3.3,0,0,1-.194.1c-.194.1-.291.1-.484.194h-.387a1.228,1.228,0,0,1-.581-.1h-.1l-.291-.1c-.1-.1-.194-.1-.291-.194a.967.967,0,0,1-.387-.484c-.1-.1-.1-.194-.194-.291h0c-.1.194-.291.291-.387.484a5.372,5.372,0,0,1-.775.581h-.194l-.291.1h-.1l-.291.1h-.291c-.1,0-.194,0-.194-.1-.1,0-.1-.1-.194-.1a2.567,2.567,0,0,1-.484-.581l-.581-.387c-.1,0-.291,0-.291.1s.194.194.291.387v.581c0,.387-.1.387.1.775l.194.194a.734.734,0,0,1,.387.194c.194-.1.291,0,.387.1s.1.194.194.194c.1.291-.1.484-.1.775h-.1c-.1,0-.1,0-.1-.1-.291-.194-.1-.775-.581-.775h0c-.387,0-.581.1-.678-.581,0-.484.1-.581.1-.872s-.291-.387-.387-.775.678-.291.678-.968-.484-.775-.872-1.065l-.194-.194a.884.884,0,0,1,.194-1.065,1.062,1.062,0,0,0,.291-1.162,1.506,1.506,0,0,1,.581-.775l.291-.1a5.75,5.75,0,0,1,.775-.387l.194-.1.387-.1.194-.1h.1Zm2.615,4.261a.1.1,0,0,0-.1.1h-.1a.582.582,0,0,1,.1-.387h0c.1,0,.1.291.1.291Zm-2.518-.387h.1c.1.1.1.194,0,.194l-.1.1a.1.1,0,0,1-.1-.1c0-.1,0-.194.1-.194Zm-4.939.194.1-.1h.1a.756.756,0,0,1,.387.387h-.1a.582.582,0,0,0,.1.387c.1.1.194.1.194.194v.1c0,.1.1,0,.194,0l.1-.1c.194-.194,0-.484-.1-.678h0c-.1-.1-.1-.194-.194-.194l-.1-.1a1.506,1.506,0,0,1-.581-.775,1.069,1.069,0,0,1,0-.775h0a1.946,1.946,0,0,1,.387-.775c.1-.1.194-.291.194-.194s.1,0,.1.1.1.1.1.194c0,.194.1.291.1.484,0,.291-.1.387.194,0a.74.74,0,0,0,.194-.484c.1-.581-.387-.775-.291-1.259,0-.1.194-.291.291-.484s0-.194-.1-.194-.291.291-.387.291-.1,0-.1-.291V8.134c0-.1.1-.1.1-.194a.894.894,0,0,1,.872-.291.582.582,0,0,1,.387.1c.291,0,.194-.387.291-.387a.3.3,0,0,1,.387,0c.291.194.484.387.775.581l.1.1h.1a2.132,2.132,0,0,1-.1-.775l.1-.1h.291a1.376,1.376,0,0,1,.194.581v.968a.1.1,0,0,1-.1.1c-.1,0-.1,0-.1-.1-.1-.1-.194-.387-.387-.387h0v.678c-.1,0-.1,0-.194-.1s-.194-.291-.291-.387a.654.654,0,0,0-.387-.581h-.1c-.1,0-.1,0-.1.194.1,0,.1,0,.194.1a1.74,1.74,0,0,1,.387.872l-.387-.387-.194-.194a.74.74,0,0,0-.484-.194c-.1,0-.1.1,0,.194a.756.756,0,0,1,.387.387V9.2a.844.844,0,0,1-.581.775l-.291.291a.929.929,0,0,0-.194.872v.484a1.878,1.878,0,0,0-.291,1.743c.1.387.484.775.387,1.259s-.1.1-.194,0-.194.291-.194.291l-.291.291-.194.1a.3.3,0,0,1-.387,0h-.194c-.194-.1-.194-.194-.194-.387a.1.1,0,0,0,.1-.1h0c.194,0,.1-.484.1-.581l-.1-.1c-.1-.194-.194-.291-.194-.484a1.5,1.5,0,0,1,.194-.775Zm-.194,6.1h0a1.65,1.65,0,0,0,0,.968h0v.1h0a2.117,2.117,0,0,0-.291.484l-.1.194a1.436,1.436,0,0,0-.1.678c-.1,0-.291.291-.291.291l-.1.1a1.11,1.11,0,0,0-.1.968.5.5,0,0,1-.194.387,1.174,1.174,0,0,0-.291,1.259l-.1.1a.823.823,0,0,0-.291.484.85.85,0,0,0,.1.678c.1.387-.484.1-.194,1.453l.194.291c0-.194-.1-.1-.1-.1l-.194-.387c-.1-.194,0-.387,0-.484h-.291a.1.1,0,0,1-.1-.1c.1,0,.1-.1.194-.194s.194-.291.1-.387c0-.1-.1-.291-.1-.387l-.194-.194a.582.582,0,0,0-.1-.387c0-.1.1-.194.194-.291.1,0,.1,0,.1.1h0c0,.194.291,0,.291,0l-.387-1.646c0-.1.1-.1.194-.194.194-.1.1.194.1.387l.194.194h.1v-.678c-.1-.291,0-.581-.1-.968-.1-.1-.1-.1-.194-.1.1-.1.194-.1.291-.194a.582.582,0,0,0,.1-.387c0-.1.1-.194.1-.1a.582.582,0,0,1-.1.387c0,.291.291.484.291.872h.1a2.132,2.132,0,0,0,.1-.775c-.1-.387-.194-.872-.291-1.259a.208.208,0,0,1,.194-.194h0c.1.194.291.387.291.484s.1.1.1.194c.1.1.1,0,.1,0a1.619,1.619,0,0,0-.1-1.162l-.1-.1c-.194-.1-.194-.387-.1-.581,0-.194-.387-.581-.1-.775a.734.734,0,0,1,.194-.387.582.582,0,0,0,.1.387c.1.1.194.291.291.387s.1.291.194.387a.1.1,0,0,0,.1-.1v-.581c.1.1.194.194.194.291ZM12.29,31.568c0-.194-.1-.484,0-.581h0c0-.1.194.1.194.1,0,.1.1.194.1.291a.642.642,0,0,1-.194.678l-.194.194c-.1.1-.291.194-.387.1-.291,0,.194-.194.194-.194a.533.533,0,0,0,.291-.484c0,.1,0,0,0-.1Zm.291-.968c.194-.291-.1-.387-.1-.678V29.34c0-.194-.1-.387-.194-.291v.1a1.152,1.152,0,0,1-.387,1.065.182.182,0,0,1-.291,0c0-.1.194,0,.194-.1a.613.613,0,0,0,.1-.872.338.338,0,0,0-.194-.1.582.582,0,0,0-.387-.1h0v-.194c0-.1,0-.1.1-.194s.581.291.775.194l.1-.1a1.376,1.376,0,0,0,.194-.581h0c.1-.1.194.484.291.484s-.194.194-.291.581,0,.291.194.678c.194.194.1.387.194.678C13.064,31.18,12.483,30.793,12.58,30.6Zm-2.034-4.261c.291.387.581.581.291,1.162l-.291.291c-.194.1-.291,0-.484.1v.1c.194.1.291.194.484.291a.5.5,0,0,1,.194.387.6.6,0,0,1-.194.678h-.1a2.008,2.008,0,0,1-.581.194s-.1-.1,0-.1a.417.417,0,0,0,.387-.387c.1-.484-.291-.678-.678-.872-.1-.1-.194-.1-.387-.194h0a.1.1,0,0,0-.1-.1c-.1-.291-.291-.872.1-.872h0a1.337,1.337,0,0,0,.387.291h0a.134.134,0,0,1,0,.194l.1.1c.194-.1.581-.1.581-.581,0-.387-.194-.387-.484-.484-.1,0-.194-.1-.291-.194-.1-.194-.194-.291-.194-.484l.194-.194.1-.1c.1-.1.1.1.194.1a.69.69,0,0,0,.581.291h.194a.777.777,0,0,0-.1-.775l-.1-.1a2.61,2.61,0,0,1-.775-.678l.581-.678c.1.1.1.194.194.291l.1.1c.387.484.581.194.678.1a.654.654,0,0,0-.387-.581l-.291-.194a.69.69,0,0,1-.291-.581l.291-.291a.5.5,0,0,0,.194-.387c.1-.1.291.1.484.387l.1.194c.1.1.291-.194.291-.484,0-.1-.194-.291-.387-.387-.1-.1-.194-.1-.291-.194-.291-.1-.194-.775-.484-1.065a.437.437,0,0,1,.291-.291h.1c.1.194.194.484.387.581a6.172,6.172,0,0,0,.678.194c.291.1.1.194.291.1h0v-.387c0-.1-.1-.1-.1-.194l-.872-.291a.879.879,0,0,1-.291-.678c-.1-.291-.194-.678-.291-1.065a2.314,2.314,0,0,0,.484-1.356.734.734,0,0,0,.194.387,1.647,1.647,0,0,0,.968.581v.1c.1.291.484.387.678.484h.1c.194.1.194.387.194.484a.533.533,0,0,1-.291.484.356.356,0,0,1-.291.1c-.291,0-.194.194,0,.194s.194.387.194.581a.831.831,0,0,1-.581.678h0c-.1,0-.291-.1-.291,0s.194.194.291.387,0,.194,0,.291v.291a.558.558,0,0,1-.581.581h0c-.194,0-.291,0-.387-.194a.338.338,0,0,0-.194-.1c0,.194,0,.291.194.387a.734.734,0,0,0,.387.194c.1.291.291.581.1.968a.309.309,0,0,1-.291.291.356.356,0,0,1-.291.1c-.291,0-.581-.194-.581.1a2.567,2.567,0,0,0,.581.484.74.74,0,0,1,.194.484.5.5,0,0,1-.194.387c-.1.1-.194.194-.291.194,0,.194-.194.1-.291.194Zm-.775-5.616c-.1-.1-.194-.291-.387-.387l-.1-.1C9,19.947,8.61,19.27,8.9,18.979a.1.1,0,0,1,.1.1c.194.194.291.291.387.291a.756.756,0,0,1,.387.387c.1.1,0,.484.1.387a1.048,1.048,0,0,0,.387-.484c.1-.291-.291-.581-.484-.775l-.1-.1-.194-.194-.1-.1C9,18.108,8.61,17.333,8.8,17.139h0c.1.194.194.291.291.484a.356.356,0,0,1,.291.1.582.582,0,0,0,.387.1h.194c-.194.291.1.678.291.872h.194c0,.194.194.387.194.484v.1h0c0,.387,0,.678-.387.872-.1.1-.291,0-.387,0,0,.387.484.291.678.291a2.36,2.36,0,0,1,0,1.162,1.36,1.36,0,0,1-.387.387.356.356,0,0,1-.291.1c-.1,0-.194-.1-.291-.194l.291-.291a.74.74,0,0,0,.194-.484C9.966,21.013,9.869,20.819,9.772,20.722Zm1.646-5.52h0a.466.466,0,0,1,.194.581.725.725,0,0,0,.678.581h0c.291,0,.1.291.194.484a.533.533,0,0,0,.484.291h.194a.607.607,0,0,1-.194.775h0s-.387.291-.387.1h.1a.5.5,0,0,0-.291-.678.582.582,0,0,0-.387-.1c-.291-.1-.484-.1-.581-.484v-.1h0a1.888,1.888,0,0,0,0-1.453Zm2.324-3.292a2.108,2.108,0,0,1,.484.775c0,.1.1.194.1.291h-.1v-.1c-.1-.1-.194-.291-.291-.387l-.194-.1a1.532,1.532,0,0,1-.581-.872,2.026,2.026,0,0,1,.581.387Zm-1.937-.484c.194,0,.291.1.484.194s.387.291.581.387v.1H11.709C11.709,11.813,11.612,11.523,11.806,11.426Zm-.194,1.743a2.279,2.279,0,0,0,.194-.775c0-.1.291-.1.484,0a1.4,1.4,0,0,1,.678.194h0a1.561,1.561,0,0,1,.678.387c.291.194.484.387.484.484a1.65,1.65,0,0,0,0,.968.1.1,0,0,0,.1.1.356.356,0,0,1-.1.291c-.1.1-.1.194-.1.968,0,.1.1.1.1.194v.291a.1.1,0,0,1-.1.1v.387c-.1-.387-.291-.775-.387-1.065-.194-.291-.387-.581-.678-.581h0a.182.182,0,0,0,0,.291c.1.1.194.1.291.194a1.344,1.344,0,0,1,0,.872c-.1.1-.194.1-.291.194h-.194c-.1,0,0-.1,0-.1a.582.582,0,0,0,.1-.387.417.417,0,0,0-.387-.387H12.29c-.678-.291-.581-.678-.968-.581v-.1l.194-.194a1.055,1.055,0,0,0-.194-1.065h0A4.721,4.721,0,0,1,11.612,13.169ZM7.351,12.007h0a.614.614,0,0,1,.581-.484h.1c.1,0,.1.1.194.1.1.1.194.387.194.1s-.194-.291-.387-.387l-.1-.1v-.194h.1a1.946,1.946,0,0,1,.775.387h.1a1.7,1.7,0,0,1,.387-.484.734.734,0,0,1,.387-.194c.1,0,.194-.1.387-.1h0a.873.873,0,0,1,.484.1.889.889,0,0,1,.387.581c.1.387.291.872.387,1.259v.581a.5.5,0,0,1-.194.387h-.194c-.1.194.194.387.194.581s0,.387-.291.194-.1.194.1.387c.1.194.194.291.1.484,0,.291,0,.872-.291.775l-.1-.1c-.194-.1-.387-.387-.678-.291v.194c.194,0,.581.581.581.775v.1a1.344,1.344,0,0,1,0,.872c0,.1-.1.194-.194.291s-.581.291-.387,0c.1-.1.194-.194.194-.291a.427.427,0,0,0-.387-.581H9.288c-.194,0-.387-.1-.387-.484,0-.1,0-.291.1-.291s.194.1.291.1a.338.338,0,0,0,.194.1c.1,0,.194,0,.194-.1s.1-.1.1-.194c.1-.1.194-.387,0-.484a.734.734,0,0,0-.387-.194C9.191,15.3,9,15.3,8.8,15.2s0-.194.1-.194a1.228,1.228,0,0,0,.581-.1.734.734,0,0,0,.387-.194,1.017,1.017,0,0,0,.484-.872,1.6,1.6,0,0,0-.484-1.259c-.1-.1-.291-.194-.387-.291l-.1-.1c-.1-.1-.678.1-.387.1a.74.74,0,0,1,.484.194.889.889,0,0,1,.387.581v.678h0a2.026,2.026,0,0,1-.387.581c-.291.291-.678.387-.678.291v-.194c0-.194.581-.484.581-.872s-.678-.581-1.065-.678H7.835c-.194,0-.387-.291-.484-.484Zm-1.84,8.521c-.291.1-.291.194-.291-.1s.194-.1.1-.291c-.1,0-.1-.1-.194-.1-.1-.1-.1-.194-.194-.291a.734.734,0,0,1-.194-.387H4.93v.194c0,.1.1.194.194.291.1,0,.194.1.194,0s.194-.1,0-.194a.387.387,0,0,1-.194-.387c0-.1,0-.484.194-.291l.291.581c0,.1.1.194.1.291h.1v-.387c-.1-.194.1-.1.194,0s.1,0,.1,0h0c.291-.1.1-.194,0-.291h0c0-.1.1-.1.194-.1a.208.208,0,0,1,.194.194c.194.194-.484.387-.291.581.387-.291.775-.387.968-.581a.85.85,0,0,0-.1-.678.728.728,0,0,1-.484-.678c-.1-.1-.291,0-.484,0h0c-.1-.1-.1-.194,0-.194,0-.1.1-.1.194-.1h0a.533.533,0,0,1,.484.291,4.523,4.523,0,0,0,.484.968l.1.1v.387c-.1.1-.194.1-.194.194s.194-.291-.1-.291a.257.257,0,0,1-.291.291,2.67,2.67,0,0,0-.872.678,1.337,1.337,0,0,1-.387.291Zm2.034.1c-.1.1-.1.194-.194.387v.194c0,.1-.1.1-.1.194,0-.194.1-.291-.194-.291a.6.6,0,0,1-.387.581c-.1,0-.581.1-.581-.1a.711.711,0,0,1,.194-.581c.1-.291,0-.194-.291-.1l-.387.1c0-.1.194-.194.291-.291h0c.387-.1.387-.872,1.356-.775l.1-.1c.194-.1.484-.194.484-.484a.921.921,0,0,0-.387-.968l-.1-.1c-.291-.291-.291-.581-.484-.872A.631.631,0,0,0,6,17.236H6c-.194.194-.387.387-.387.581h0c-.1.1-.1.194-.194.194a1.561,1.561,0,0,0-.387.678c0,.1-.1.194-.194.291H4.64c0-.194.194-.387.291-.581V18.2H4.737c-.194.194-.291.484-.484.678-.1,0-.1,0-.1-.1a1.331,1.331,0,0,1,.484-.775c.1-.1,0-.1-.1-.1a2.567,2.567,0,0,0-.581.484c0,.1,0,.1-.1.1a.987.987,0,0,1,.484-.775,1.376,1.376,0,0,1,.581-.194.338.338,0,0,0,.194-.1c.1-.1.291-.291.387-.291h.194l.291-.1a1.228,1.228,0,0,1,.581-.1c-.1,0-.194.1-.291.1-.1.1-.1.194.1.194.387-.1.484.387.968.291h0a1,1,0,0,0,.581-.775h0c.1-.194.1-.291,0-.194l-.1.1-.291.387H7.061c-.1-.1.194-.1.194-.387-.387.1-.775-.1-1.259,0l-.1-.194c-.1,0-.291.1-.387.1a2.567,2.567,0,0,1-.581.484h0c-.1.1-.194.1-.194-.1,0-.1.1-.194.194-.291h.291l.291-.291c0-.1.1-.1.1-.194,0-.291-.194-.387,0-.581A1.337,1.337,0,0,1,6,15.3a1.228,1.228,0,0,1,.581-.1.1.1,0,0,1,.1-.1A2.61,2.61,0,0,0,6,14.331c-.1,0-.194-.1-.291-.1H5.511l-.1-.1h-.1c-.1.291-.291.194-.387.291v.1c0,.387-.291.194,0,.968a.1.1,0,0,0,.1.1h.1c.1,0,.1-.1.1-.194,0-.194.291-.291.194.1a1.824,1.824,0,0,0-.194.775.208.208,0,0,1-.194.194h-.1a1.133,1.133,0,0,0-.775,1.065c-.1,0-.291.291-.484.291a.967.967,0,0,0-.387-.484c-.1-.194,0-.291.1-.581a3.875,3.875,0,0,1,.968-1.162c.194-.194.194-.387.194-1.162a.7.7,0,0,1,.387-.581l.581-.291h0l.387-.1a1.545,1.545,0,0,0,.872-.678h.1a2.567,2.567,0,0,0,.581.484l.581.291h.1c.194.1.291.1.387.387-.1.194-.194.291-.387.291H7.835c-.194,0-.291.1-.484.1-.291.1-.678.194-.581.387h.581c.194,0,.291.1.484.1l.194.1.1.1c.291.194.194.484.387.581.387.194.194.872,0,.968a4.343,4.343,0,0,0-.1,1.065.879.879,0,0,0,.291.678,1.825,1.825,0,0,0-.387.872c-.1.387.194.775,0,.968H8.029a.8.8,0,0,0-.484.484ZM5.511,14.912c-.1,0-.387,0-.387-.1s.1-.1.194-.194h.1a.417.417,0,0,1,.387.387h0c0,.194-.1.1-.291-.1ZM7.254,25.951c0-.1.1-.1.194-.1a.533.533,0,0,1,.291.484c.291.291,0,.484.194.581h.194c.1,0,.194-.1.291-.194.1,0,.194-.291,0-.484a1.337,1.337,0,0,1-.291-.387l-.1-.1a1.2,1.2,0,0,1-.387-.775c0-.194-.1-.678.1-.775.1.1.194.291.291.387l.1.1c.1.1.1.194.194.194v.1c0,.194.291.194.387.1.291-.194,0-.678-.194-.968a.98.98,0,0,1-.387-.678v-.387a.1.1,0,0,1,.1-.1.908.908,0,0,1,.581.775c.194,0,.291,0,.387-.1.1,0,.1,0,.1-.1v-.387c-.1-.291-.387-.387-.581-.484a1.055,1.055,0,0,1-.194-1.065c0-.291.194-.581.291-.581h0c.1,0,.387.291.484.484v.291c0,.1-.1,0-.1,0A1.393,1.393,0,0,0,9,21.5a.793.793,0,0,0,.387.968c.1.1.291.194.387.291h0c.194.1.194.387.194.581a.74.74,0,0,1-.194.484c-.1.1-.1.1-.194.1l-.194.1c-.387.1-.291-.1-.484.1.1.1.194.291.291.387l.194.1c.194.1.194.291.291.484a.533.533,0,0,1-.291.484c-.1.194-.387.194-.581.1-.194,0-.291-.194-.484-.291-.387,0,.387.581.387.678.194.194.387.581.1.775s-.194.291-.387.291-.387-.1-.291.1a.837.837,0,0,1,.291.581c0,.194-.1.291-.291.387H7.932l-.1.1c-.1,0-.194,0-.1-.1s.194-.1.291-.194l.1-.1v-.194c0-.1-.1-.1-.1-.194-.194-.194-.581-.387-.678-.581h0A1.146,1.146,0,0,1,7.254,25.951Zm.484,3.68a.356.356,0,0,1-.291-.1.1.1,0,0,1-.1-.1s0-.1.1,0h.1c.194.1.291-.1.291-.194a1.2,1.2,0,0,0-.387-.775l-.1-.1a.5.5,0,0,1-.194-.387c-.1-.194-.1-.484.194-.291l.1.1a.356.356,0,0,1,.1.291.643.643,0,0,0,.387.484c.1,0,.1.1.1.194a.356.356,0,0,1,.1.291v.387c0,.1-.1.1-.1.194-.1-.1-.194,0-.291,0Zm1.549,1.356c-.194,0-.1.194-.1.291v.387q0,.145-.291.291c-.1.1-.678.194-.387-.1.194,0,.387-.291.387-.484,0-.1,0-.291-.1-.291a1.723,1.723,0,0,1-.678-.775v-.194h0c.194,0,.484.581.678.678a1.228,1.228,0,0,0,.581.1c.1,0,.1-.1.194-.1,0-.1.1-.1.1-.194a.533.533,0,0,0-.291-.484l-.291-.194A1.626,1.626,0,0,1,8.8,28.469l.484.484c-.194.1-.1.291,0,.387l.387.387c0,.1.1.1.1.194a.726.726,0,0,1,.1.484c.1.1,0,.291-.1.387-.1-.1-.1-.1-.194-.1l-.1.1c0,.1-.1.1-.194.194ZM9.869,33.7h-.1c-.194,0-.291-.1-.291-.194.1,0,.291-.1.291-.194l.1-.1a.182.182,0,0,0,0-.291c-.1-.194-.387-.291-.194-.387h.1a1.337,1.337,0,0,1,.291.387c-.194.194.194.581-.194.775Zm.387-2.324c.1-.1.194,0,.291.194s.387.484.484.387.1,0,.1,0a.975.975,0,0,0,.1-.291v-.1c.1-.1.1-.194,0-.387a2.112,2.112,0,0,0-.387-.484l-.291-.291-.1-.194a.1.1,0,0,1,.1-.1c.1-.1.194-.1.387-.1a2.026,2.026,0,0,0,.387.581l.291.291a1.061,1.061,0,0,1,0,.775l-.291.291c-.1.1-.291.194-.291.387s0,.291-.1.387a1.337,1.337,0,0,1-.387.291h-.194c-.1,0,.1-.194.194-.194a.617.617,0,0,0,0-.581c-.1-.1-.194-.291-.291-.291a1.11,1.11,0,0,1,0-.581Zm0,4.164a4.715,4.715,0,0,1,.1-1.162h.194c0,.1,0,.1.1.194a5.681,5.681,0,0,1,.387,2.227,22.133,22.133,0,0,0-.194,2.421c-.1-.194-.1-.387-.194-.581a11.807,11.807,0,0,1-.387-3.1ZM9.772,45.8h0a2.314,2.314,0,0,0,.872.291h.1c.194,0,.387-.194.581-.291.1-.1.1-.194.194-.291.1-.387.194-.775.291-1.259,0-.194.1-.194-.1-.194a1.562,1.562,0,0,1-.291.872c0,.1-.1.1-.1.194a.74.74,0,0,1-.484.194c.1,0,.194-.194.291-.678a1.344,1.344,0,0,0,0-.872c-.194-.1-.1.387-.1.678a2.9,2.9,0,0,1-.387.968c-.1.1-.194.1-.194-.1a2.279,2.279,0,0,0,.194-.775,5.116,5.116,0,0,0,.1-1.259h-.1v.1c-.1.484-.194,1.259-.387,1.065a11.4,11.4,0,0,1,.387-2.421c.194-.968.484-1.743.678-2.711v-.1c.1-.872,0-1.646.1-2.518,0-.194-.1-.291-.1-.484-.1-.484-.1-.968-.291-1.743,0-.194.1-.387.291-.387a.74.74,0,0,0,.484-.194c.387-.291.194-.484.387-.678h.1a1.17,1.17,0,0,0,.678-.678,1.093,1.093,0,0,0,.1-.775h0l.291.291a1.667,1.667,0,0,0,.194,1.162l.291.291a6.4,6.4,0,0,0,0,2.711q.145.872.291,1.453c.1.387.194.775.291,1.259h0v.1c-.1.581-.194,1.162-.291,1.646l-.1.1a3.58,3.58,0,0,0-.484,1.065,5.551,5.551,0,0,0-.387,1.356c-.1,0-.194,0-.194-.1a2.013,2.013,0,0,0,0-.775c-.1.1-.1.291-.194.484a18.317,18.317,0,0,0-.484,2.227.5.5,0,0,0-.194.387,2.8,2.8,0,0,1-.872,1.549l-.1.194-.1.1h.484c.1,0,.1-.387.387-.387a1.946,1.946,0,0,1-.387.775h-.291a.817.817,0,0,0-.678.194h0c-.291.387-.387.387-.581.291l-.291.291H9.385l.291-.581v-.194c0-.1,0-.1-.1-.194h-.1a.726.726,0,0,1-.1.484c0,.1,0,.1-.1.194a.3.3,0,0,1-.194-.1c0-.291-.1-.775.194-.872h.581l-.194-.194a.356.356,0,0,1-.1-.291A1.3,1.3,0,0,1,9.772,45.8ZM8.61,46.19a1.737,1.737,0,0,1,.484-.678h.291a.338.338,0,0,1,.194.1c-.1.1-.194.194-.194.291a1.376,1.376,0,0,0-.194.581c.1.194.194.291-.1.387a.753.753,0,0,0-.291.968c-.1.194-.291.678-.581.484-.1-.194.1-.484.194-.775-.1-.194-.194-.387-.291-.1h0a.582.582,0,0,1-.1.387h0c-.194-.194,0-.484,0-.484-.1-.291-.1-.291,0-.291h.1c.291,0,.387.484.484-.1v-.291c0-.1-.194-.291,0-.484ZM6.77,47.739v-.194c.1.194.1.387.194.581s.291.291.387,0,0-.291.1-.387c0-.1.1-.1.1-.194s0-.1-.1-.194h0c-.194-.1-.387-.194-.194.1v.581a.6.6,0,0,1-.387-.581c0-.194.1-.1.194-.194a.356.356,0,0,1,.1-.291c0-.1.1,0,.194,0h.194c0-.484.387-.775.387-1.065a.582.582,0,0,1,.1-.387l.1-.1a.182.182,0,0,1,.291,0A1.376,1.376,0,0,0,8.223,46v.484l-.1.194v.1a1.621,1.621,0,0,0-.387,1.453.533.533,0,0,1-.291.484H7.254a1.541,1.541,0,0,1-.484-.968Zm.194,7.747h0v-.1l.291-.484h.387l-.194.872H6.964Zm7.844,3.777c-.1.291,0,.581-.194.775h-.1c-.1,0-.194,0-.194-.1a.356.356,0,0,1-.1-.291c0-.1.1-.1.1-.194.1-.1.194-.194.291-.194h.194Zm.581-.581h-.678a.356.356,0,0,1,.1-.291c0-.1.1-.1.194-.194,0,0,.1-.1,0-.1h0c0-.1-.1-.194-.1-.291-.1-.194-.194-.291-.194-.387h0a1.337,1.337,0,0,1-.291-.387c-.194-.1-.291-.291-.484-.387a.734.734,0,0,0-.387-.194c-.1,0-.194-.1-.291-.1h-.872a3.478,3.478,0,0,1-.968-.678l-.1-.1c-.194,0-.1.194-.194.291a.734.734,0,0,1-.387.194h-.194c0-.1.291-.194,0-.291a1.737,1.737,0,0,1-.678-.484c-.1-.1-.291-.194-.387-.387l-.1-.1c0-.1,0-.194-.1-.1v.872a.967.967,0,0,1-.387.484,1.561,1.561,0,0,1-.678.387H7.932c-.1-.1-.1,0-.1-.1-.1,0-.194.1-.291.194s-.1.194,0,.387a1.439,1.439,0,0,0,.194.872.19.19,0,0,0,.194-.194c0-.194-.291-.484,0-.678h.1c.1,0,0,.1.1.194a.134.134,0,0,0,.194,0,4.194,4.194,0,0,0,.1-.484c.1-.291.291,0,.387,0,.291,0,.1-.387.291-.484,0-.1.1-.1.194-.1h.194l.194.1a2.681,2.681,0,0,0,.872.1h.872a.338.338,0,0,1,.1.194c0,.1,0,.387.291.194.194.1.291.1.484.194a.74.74,0,0,1,.484.194c0,.194.1.291.194.194a.338.338,0,0,0,.1-.194l.1.1c0,.1.1.1.194.1h0l.1.194c-.291.194-.194.484.1.194v.291c-.1.194-.194.1-.291.291s.1.291,0,.291.1.387.194,0l.1-.1c.194-.1.291-.387.387-.581a.881.881,0,0,0-.387-.775.338.338,0,0,1-.194-.1l-.484-.291-.194-.1h.387a1.561,1.561,0,0,1,.678.387.967.967,0,0,1,.484.387.823.823,0,0,1,.291.484h0V58.1h0c-.1.1-.194.291-.291.387h-.1a.873.873,0,0,1-.484.1h-.1c-.1.387-.581.194-.387.581.1.1.1.194.194.387-.194,0-.291,0-.387-.1h0c-.194-.1-.291-.194-.291-.387,0-.1.194-.291.1-.291s-.387.194-.387.291a1.42,1.42,0,0,0,.194.387.478.478,0,0,1-.291-.1L12,59.069c-.194-.291.194-.1.291-.291h0v-.194a.1.1,0,0,0-.1-.1c-.1-.1-.484,0-.194.1a.208.208,0,0,1-.194.194c-.1.194-.194.29-.1.484h0c.1.1.1.1.1.194-.194,0-.387,0-.484-.194-.1-.1-.1-.1-.1-.194a.1.1,0,0,1,.1-.1h.1l.194-.194c.387-.1.1-.291-.194-.1l-.1.1-.1.1c-.194.1-.484.194-.194.484,0,0,.1.194-.1.194a.182.182,0,0,1-.291,0,.756.756,0,0,1-.387-.387v-.1l.387-.1.291-.1c.194-.1-.1-.291-.291-.194h0c-.1.1-.194.291-.291,0-.1-.194-.194.1-.194.1a.1.1,0,0,1,.1.1c-.194.1-.387.291-.194.387s.1.194.1.194a.6.6,0,0,1-.387-.194l-.194-.194c-.1-.1,0-.194.1-.194h.1c.1,0,.194,0,.1-.194H9v-.194c0-.194.1-.387-.194-.387s-.387.387-.387-.1c0-.194.194-.678-.1-.678H8.126a.617.617,0,0,0,0,.581V58a.74.74,0,0,1,.194.484c-.1,0-.194,0-.194-.1H7.932c-.1-.1-.194-.1-.194-.194a.356.356,0,0,1-.291-.1h0c-.291-.291-.194-.387-.194-.775,0-.194-.1-.484-.1-.775s.1-.194.291-.291c.1,0,.1-.1.194-.1.194-.1.194-.291.484-.1h0a.338.338,0,0,0,.1-.194l.1-.1c0-.1,0-.1-.1-.194l-.1-.1-.1-.1c-.1,0,0-.387,0-.484a1.648,1.648,0,0,1,.1-.678c0-.1.1-.1.1-.194s.1-.1.1-.194c.291-.291,0-.291,0-.194s-.1,0-.1,0h0a3.668,3.668,0,0,1,0-1.453c0-.291.1-.484.1-.775a2.132,2.132,0,0,0-.1-.775c0-.1-.1-.1-.1-.194h0c-.1,0,0,.1,0,.387a.582.582,0,0,1,.1.387v.194c0,.1,0,.1-.1.194v.1l-.194.194c-.1.1.194.678-.291.387L7.448,52.1h0c-.194-.387-.1-.484,0-.484a.182.182,0,0,0,0-.291c0-.1.1-.291.1-.387-.291-.387.1-.291.1-.581-.194-.291,0-.387.1-.484s0-.194,0-.387.1,0,.194,0h0c0-.1.1-.1.1-.194a.356.356,0,0,1,.291-.1H8.9a.533.533,0,0,1,.291.484h.1c.1,0,.194-.194.194-.194a.1.1,0,0,1,.1.1c-.1.1,0,.387,0,.484h0s.291-.291.291-.1v.194c0,.1-.291.387-.194.484s.291-.291.387-.1c.1.387-.291.484-.291.678.1-.1.194-.1.387-.194.194.194,0,.387,0,.484s.194,0,.291,0a.547.547,0,0,1-.194.581c-.1.1.194.1.291,0h0l.1.1a.356.356,0,0,1-.1.291l-.1.1c-.1.1-.291.291,0,.194h.1c.1-.1.194-.291.194,0a.3.3,0,0,1-.1.194c-.1.1-.1.1-.194.1h-.194c0,.1,0,.194.1.194h.1c.194,0,.387-.194.581.1.1.1.1.1.194.1h.1a1.184,1.184,0,0,1,.872-.291l.581.194h.1a1.648,1.648,0,0,0,.678.1c.1,0,.194-.1.291-.194s.1-.291.194-.387a3.441,3.441,0,0,0-.194-.968c-.1-.387,0-.484.194-.775,0-.1.1-.1.1-.194.1-.1.1-.194.194-.291h0l.194-.194a1.41,1.41,0,0,0,.581-.872h.1a.589.589,0,0,1,0,.775h-.1c-.194.1-.484.194-.484.387.1,0,.194.1.291.1s.1.194.1.194a1.393,1.393,0,0,1-.194.291c-.1.1-.194,0-.291.194.1,0,.291-.1.387,0s-.484.387-.291.581h.194c-.1.291,0,.291-.194.387,0,.1,0,.1-.1.1l-.1.1h.1c.1,0,.194-.194.194.1,0,.1-.1.194-.194.291l-.1.1c0,.194,0,.1.1.1h.1c0,.1,0,.194-.1.194-.1.1-.1.194-.194.194h0c-.1,0-.1.1-.194.1l-.1.1a.873.873,0,0,1-.484.1c-.1,0-.194,0-.194-.1a.208.208,0,0,0-.194.194c0,.1-.291-.1-.291,0v.387c0,.1,0,.1.1.194s.1.194.194.291a.827.827,0,0,0,0,.678c.1,0,.1-.194.194-.1,0,.194-.1.484.1.581l.1.1a1.7,1.7,0,0,0,.484.387.356.356,0,0,0,.291.1h.29c.1,0,.1,0,.1.1v.194l-.1.1c0,.194,0,.291.1.291s.1,0,.194-.194a2.943,2.943,0,0,0,.484.678c.1.387.194.678,0,.872Zm10.168,2.324h0c0,.1,0,.484-.1.484h0a.338.338,0,0,0-.194.1h-.194a.1.1,0,0,1-.1-.1.338.338,0,0,1-.1-.194v-.291h-.1v.1h0a.356.356,0,0,1-.1.291c-.1.1-.387,0-.387,0h0v-.1h0c-.1,0,0-.291-.1-.291h-.1V61.2a.356.356,0,0,1-.1.291h-.484v-.1h0V61.2h-.1v.194h0c-.1,0-.291.1-.387,0h-.775V61.2h-.1v.1a.356.356,0,0,1-.1.291h-.678a.338.338,0,0,1-.1-.194h0c0-.1-.1-.1-.1-.194h-.1v.1h0v.387h-.291a.1.1,0,0,0-.1-.1h0v-.1h0v-.1c0-.1-.1-.194-.1-.291h-.1V61.3h0v.1h0a.3.3,0,0,1-.1.194h0c-.1.1-.291-.1-.387-.1h0v-.1c0-.1,0-.291-.1-.291h0v-.1s-.194-.1-.194,0,0,.387-.1.484h-.872a.1.1,0,0,1-.1-.1h0v-.1l-.1-.194c0-.1,0-.1-.1-.1h0a.356.356,0,0,0-.1.291h0v.1h-.1c-.194,0-.291-.1-.484-.194h0v-.291c0-.1-.1,0-.194,0h-.1a.1.1,0,0,0-.1.1h0V61.2h0v.194h0a.356.356,0,0,1-.291-.1h0l-.194-.1h0v-.194h0c0,.1-.1.194-.291.194-.1.194-.1.1-.1,0h0v-.1h0v-.1h-.194v.484h0v.1h-.678v-.194h0V61.2h0v-.1h9.3l.581-.1Zm-8.425-1.549c.1-.1.291-.291.387-.291h.291c-.1,0-.291.291-.291.194h0a1.053,1.053,0,0,0-.1.484h-.291l-.1-.1A.356.356,0,0,1,17.132,59.456Zm1.356.387h0v-.291h.484v.1l-.1.1v.291h0v.1h-.387Zm1.937-.387h0v.387H19.94l-.1-.1v-.1h0v-.1h.194l.387-.1Zm1.84-.1h0v.1h0s.1.1,0,.1h0v.194H21.78v-.484h0a.1.1,0,0,0,.1-.1h.387Zm1.549-.194H24.1a2.117,2.117,0,0,1,.484.291v.387l-.1.1H24.2a1.228,1.228,0,0,0-.1-.581.1.1,0,0,1-.1-.1Zm1.162-2.518-.194.291a2.947,2.947,0,0,1-.775.775,4.212,4.212,0,0,1-.678.581l-.291.1h-.1l-.581.291-.387.1-.291.1H20.424a2.132,2.132,0,0,1-.775-.1h-.194l-.291-.1h-.1l-.291-.1h-.291l-.194-.1c-.291-.1-.484-.291-.775-.387a5.075,5.075,0,0,1-1.065-.968,3.646,3.646,0,0,1-.872-1.453c-.1-.194-.1-.387-.194-.581a5.544,5.544,0,0,1,0-2.905c.1-.194.1-.387.194-.581a5.779,5.779,0,0,1,.872-1.453,6.784,6.784,0,0,1,1.84-1.453l.194-.1.387-.1.291-.1h.1l.291-.1h.194c.291,0,.484-.1.775-.1h.968l.291.1.291.1.291.194.581.291h.1l.291.194a4.1,4.1,0,0,1,.678.484,5.843,5.843,0,0,1,.775.775l.194.291a5.606,5.606,0,0,1,0,6Z" transform="translate(4394.911 3360.323)" fill="#393636"/>
    <path id="Path_15858" data-name="Path 15858" d="M20.994,17.287h0c-.1,0-.194-.194-.194-.194a.423.423,0,0,0,.291.387c.291.1.291.1.291,0s.1-.484,0-.581S21.284,17.384,20.994,17.287Z" transform="translate(4394.342 3359.981)" fill="#fff"/>
    <path id="Path_15859" data-name="Path 15859" d="M12.849,20.049v-.1h0v-.1h0v-.1h0v-.194l-.291-.1h0l-.194-.1-.291-.1-.194-.1-.194-.1-.1-.1h0l-.194-.291V18.5l-.1.291.1.194v.194l.1.1.1.194v.1h0l.194.194.1.1h.1l.1.1h.291l.194.1h.291Z" transform="translate(4394.643 3359.93)" fill="#393636"/>
    <path id="Path_15860" data-name="Path 15860" d="M12.284,14.568c.1.1.194.1.291.194a1.648,1.648,0,0,0,.678.1h.291a1.038,1.038,0,0,0-.194-.581l-.1-.1a1.648,1.648,0,0,0-.678-.1h-.1c-.387-.1-.484-.194-.581-.484C11.606,13.7,11.993,14.472,12.284,14.568Z" transform="translate(4394.626 3360.085)" fill="#393636"/>
    <path id="Path_15861" data-name="Path 15861" d="M17.43,67.915h-.484L14.913,65.3l-.581.678,1.84,1.937H0v.775H2.227v1.646H2.034c-.194,0-.387-.1-.387-.291l-.387-.775-.775.581.194.484.484.775,1.162,1.743a1.13,1.13,0,0,0,.581.581H3l.581-.484-.291-.291-.484-.581-.291-.291L2.13,71.11h.194c.1-.1.291-.1.387-.291A1.337,1.337,0,0,0,3,70.432H3l.194.387H4.454v2.615h.872V68.689H9.683l.194.291a.356.356,0,0,1,.1.291h0c0,.1.1.194.1.291,0,.484-.194.678-.678.678h.1v-.678H7.166a.648.648,0,0,0-.678.387,1.043,1.043,0,0,0-.194.775,3.44,3.44,0,0,0,.194.968c.1.194.194.291.291.484a5.321,5.321,0,0,0,.678.872l.581.484.484-.775-.291-.1c-.1,0-.1-.1-.194-.1l-.387-.581a2.135,2.135,0,0,1-.581-1.453c0-.291.1-.291.194-.387H8.909v.1a1.888,1.888,0,0,0,.1.775,1.772,1.772,0,0,0,1.84,1.162,1.636,1.636,0,0,0,.968-.291V73.24h.872V68.5h1.549v1.453h-.194l-.194.1-.291.291v.194h0c0,.1.1.194.1.291a1.337,1.337,0,0,0,.291.387l.387.387c.1.1.194.1.387.194h.194l.1-.1a.338.338,0,0,0,.1-.194V70.82h1.356v2.518h.872V68.592h3.292v2.421l-.1.194a1.2,1.2,0,0,1-.775.387h-.387a.208.208,0,0,1-.194-.194,1.376,1.376,0,0,1-.194-.581v-.291c.194-.387.387-.484.581-.484h.194l.291.1.484.291-.194-.968h-.291l-.387-.1h-.194a.726.726,0,0,0-.484.1.967.967,0,0,0-.484.387,1.456,1.456,0,0,0-.387,1.065,1.228,1.228,0,0,0,.1.581c.1.1.1.194.194.291a1.465,1.465,0,0,0,1.356.678h.291l.291-.1.194-.194v1.356H21.3V68.786h.968v-.872ZM4.551,70.045H3.1V68.689H4.551Zm7.359.872-.194.291a1.572,1.572,0,0,1-.872.484.847.847,0,0,1-.872-.581l-.1-.291h.194l.291-.1a1.18,1.18,0,0,0,.581-1.162l-.1-.291c0-.194-.1-.291-.194-.484v-.1h1.259Zm4.551-.775H15.009V68.689h1.453Z" transform="translate(4395 3358.449)" fill="#4d4d4d"/>
    <path id="Path_15862" data-name="Path 15862" d="M41.013,67.915,38.979,65.3l-.484.678,1.84,1.937H26.1v.775h4.842v.968H28.327l.387.291.1.1.291.387c.1.194.194.291.291.484a.873.873,0,0,1,.1.484v.291l-.1.194a.468.468,0,0,1-.678,0,.967.967,0,0,1-.387-.484,3.272,3.272,0,0,1-.581-1.162l-.194-.581v-.484l-.775.581.1.291.194.484.194.484c0,.1.1.194.1.291a2.026,2.026,0,0,0,.387.581,1.545,1.545,0,0,0,1.356.775,1.228,1.228,0,0,0,.581-.1,1.4,1.4,0,0,0,.775-1.259v-.291l-.1-.387-.194-.387h1.065v3.1h.581V68.592h1.743l.194.291a.356.356,0,0,1,.1.291h0c0,.1.1.194,0,.291,0,.484-.194.678-.678.678h-.1l-.291-.1v.291a1.043,1.043,0,0,0,.194.775,1.772,1.772,0,0,0,1.84,1.162,1.636,1.636,0,0,0,.968-.291v1.356h.872V68.592h3.777v.678H38.495a.881.881,0,0,0-.775.387,1.562,1.562,0,0,0-.291.872,2.132,2.132,0,0,0,.1.775c.1.291.194.484.291.775l.291.484.387.484.291.291h0c.1,0,.1.1.194.1h.1l.678-.678h-.387c-.1,0-.194-.1-.387-.291a5.736,5.736,0,0,1-.387-.581,2.746,2.746,0,0,1-.387-1.259v-.194c0-.1.1-.194.194-.291h1.84v3.292h.775V68.689h.872v-.775Zm-5.229,3-.1.291a1.572,1.572,0,0,1-.872.484.847.847,0,0,1-.872-.581l-.194-.291h.194l.291-.1a1.477,1.477,0,0,0,.678-1.162l-.194-.387c0-.194-.1-.291-.194-.484l-.1-.1h1.259Z" transform="translate(4394.174 3358.449)" fill="#4d4d4d"/>
  </g>
</svg>
